<svg xmlns="http://www.w3.org/2000/svg" width="800" height="300" xml:space="preserve"><path fill="#F4A0A0" d="M425.477 35.611h17.226v6.684h-17.226z"/><path fill="#FFF" d="M425.477 42.295h17.226v6.684h-17.226z"/><path fill="#FFF" d="M441.389 34.927h1.498v53.912h-1.498z"/><path fill="#F1D59D" d="M213.593 164.501h-3.435v6.349c0 .948.769 1.719 1.718 1.719s1.718-.771 1.718-1.719a1.72 1.72 0 0 0 3.436 0v-6.349h-3.437zM225.372 164.501h-3.437v6.349a1.72 1.72 0 0 0 1.718 1.719 1.72 1.72 0 0 0 1.719-1.719 1.72 1.72 0 0 0 3.436 0v-6.349h-3.436z"/><g fill="#F1B986"><path d="M227.758 172.432a1.72 1.72 0 0 1-2.386-1.582v-6.348h1.337v6.348c0 .711.433 1.321 1.049 1.582zM224.323 172.432a1.69 1.69 0 0 1-.668.137 1.72 1.72 0 0 1-1.717-1.719v-6.348h1.336v6.348a1.722 1.722 0 0 0 1.049 1.582zM215.979 172.432a1.718 1.718 0 0 1-2.385-1.582v-6.348h1.337v6.348c0 .711.432 1.321 1.048 1.582zM212.544 172.432a1.718 1.718 0 0 1-2.385-1.582v-6.348h1.337v6.348c0 .711.431 1.321 1.048 1.582z"/></g><path fill="#F9F6F9" d="M237.161 154.82a3.565 3.565 0 0 0-3.565-3.564h-.089a2.93 2.93 0 0 0-1.825-5.221h-24.396a2.93 2.93 0 0 0-1.825 5.221h-.089a3.565 3.565 0 0 0-3.566 3.564 3.566 3.566 0 0 0 3.566 3.57h.089a2.897 2.897 0 0 0-1.105 2.283 2.932 2.932 0 0 0 2.93 2.932h.553a2.47 2.47 0 0 0 2.323 3.316h18.648a2.468 2.468 0 0 0 2.47-2.471c0-.296-.053-.58-.146-.845h.552a2.93 2.93 0 0 0 2.928-2.932c0-.926-.432-1.752-1.104-2.283h.089a3.566 3.566 0 0 0 3.562-3.57z"/><path fill="#DDDAEC" d="M218.425 166.921h-8.266a2.456 2.456 0 0 1-1.747-.723 2.463 2.463 0 0 1-.577-2.591h-.552a2.932 2.932 0 0 1-2.93-2.934c0-.925.433-1.752 1.105-2.283h-.09a3.566 3.566 0 0 1 0-7.133h.09a2.93 2.93 0 0 1 1.825-5.222h8.266a2.93 2.93 0 0 0-1.824 5.222h-.091a3.567 3.567 0 0 0 0 7.133h.091a2.895 2.895 0 0 0-1.104 2.283 2.931 2.931 0 0 0 2.928 2.934h.553a2.477 2.477 0 0 0-.146.845c0 .683.274 1.302.724 1.746a2.458 2.458 0 0 0 1.745.723z"/><path fill="#F1D59D" d="M235.323 147.522a6.252 6.252 0 0 1-3.315 5.521v.324a5.443 5.443 0 0 1-4.889 5.42 5.08 5.08 0 0 1-.567.023c-.193 0-.383-.01-.569-.023a5.454 5.454 0 0 1-4.887-5.426v-.323a6.287 6.287 0 0 1-2.4-2.257 6.25 6.25 0 0 1 5.331-9.514h5.049c1.727 0 3.287.7 4.42 1.831a6.264 6.264 0 0 1 1.827 4.424z"/><path fill="#F1B986" d="M228.522 158.454a5.455 5.455 0 0 1-7.428-5.087v-.324a6.302 6.302 0 0 1-2.4-2.257 6.25 6.25 0 0 1 5.331-9.514h3.946a6.25 6.25 0 0 0-2.933 11.771v.324a5.46 5.46 0 0 0 3.484 5.087z"/><g fill="#2B4D66"><path d="M224.767 149.812a.57.57 0 0 1-.569-.57v-.952a.568.568 0 0 1 1.137 0v.952a.57.57 0 0 1-.568.57zM228.333 149.812a.57.57 0 0 1-.569-.57v-.952a.568.568 0 0 1 1.136 0v.952a.57.57 0 0 1-.567.57z"/></g><path fill="#E2A770" d="M228.895 154.318a2.34 2.34 0 0 1-1.775 2.271v2.198c-.188.021-.376.026-.568.026s-.382-.01-.568-.026v-2.198a2.345 2.345 0 0 1-1.773-2.271.567.567 0 1 1 1.134 0 1.208 1.208 0 0 0 2.415 0 .568.568 0 0 1 1.135 0z"/><g fill="#F1B986"><path d="M213.627 148.384a3.518 3.518 0 0 0 4.974-4.975l-4.974 4.975zM239.472 148.384a3.518 3.518 0 0 1-4.974-4.975l4.974 4.975z"/></g><path fill="#F9F6F9" d="M235.457 140.7h-.432a2.118 2.118 0 1 0-4.237 0v-.957a2.12 2.12 0 0 0-4.238 0 2.12 2.12 0 0 0-4.239 0v.957a2.119 2.119 0 1 0-4.238 0h-.43a1.557 1.557 0 0 0 0 3.113h.43a2.119 2.119 0 1 0 4.238 0v.956a2.12 2.12 0 0 0 4.239 0 2.12 2.12 0 1 0 4.238 0v-.956a2.118 2.118 0 1 0 4.237 0h.432c.857 0 1.556-.697 1.556-1.557s-.697-1.557-1.556-1.556z"/><path fill="#DDDAEC" d="M237.013 142.256c0 .86-.697 1.557-1.556 1.557h-.432c0 .585-.234 1.116-.621 1.499a2.118 2.118 0 0 1-3.615-1.499v.956c0 1.17-.95 2.12-2.12 2.12a2.12 2.12 0 0 1-2.119-2.12 2.12 2.12 0 0 1-4.239 0v-.956a2.116 2.116 0 0 1-2.119 2.119 2.118 2.118 0 0 1-2.117-2.119h-.432a1.556 1.556 0 0 1-.941-2.795c.261.198.588.315.939.315h.432a2.118 2.118 0 1 0 4.236 0v.958a2.119 2.119 0 0 0 4.239 0 2.119 2.119 0 0 0 4.239 0v-.958a2.118 2.118 0 1 0 4.236 0h.432c.354 0 .68-.117.939-.315.057.042.109.088.159.139.286.28.46.669.46 1.099z"/><g><path fill="#DDDAEC" d="M425.306 89.156h-13.952V69.494h13.952v19.662z"/><path fill="#F9F6F9" d="M424.035 61.249v27.907h16.49V75.202l-7.609-5.708v-8.246l-8.881.001z"/><path fill="#EF8031" d="M420.232 59.98h13.946l-11.416 11.416h-13.948l11.418-11.416z"/><path opacity=".5" fill="#EF8031" d="m427.938 64.958-6.438 6.438h1.269l11.416-11.416h-13.947l-1.271 1.268h7.438c1.933.001 2.903 2.341 1.533 3.71z"/><path fill="#351C0A" d="M434.819 89.156h-3.812v-7.611h3.812v7.611z"/><path fill="#F7941E" d="m432.915 67.591 10.898 7.992-1.603 2.156-9.304-6.977.009-3.171z"/><path fill="#351C0A" d="M415.156 77.739v3.805h5.074v-3.858l-5.074.053z"/><path fill="#E0C999" d="M414.523 76.471h6.343v3.171l-2.537-.634-3.806.634v-3.171z"/><path fill="#C6AD81" d="M414.523 78.268v1.375l3.806-.634 2.537.634v-3.171h-.634v1.902l-2.539-.634-3.17.528z"/><path fill="#A08F6D" d="M418.182 79.642a.48.48 0 0 1-.481-.486v-2.685h1.271v2.685a.485.485 0 0 1-.48.486h-.31z"/></g><path fill="#146C43" d="M212 262c0-98.859 84.62-179 189-179s189 80.141 189 179H212z"/><path fill="#FFF" d="M333 414c0-123.71 104.09-224 232.5-224C693.908 190 798 290.29 798 414H333z"/><path fill="#198754" d="M3 399c0-129.79 113.94-235 254.5-235S512 269.21 512 399H3z"/><g><ellipse fill="#146C43" cx="104" cy="246.5" rx="12" ry="5.5"/><path fill="#217D68" d="m89.5 232.5 13.38-56 15.62 56h-29z"/><path fill="#AF946C" d="M103 209h2v37h-2z"/><path fill="#AF946C" d="m103.5 218.34 5.729-5.84 1.271 1.3-6.36 6.479-.43.221-.21-2.16zM103.5 226.34l5.729-5.84 1.271 1.3-6.36 6.479-.43.221-.21-2.16zM104.5 222.34l-5.73-5.84-1.27 1.3 6.358 6.479.432.221.21-2.16z"/></g><g><ellipse fill="#0F6038" cx="349" cy="121.5" rx="12" ry="5.5"/><path fill="#8FD182" d="m333.5 107.5 14.77-69 17.23 69h-32z"/></g><path fill="#AF946C" d="M348 84h2v37h-2z"/><path fill="#AF946C" d="m348.5 93.34 5.729-5.84 1.271 1.3-6.36 6.48-.43.22-.21-2.16zM348.5 101.34l5.729-5.84 1.271 1.3-6.36 6.48-.43.22-.21-2.16zM349.5 97.34l-5.73-5.84-1.27 1.3 6.358 6.48.43.22.212-2.16z"/><g><ellipse fill="#0F6038" cx="474.228" cy="152.147" rx="9.018" ry="4.133"/><path fill="#F1D59D" d="M475.911 148.383v2.962a.801.801 0 1 0 1.603 0 .802.802 0 1 0 1.603 0v-2.962H475.911zM470.412 148.383v2.962a.803.803 0 0 0 1.605 0 .802.802 0 1 0 1.602 0v-2.962h-3.207z"/><g fill="#F1B986"><path d="M471.395 151.346v-2.962h.624v2.962a.802.802 0 0 1-1.114.739.803.803 0 0 0 .49-.739zM472.996 151.346v-2.962h.624v2.962a.8.8 0 0 1-1.112.739.8.8 0 0 0 .488-.739zM476.894 151.346v-2.962h.623v2.962a.802.802 0 0 1-1.114.739.807.807 0 0 0 .491-.739zM478.494 151.346v-2.962h.622v2.962a.8.8 0 0 1-1.112.739.801.801 0 0 0 .49-.739z"/></g><path fill="#F9F6F9" d="M483.017 143.865c0-.918-.744-1.664-1.664-1.664h-.044a1.365 1.365 0 0 0-.848-2.436h-11.387c-.755 0-1.363.611-1.363 1.367 0 .433.199.819.517 1.069h-.043a1.664 1.664 0 0 0 0 3.328h.043a1.364 1.364 0 0 0 .846 2.436h.259a1.152 1.152 0 0 0 1.082 1.547h8.703a1.151 1.151 0 0 0 1.084-1.547h.259a1.365 1.365 0 0 0 .848-2.436h.043c.919 0 1.665-.744 1.665-1.664z"/><path fill="#DDDAEC" d="M474.272 149.512h-3.859c-.316 0-.604-.129-.813-.338a1.162 1.162 0 0 1-.268-1.209h-.258a1.366 1.366 0 0 1-.848-2.436h-.042a1.664 1.664 0 1 1 0-3.328h.042a1.365 1.365 0 0 1 .848-2.435h3.859a1.366 1.366 0 0 0-.85 2.435h-.044c-.919 0-1.662.745-1.662 1.664 0 .919.743 1.664 1.662 1.664h.044a1.367 1.367 0 0 0 .85 2.436h.257a1.162 1.162 0 0 0 .267 1.209c.207.21.494.338.815.338z"/><path fill="#F1D59D" d="M467.375 140.459c0-.805.325-1.534.854-2.062s1.258-.854 2.063-.854h2.356a2.916 2.916 0 0 1 2.487 4.439 2.94 2.94 0 0 1-1.118 1.054v.151a2.546 2.546 0 0 1-2.814 2.533 2.543 2.543 0 0 1-2.279-2.53v-.151a2.922 2.922 0 0 1-1.549-2.58z"/><path fill="#F1B986" d="M470.55 145.561a2.55 2.55 0 0 0 1.626-2.375v-.15a2.934 2.934 0 0 0 1.118-1.054 2.915 2.915 0 0 0-2.489-4.438h1.84a2.917 2.917 0 0 1 1.37 5.492v.15a2.548 2.548 0 0 1-3.465 2.375z"/><g fill="#2B4D66"><path d="M472.035 141.262v-.444a.267.267 0 0 1 .533 0v.444a.264.264 0 0 1-.266.265.265.265 0 0 1-.267-.265zM470.37 141.262v-.444a.267.267 0 0 1 .534 0v.444a.267.267 0 0 1-.534 0z"/></g><path fill="#E2A770" d="M470.376 143.631c0-.147.117-.265.266-.265.146 0 .265.118.265.265a.564.564 0 0 0 1.127 0c0-.147.12-.265.269-.265.144 0 .265.118.265.265 0 .512-.353.942-.829 1.061v1.026a2.406 2.406 0 0 1-.535 0v-1.026a1.094 1.094 0 0 1-.828-1.061z"/><g fill="#F1B986"><path d="M475.18 138.54a1.635 1.635 0 0 0 0 2.322 1.641 1.641 0 0 0 2.321 0l-2.321-2.322zM467.76 138.54a1.641 1.641 0 1 1-2.321 2.322l2.321-2.322z"/></g><path fill="#F9F6F9" d="M466.586 138.001c0 .401.325.726.729.726h.2a.988.988 0 1 0 1.975 0v.446a.988.988 0 1 0 1.975 0 .987.987 0 1 0 1.974 0v-.446a.99.99 0 0 0 1.977 0h.198a.729.729 0 0 0 .729-.726c0-.4-.325-.726-.729-.726h-.198a.989.989 0 1 0-1.977 0v-.447a.988.988 0 1 0-1.974 0 .988.988 0 1 0-1.975 0v.447a.987.987 0 1 0-1.975 0h-.2a.725.725 0 0 0-.729.726z"/><path fill="#DDDAEC" d="M466.586 138.002a.718.718 0 0 1 .286-.578.728.728 0 0 0 .44.147h.2c0 .273.11.521.29.7a.985.985 0 0 0 1.686-.698v.446a.989.989 0 1 0 1.976 0 .987.987 0 1 0 1.974 0v-.446c0 .273.11.521.29.7a.988.988 0 0 0 1.689-.699h.2a.73.73 0 0 0 .438-.147.721.721 0 0 1 .076 1.092.728.728 0 0 1-.516.212h-.199a.99.99 0 1 1-1.978-.001v.446a.988.988 0 1 1-1.975 0 .988.988 0 1 1-1.975 0v-.446a.987.987 0 0 1-1.686.698.991.991 0 0 1-.291-.7h-.2a.725.725 0 0 1-.725-.726z"/></g><g><ellipse fill="#E0EBE8" cx="665.5" cy="264.255" rx="12" ry="4"/><path fill="#217D68" d="m648 253.766 16.38-62.021 19.12 62.021H648z"/><path fill="#AF946C" d="M664.5 231.255h2v33h-2z"/><path fill="#AF946C" d="m665 238.005 5.729-5.76 1.271 1.278-6.36 6.41-.43.211-.21-2.139zM665 245.904l5.729-5.76L672 241.42l-6.36 6.41-.43.21-.21-2.136zM666 241.955l-5.729-5.762-1.271 1.284 6.358 6.408.43.211.212-2.141z"/></g></svg>