<?xml version="1.0" encoding="utf-8"?>
<!-- Generator: Adobe Illustrator 16.0.0, SVG Export Plug-In . SVG Version: 6.00 Build 0)  -->
<!DOCTYPE svg PUBLIC "-//W3C//DTD SVG 1.1//EN" "http://www.w3.org/Graphics/SVG/1.1/DTD/svg11.dtd">
<svg version="1.1" id="Layer_1" xmlns="http://www.w3.org/2000/svg" xmlns:xlink="http://www.w3.org/1999/xlink" x="0px" y="0px"
	 width="800px" height="300px" viewBox="0 0 800 300" enable-background="new 0 0 800 300" xml:space="preserve">
<g>
	<g>
		<g>
			<rect x="425.477" y="35.611" fill="#F4A0A0" width="17.223" height="6.684"/>
			<rect x="425.477" y="42.295" fill="#FFFFFF" width="17.223" height="6.684"/>
		</g>
		<g id="flagRight">
			<rect id="flagPoleLeft2" x="441.389" y="34.927" fill="#FFFFFF" width="1.498" height="53.912"/>
		</g>
	</g>
	<g>
		<g>
			<path fill="#F1D59D" d="M208.593,162.501h-3.435v6.348c0,0.949,0.769,1.719,1.718,1.719c0.949,0,1.718-0.77,1.718-1.719
				c0,0.949,0.769,1.719,1.717,1.719c0.95,0,1.719-0.77,1.719-1.719v-6.348H208.593z"/>
			<path fill="#F1D59D" d="M220.372,162.501h-3.435v6.348c0,0.949,0.769,1.719,1.718,1.719s1.717-0.77,1.717-1.719
				c0,0.949,0.77,1.719,1.719,1.719c0.948,0,1.717-0.77,1.717-1.719v-6.348H220.372z"/>
			<g>
				<path fill="#F1B986" d="M222.758,170.432c-0.205,0.088-0.431,0.136-0.668,0.136c-0.949,0-1.718-0.77-1.718-1.719v-6.347h1.337
					v6.347C221.709,169.561,222.142,170.171,222.758,170.432z"/>
				<path fill="#F1B986" d="M219.323,170.432c-0.206,0.088-0.432,0.136-0.668,0.136c-0.949,0-1.717-0.77-1.717-1.719v-6.347h1.336
					v6.347C218.275,169.561,218.708,170.171,219.323,170.432z"/>
				<path fill="#F1B986" d="M210.979,170.432c-0.206,0.088-0.431,0.136-0.668,0.136c-0.949,0-1.717-0.77-1.717-1.719v-6.347h1.337
					v6.347C209.931,169.561,210.363,170.171,210.979,170.432z"/>
				<path fill="#F1B986" d="M207.544,170.432c-0.205,0.088-0.431,0.136-0.668,0.136c-0.949,0-1.717-0.77-1.717-1.719v-6.347h1.337
					v6.347C206.496,169.561,206.927,170.171,207.544,170.432z"/>
			</g>
			<path fill="#F9F6F9" d="M232.161,152.821c0-1.969-1.596-3.565-3.565-3.565h-0.089c0.672-0.534,1.105-1.363,1.105-2.291
				c0-1.618-1.311-2.93-2.929-2.93h-24.398c-1.617,0-2.928,1.312-2.928,2.93c0,0.927,0.431,1.753,1.105,2.291h-0.089
				c-1.97,0-3.566,1.597-3.566,3.565c0,1.973,1.596,3.569,3.566,3.569h0.089c-0.673,0.533-1.105,1.362-1.105,2.288
				c0,1.619,1.311,2.928,2.928,2.928h0.553c-0.096,0.267-0.148,0.548-0.148,0.844c0,1.367,1.106,2.471,2.469,2.471h18.65
				c1.365,0,2.47-1.104,2.47-2.471c0-0.296-0.053-0.58-0.148-0.844h0.552c1.617,0,2.928-1.309,2.928-2.928
				c0-0.926-0.432-1.752-1.105-2.288h0.089C230.565,156.391,232.161,154.792,232.161,152.821L232.161,152.821z"/>
			<path fill="#DDDAEC" d="M213.425,164.921h-8.266c-0.682,0-1.3-0.276-1.747-0.723c-0.446-0.444-0.723-1.065-0.723-1.746
				c0-0.298,0.053-0.581,0.148-0.844h-0.552c-1.618,0-2.928-1.31-2.928-2.93c0-0.925,0.431-1.752,1.105-2.288h-0.09
				c-1.968,0-3.565-1.599-3.565-3.569c0-1.968,1.597-3.563,3.565-3.563h0.09c-0.673-0.536-1.105-1.364-1.105-2.292
				c0-1.618,1.311-2.93,2.928-2.93h8.266c-1.617,0-2.928,1.312-2.928,2.93c0,0.928,0.431,1.753,1.106,2.292h-0.091
				c-1.969,0-3.565,1.596-3.565,3.563c0,1.973,1.596,3.569,3.565,3.569h0.091c-0.674,0.533-1.106,1.363-1.106,2.288
				c0,1.62,1.311,2.93,2.928,2.93h0.553c-0.096,0.265-0.148,0.548-0.148,0.844c0,0.683,0.276,1.302,0.724,1.746
				C212.126,164.645,212.744,164.921,213.425,164.921L213.425,164.921z"/>
			<path fill="#F1D59D" d="M230.323,145.522c0,2.392-1.344,4.471-3.317,5.521v0.324c0,1.504-0.61,2.867-1.598,3.857
				c-0.862,0.858-2.01,1.436-3.291,1.567c-0.186,0.019-0.375,0.028-0.567,0.028c-0.193,0-0.383-0.01-0.569-0.028
				c-2.746-0.283-4.887-2.604-4.887-5.425v-0.324c-0.987-0.525-1.816-1.308-2.4-2.257c-0.583-0.951-0.918-2.067-0.918-3.264
				c0-3.452,2.797-6.25,6.249-6.25h5.048c1.726,0,3.288,0.7,4.419,1.831C229.623,142.235,230.323,143.795,230.323,145.522
				L230.323,145.522z"/>
			<path fill="#F1B986" d="M223.522,156.454c-0.611,0.238-1.276,0.368-1.972,0.368c-3.014,0-5.456-2.442-5.456-5.455v-0.324
				c-0.987-0.525-1.816-1.309-2.4-2.257c-0.583-0.949-0.918-2.067-0.918-3.264c0-3.452,2.798-6.25,6.249-6.25h3.946
				c-3.452,0-6.251,2.798-6.251,6.25c0,1.196,0.336,2.313,0.92,3.264c0.582,0.948,1.412,1.731,2.398,2.257v0.324
				C220.039,153.682,221.484,155.664,223.522,156.454L223.522,156.454z"/>
			<g>
				<path fill="#2B4D66" d="M219.767,147.812c-0.314,0-0.569-0.256-0.569-0.57v-0.952c0-0.313,0.255-0.568,0.569-0.568
					s0.568,0.255,0.568,0.568v0.952C220.334,147.556,220.081,147.812,219.767,147.812z"/>
				<path fill="#2B4D66" d="M223.333,147.812c-0.314,0-0.569-0.256-0.569-0.57v-0.952c0-0.313,0.254-0.568,0.569-0.568
					c0.314,0,0.569,0.255,0.569,0.568v0.952C223.902,147.556,223.647,147.809,223.333,147.812z"/>
			</g>
			<path fill="#E2A770" d="M223.895,152.319c0,1.096-0.757,2.02-1.777,2.274v2.198c-0.186,0.021-0.376,0.03-0.568,0.03
				s-0.382-0.01-0.568-0.03v-2.198c-1.019-0.255-1.775-1.178-1.775-2.274c0-0.314,0.254-0.568,0.568-0.568s0.568,0.254,0.568,0.568
				c0,0.665,0.542,1.207,1.207,1.207c0.666,0,1.208-0.542,1.208-1.207c0-0.314,0.255-0.568,0.569-0.568
				C223.64,151.751,223.895,152.005,223.895,152.319L223.895,152.319z"/>
			<g>
				<path fill="#F1B986" d="M208.627,146.384c1.373,1.375,3.6,1.375,4.974,0c1.374-1.373,1.374-3.6,0-4.975L208.627,146.384z"/>
				<path fill="#F1B986" d="M234.472,146.384c-1.373,1.375-3.6,1.375-4.974,0c-1.374-1.373-1.374-3.6,0-4.975L234.472,146.384z"/>
			</g>
			<path fill="#F9F6F9" d="M230.457,138.7h-0.43c0-1.171-0.948-2.119-2.119-2.119s-2.12,0.948-2.12,2.119v-0.957
				c0-1.17-0.949-2.119-2.119-2.119s-2.119,0.949-2.119,2.119c0-1.17-0.949-2.119-2.12-2.119c-1.169,0-2.119,0.949-2.119,2.119
				v0.957c0-1.171-0.949-2.119-2.119-2.119c-1.17,0-2.119,0.948-2.119,2.119h-0.43c-0.859,0-1.556,0.696-1.556,1.556
				s0.697,1.557,1.556,1.557h0.43c0,1.17,0.948,2.119,2.119,2.119c1.17,0,2.119-0.949,2.119-2.119v0.956
				c0,1.17,0.949,2.12,2.119,2.12c1.171,0,2.12-0.95,2.12-2.12c0,1.17,0.948,2.12,2.119,2.12s2.119-0.95,2.119-2.12v-0.956
				c0,1.17,0.949,2.119,2.12,2.119s2.119-0.949,2.119-2.119h0.43c0.859,0,1.556-0.697,1.556-1.557
				C232.013,139.396,231.316,138.699,230.457,138.7z"/>
			<path fill="#DDDAEC" d="M232.013,140.256c0,0.86-0.697,1.557-1.556,1.557h-0.43c0,0.585-0.236,1.116-0.621,1.499
				c-0.383,0.383-0.913,0.62-1.498,0.62c-1.17,0-2.119-0.949-2.119-2.119v0.956c0,1.17-0.95,2.12-2.12,2.12
				c-1.169,0-2.119-0.95-2.119-2.12c0,1.17-0.95,2.12-2.12,2.12c-1.17,0-2.119-0.95-2.119-2.12v-0.956
				c0,0.585-0.237,1.116-0.62,1.499c-0.384,0.383-0.914,0.62-1.499,0.62c-1.17,0-2.119-0.949-2.119-2.119h-0.43
				c-0.429,0-0.819-0.174-1.1-0.455c-0.282-0.282-0.456-0.672-0.456-1.102c0-0.505,0.242-0.955,0.615-1.238
				c0.261,0.198,0.588,0.315,0.941,0.315h0.43c0,1.17,0.948,2.12,2.119,2.12c0.585,0,1.115-0.236,1.499-0.621
				c0.383-0.383,0.62-0.913,0.62-1.499v0.958c0,1.17,0.949,2.118,2.119,2.118c1.17,0,2.12-0.947,2.12-2.118
				c0,1.17,0.949,2.118,2.119,2.118c1.17,0,2.12-0.947,2.12-2.118v-0.958c0,1.17,0.948,2.12,2.119,2.12
				c0.585,0,1.115-0.236,1.498-0.621c0.384-0.383,0.621-0.913,0.621-1.499h0.43c0.354,0,0.68-0.117,0.941-0.315
				c0.055,0.042,0.109,0.088,0.159,0.139C231.839,139.437,232.013,139.826,232.013,140.256L232.013,140.256z"/>
		</g>
	</g>
	<g>
		<path fill="#D1B483" d="M425.306,89.156h-13.952V69.494h13.952V89.156z"/>
		<path fill="#E5CB95" d="M424.037,61.249v27.907h16.49V75.202l-7.61-5.708v-8.246L424.037,61.249L424.037,61.249z"/>
		<path fill="#603813" d="M420.232,59.98h13.949l-11.416,11.416h-13.951L420.232,59.98z"/>
		<path fill="#42210B" d="M427.938,64.958l-6.438,6.438h1.269l11.416-11.416h-13.95l-1.271,1.268h7.439
			C428.338,61.249,429.308,63.589,427.938,64.958z"/>
		<path fill="#351C0A" d="M434.819,89.156h-3.809v-7.611h3.809V89.156z"/>
		<path fill="#42210B" d="M432.917,67.591l10.898,7.992l-1.6,2.156l-9.302-6.977L432.917,67.591L432.917,67.591z"/>
		<path fill="#351C0A" d="M415.158,77.739v3.805h5.074v-3.858L415.158,77.739z"/>
		<path fill="#E0C999" d="M414.523,76.471h6.343v3.171l-2.537-0.634l-3.806,0.634V76.471z"/>
		<path fill="#C6AD81" d="M414.523,78.268v1.375l3.806-0.634l2.537,0.634v-3.171h-0.634v1.902l-2.539-0.634L414.523,78.268z"/>
		<path fill="#A08F6D" d="M418.182,79.642c-0.27,0-0.484-0.218-0.484-0.486v-2.685h1.269v2.685c0,0.268-0.217,0.486-0.483,0.486
			H418.182L418.182,79.642z"/>
		<path fill="#8F5521" d="M420.866,65.054h-3.808v-6.342h3.808V65.054z"/>
		<path fill="#603714" d="M418.329,65.054h-1.271v-6.342h1.271V65.054z"/>
		<path fill="#E0C999" d="M422.135,59.98h-6.343v-2.537h6.343V59.98z"/>
		<path fill="#A08F6D" d="M418.963,59.98h-3.171v-2.537h3.171V59.98z"/>
	</g>
	<g id="hills">
		<path id="backHill" fill="#16A085" d="M212,262c0-98.859,84.62-179,189-179s189,80.141,189,179H401H212z"/>
		<path id="whiteHill" fill="#FFFFFF" d="M333,414c0-123.71,104.09-224,232.5-224S798,290.29,798,414H565.5H333z"/>
		<path id="leftHill" fill="#1ABC9C" d="M3,399c0-129.79,113.94-235,254.5-235C398.06,164,512,269.21,512,399H257.5H3z"/>
	</g>
	<g>
		<ellipse id="oval" fill="#439F8A" cx="104" cy="246.5" rx="12" ry="5.5"/>
		<path id="bezier" fill="#217D68" d="M89.5,232.5l13.38-56l15.62,56H89.5z"/>
		<rect id="rectangle" x="103" y="209" fill="#AF946C" width="2" height="37"/>
		<path id="bezier2" fill="#AF946C" d="M103.5,218.34l5.73-5.84l1.27,1.3l-6.36,6.479l-0.43,0.221L103.5,218.34z"/>
		<path id="bezier3" fill="#AF946C" d="M103.5,226.34l5.73-5.84l1.27,1.3l-6.36,6.479l-0.43,0.221L103.5,226.34z"/>
		<path id="bezier4" fill="#AF946C" d="M104.5,222.34l-5.73-5.84l-1.27,1.3l6.36,6.479l0.43,0.221L104.5,222.34z"/>
	</g>
	<g id="yellowTree6">
		<ellipse id="oval7" fill="#378C79" cx="349" cy="121.5" rx="12" ry="5.5"/>
		<path id="bezier25" fill="#8FD182" d="M333.5,107.5l14.77-69l17.23,69H333.5z"/>
		<rect id="rectangle7" x="348" y="84" fill="#AF946C" width="2" height="37"/>
		<path id="bezier26" fill="#AF946C" d="M348.5,93.34l5.73-5.84l1.27,1.3l-6.36,6.48l-0.43,0.22L348.5,93.34z"/>
		<path id="bezier27" fill="#AF946C" d="M348.5,101.34l5.73-5.84l1.27,1.3l-6.36,6.48l-0.43,0.22L348.5,101.34z"/>
		<path id="bezier28" fill="#AF946C" d="M349.5,97.34l-5.73-5.84l-1.27,1.3l6.36,6.48l0.43,0.22L349.5,97.34z"/>
	</g>
	<g>
		<ellipse id="oval8_1_" fill="#378C79" cx="471.012" cy="136.989" rx="10.7" ry="3.252"/>
		<g>
			<path fill="#F1D59D" d="M473.254,132.451v3.941c0,0.589,0.477,1.067,1.066,1.067c0.589,0,1.066-0.478,1.066-1.067
				c0,0.589,0.479,1.067,1.067,1.067s1.066-0.478,1.066-1.067v-3.941h-2.134H473.254z"/>
			<path fill="#F1D59D" d="M465.938,132.451v3.941c0,0.589,0.479,1.067,1.067,1.067s1.066-0.478,1.066-1.067
				c0,0.589,0.479,1.067,1.066,1.067c0.59,0,1.067-0.478,1.067-1.067v-3.941h-2.134H465.938z"/>
			<g>
				<path fill="#F1B986" d="M467.242,136.392v-3.941h0.83v3.941c0,0.589-0.478,1.067-1.066,1.067c-0.147,0-0.287-0.03-0.415-0.083
					C466.974,137.214,467.242,136.834,467.242,136.392z"/>
				<path fill="#F1B986" d="M469.376,136.392v-3.941h0.83v3.941c0,0.589-0.479,1.067-1.067,1.067c-0.146,0-0.286-0.03-0.414-0.083
					C469.106,137.214,469.376,136.834,469.376,136.392z"/>
				<path fill="#F1B986" d="M474.559,136.392v-3.941h0.829v3.941c0,0.589-0.478,1.067-1.066,1.067c-0.147,0-0.286-0.03-0.414-0.083
					C474.289,137.214,474.558,136.834,474.559,136.392z"/>
				<path fill="#F1B986" d="M476.691,136.392v-3.941h0.829v3.941c0,0.589-0.478,1.067-1.065,1.067c-0.148,0-0.287-0.03-0.415-0.083
					C476.423,137.214,476.69,136.834,476.691,136.392z"/>
			</g>
			<path fill="#F9F6F9" d="M460.752,126.439c0,1.223,0.991,2.214,2.216,2.214h0.055c-0.417,0.333-0.688,0.847-0.688,1.423
				c0,1.005,0.815,1.819,1.82,1.819h0.342c-0.06,0.164-0.092,0.341-0.092,0.525c0,0.847,0.687,1.533,1.533,1.533h11.582
				c0.849,0,1.535-0.686,1.535-1.533c0-0.184-0.033-0.362-0.093-0.525h0.343c1.005,0,1.818-0.815,1.818-1.819
				c0-0.577-0.268-1.089-0.687-1.423h0.056c1.224,0,2.215-0.991,2.215-2.214c0-1.224-0.991-2.215-2.215-2.215h-0.056
				c0.419-0.333,0.687-0.847,0.687-1.423c0-1.005-0.813-1.819-1.818-1.819h-15.151c-1.006,0-1.82,0.814-1.82,1.819
				c0,0.576,0.27,1.09,0.687,1.423h-0.055C461.742,124.224,460.752,125.216,460.752,126.439L460.752,126.439z"/>
			<path fill="#DDDAEC" d="M472.387,133.953c0.424,0,0.806-0.171,1.084-0.45c0.277-0.277,0.45-0.662,0.45-1.084
				c0-0.185-0.033-0.361-0.093-0.524h0.342c1.006,0,1.82-0.814,1.82-1.819c0-0.576-0.268-1.089-0.687-1.423h0.056
				c1.223,0,2.215-0.991,2.215-2.214c0-1.223-0.992-2.214-2.215-2.214h-0.056c0.419-0.333,0.687-0.846,0.687-1.423
				c0-1.005-0.814-1.818-1.82-1.818h5.134c1.006,0,1.82,0.814,1.82,1.818c0,0.577-0.268,1.09-0.687,1.423h0.056
				c1.223,0,2.215,0.992,2.215,2.214c0,1.224-0.992,2.214-2.215,2.214h-0.056c0.419,0.334,0.687,0.848,0.687,1.423
				c0,1.005-0.814,1.819-1.82,1.819h-0.342c0.06,0.163,0.093,0.34,0.093,0.524c0,0.423-0.173,0.807-0.449,1.084
				c-0.277,0.278-0.661,0.45-1.085,0.45H472.387L472.387,133.953z"/>
			<path fill="#F1D59D" d="M461.893,121.906c0-1.072,0.435-2.042,1.136-2.744c0.704-0.703,1.674-1.137,2.746-1.137h3.136
				c2.143,0,3.88,1.738,3.88,3.881c0,0.743-0.208,1.437-0.569,2.027c-0.362,0.59-0.877,1.076-1.491,1.402v0.201
				c0,1.752-1.328,3.194-3.033,3.37c-0.116,0.013-0.234,0.018-0.354,0.018s-0.238-0.005-0.354-0.018
				c-0.795-0.082-1.508-0.439-2.044-0.973c-0.612-0.614-0.992-1.461-0.992-2.397v-0.201
				C462.727,124.685,461.893,123.392,461.893,121.906L461.893,121.906z"/>
			<path fill="#F1B986" d="M466.117,128.695c1.266-0.491,2.162-1.721,2.164-3.16v-0.201c0.612-0.327,1.128-0.813,1.489-1.402
				c0.362-0.589,0.569-1.283,0.569-2.026c0-2.144-1.737-3.881-3.88-3.881h2.448c2.145,0,3.882,1.738,3.882,3.881
				c0,0.743-0.207,1.437-0.569,2.026c-0.362,0.59-0.877,1.076-1.491,1.402v0.201c0,1.871-1.517,3.388-3.388,3.388
				C466.909,128.923,466.496,128.842,466.117,128.695L466.117,128.695z"/>
			<g>
				<path fill="#2B4D66" d="M468.097,122.974v-0.591c0-0.195,0.157-0.353,0.352-0.353c0.195,0,0.354,0.158,0.354,0.353v0.591
					c0,0.195-0.158,0.353-0.354,0.353C468.254,123.327,468.097,123.168,468.097,122.974z"/>
				<path fill="#2B4D66" d="M465.881,122.974v-0.591c0-0.195,0.158-0.353,0.354-0.353c0.194,0,0.353,0.158,0.353,0.353v0.591
					c0,0.195-0.158,0.353-0.353,0.353C466.039,123.327,465.881,123.168,465.881,122.974z"/>
			</g>
			<path fill="#E2A770" d="M465.886,126.127c0-0.196,0.159-0.353,0.354-0.353s0.352,0.157,0.352,0.353
				c0,0.413,0.337,0.749,0.751,0.749c0.412,0,0.749-0.336,0.749-0.749c0-0.196,0.159-0.353,0.354-0.353
				c0.193,0,0.352,0.157,0.352,0.353c0,0.681-0.469,1.254-1.103,1.412v1.366c-0.115,0.013-0.233,0.018-0.353,0.018
				s-0.238-0.005-0.354-0.018v-1.366C466.355,127.381,465.886,126.808,465.886,126.127L465.886,126.127z"/>
			<g>
				<path fill="#F1B986" d="M472.278,119.352c-0.854,0.853-0.854,2.236,0,3.089s2.236,0.853,3.089,0L472.278,119.352z"/>
				<path fill="#F1B986" d="M462.405,119.352c0.854,0.853,0.854,2.236,0,3.089s-2.237,0.853-3.09,0L462.405,119.352z"/>
			</g>
			<path fill="#F9F6F9" d="M460.843,118.635c0,0.534,0.433,0.966,0.967,0.966h0.267c0,0.727,0.59,1.316,1.317,1.316
				c0.727,0,1.316-0.589,1.316-1.316v0.593c0,0.728,0.589,1.316,1.315,1.316c0.729,0,1.316-0.589,1.316-1.316
				c0,0.728,0.589,1.316,1.316,1.316c0.727,0,1.316-0.589,1.316-1.316v-0.593c0,0.727,0.589,1.316,1.315,1.316
				s1.316-0.589,1.316-1.316h0.267c0.534,0,0.967-0.433,0.967-0.966c0-0.533-0.433-0.966-0.967-0.966h-0.267
				c0-0.728-0.588-1.316-1.316-1.316c-0.728,0-1.315,0.589-1.315,1.316v-0.594c0-0.727-0.59-1.316-1.316-1.316
				c-0.728,0-1.316,0.589-1.316,1.316c0-0.727-0.588-1.316-1.316-1.316c-0.727,0-1.315,0.589-1.315,1.316v0.594
				c0-0.728-0.59-1.316-1.316-1.316c-0.728,0-1.317,0.589-1.317,1.316h-0.267C461.275,117.668,460.843,118.102,460.843,118.635z"/>
			<path fill="#DDDAEC" d="M460.843,118.636c0-0.267,0.108-0.509,0.282-0.684c0.031-0.031,0.065-0.061,0.1-0.086
				c0.162,0.123,0.366,0.196,0.585,0.196h0.267c0,0.363,0.148,0.692,0.386,0.931s0.566,0.386,0.931,0.386
				c0.728,0,1.315-0.589,1.315-1.316v0.593c0,0.728,0.59,1.317,1.316,1.317c0.728,0,1.317-0.589,1.317-1.317
				c0,0.728,0.589,1.317,1.315,1.317s1.315-0.589,1.315-1.317v-0.593c0,0.363,0.148,0.693,0.386,0.931
				c0.239,0.239,0.568,0.386,0.932,0.386c0.727,0,1.316-0.589,1.316-1.316h0.267c0.219,0,0.422-0.073,0.583-0.196
				c0.233,0.176,0.384,0.455,0.384,0.77c0,0.267-0.109,0.509-0.285,0.683c-0.173,0.175-0.415,0.283-0.682,0.283h-0.267
				c0,0.727-0.59,1.316-1.316,1.316c-0.363,0-0.692-0.147-0.93-0.386c-0.239-0.239-0.386-0.567-0.386-0.931v0.594
				c0,0.727-0.59,1.315-1.316,1.315c-0.728,0-1.316-0.589-1.316-1.315c0,0.727-0.59,1.315-1.316,1.315s-1.315-0.589-1.315-1.315
				v-0.594c0,0.727-0.59,1.316-1.316,1.316c-0.363,0-0.692-0.147-0.931-0.386c-0.238-0.238-0.387-0.567-0.387-0.931h-0.267
				C461.275,119.602,460.843,119.169,460.843,118.636L460.843,118.636z"/>
		</g>
	</g>
	<g>
		<path fill="#C8EAF5" d="M638.223,243.324c0.029,0.239,0.04,0.479,0.04,0.72c0,11.87-32.841,21.5-73.341,21.5
			s-73.33-9.63-73.33-21.5c0-5.83,7.9-11.12,20.74-14.98c-0.03-0.239-0.04-0.479-0.04-0.72c0-11.87,32.83-21.5,73.33-21.5
			s73.34,9.63,73.34,21.5C658.962,234.174,651.063,239.464,638.223,243.324z"/>
		<path fill="#E6E9ED" d="M638.223,243.324c0.213,0.994,0.135,1.947-0.062,2.99c-0.286,0.974-0.692,1.938-1.27,2.788
			c-1.121,1.729-2.62,3.167-4.206,4.441c-3.224,2.509-6.853,4.34-10.521,5.99c-3.686,1.622-7.49,2.914-11.326,4.065
			c-3.84,1.145-7.731,2.079-11.642,2.912c-7.829,1.629-15.755,2.718-23.715,3.391c-3.985,0.364-7.961,0.558-11.978,0.691
			c-1.936,0.072-3.959,0.101-5.987,0.127c-2.007,0.01-4.006,0.007-6.012-0.05c-8.017-0.167-16.055-0.736-24.09-1.913
			c-4.018-0.585-8.044-1.284-12.06-2.246c-4.019-0.96-8.037-2.083-12.072-3.627c-4.035-1.577-8.088-3.387-12.156-6.738
			c-0.506-0.426-1.009-0.856-1.51-1.388l-0.744-0.766c-0.245-0.268-0.488-0.585-0.729-0.88c-0.239-0.305-0.478-0.593-0.708-0.92
			l-0.668-1.063c-0.447-0.672-0.812-1.566-1.16-2.392c-0.178-0.411-0.292-0.914-0.422-1.373c-0.112-0.479-0.262-0.928-0.304-1.438
			c-0.061-0.499-0.106-1.003-0.137-1.506l-0.021-0.377l0.037-0.759l0.027-0.366l0.027-0.366l0.017-0.199l0.072-0.453
			c0.104-0.604,0.24-1.211,0.403-1.804l0.127-0.438l0.123-0.32l0.257-0.637c0.18-0.411,0.354-0.869,0.563-1.229
			c1.656-3.069,3.779-4.997,5.779-6.579c2.028-1.557,4.062-2.775,6.078-3.79c4.041-2.056,8.059-3.493,12.08-4.741l-4.928,7.579
			l-0.063-0.813l-0.021-0.407l-0.008-0.204l-0.003-0.102c-0.023,0.505,0.028-0.808,0.025-0.684l0.065-0.731l0.035-0.374
			c0.047-0.304,0.102-0.609,0.164-0.914c0.125-0.609,0.282-1.216,0.465-1.805c0.655-1.773,1.534-3.322,2.495-4.527
			c1.928-2.468,4.011-4.073,6.038-5.446c2.039-1.369,4.064-2.403,6.086-3.343c2.023-0.951,4.033-1.707,6.052-2.436
			c4.034-1.374,8.058-2.438,12.081-3.326c4.024-0.879,8.043-1.603,12.071-2.134c8.051-1.083,16.097-1.679,24.133-1.801
			c4.023-0.078,8.019-0.041,12.049,0.084c1.932,0.065,3.965,0.174,5.993,0.283c2.006,0.133,4.002,0.258,6.001,0.437
			c3.996,0.327,7.982,0.788,11.957,1.362c3.973,0.577,7.938,1.246,11.874,2.101c3.937,0.85,7.858,1.811,11.735,3.003
			c3.873,1.206,7.72,2.556,11.471,4.295c3.726,1.773,7.444,3.767,10.708,6.845c1.598,1.546,3.135,3.432,3.944,5.892
			c0.355,1.233,0.557,2.585,0.33,3.878l-0.058,0.363l-0.031,0.187l-0.068,0.262c-0.093,0.347-0.194,0.691-0.304,1.029
			c-0.101,0.361-0.258,0.58-0.387,0.874c-0.144,0.269-0.261,0.562-0.43,0.803c-1.28,2.027-2.981,3.438-4.714,4.601
			c-1.749,1.148-3.565,2.081-5.431,2.835C645.908,241.518,642.086,242.566,638.223,243.324z M638.223,243.324
			c3.622-1.533,7.207-3.139,10.464-5.186c1.642-0.988,3.191-2.099,4.555-3.326c1.354-1.223,2.513-2.615,3.119-4.038
			c0.127-0.345,0.259-0.734,0.315-1.026c0.012-0.138,0.03-0.268,0.059-0.395l0.022-0.096l0.003-0.179l0.004-0.368
			c0.013-0.661-0.19-1.277-0.453-1.889c-0.604-1.217-1.73-2.371-3.09-3.36c-2.737-1.999-6.184-3.45-9.693-4.615
			c-3.522-1.183-7.2-2.08-10.913-2.819c-3.717-0.735-7.479-1.338-11.267-1.792c-3.789-0.447-7.594-0.817-11.41-1.071
			c-3.817-0.259-7.646-0.379-11.474-0.473c-1.911-0.05-3.831-0.049-5.74-0.055c-1.888,0.019-3.771,0.034-5.757,0.093
			c-3.804,0.096-7.645,0.229-11.449,0.499c-7.616,0.54-15.205,1.305-22.645,2.594c-3.717,0.65-7.407,1.354-11.018,2.235
			c-3.608,0.876-7.147,1.902-10.506,3.127c-3.314,1.227-6.569,2.646-9.023,4.317c-1.212,0.813-2.21,1.71-2.682,2.348
			c-0.274,0.32-0.302,0.529-0.362,0.576c0.06-0.116,0.093-0.248,0.096-0.384c0.001-0.067-0.006-0.136-0.02-0.203l-0.031,0.357
			l-0.061,0.732c-0.008,0.154,0.05-1.127,0.026-0.592l0.003-0.011l0.002-0.021v-0.041c-0.003-0.027-0.011-0.054-0.023-0.079
			l-4.928,7.579c-3.465,1.044-6.854,2.26-9.808,3.743c-1.49,0.727-2.822,1.551-3.907,2.369c-1.086,0.804-1.824,1.679-2.054,2.06
			c-0.052,0.055-0.02,0.073-0.047,0.105c-0.008,0.014-0.018,0.026-0.03,0.039l-0.021,0.018l0.034-0.082
			c0.043-0.118,0.058-0.25,0.041-0.38l-0.018-0.097c-0.007,0.026-0.012,0.112-0.018,0.165l-0.035,0.366
			c-0.037-0.048-0.018-0.142-0.035-0.053c0.037,0.181,0.542,1.018,1.513,1.846c0.954,0.844,2.24,1.708,3.646,2.503
			c1.447,0.773,2.973,1.543,4.6,2.22c3.237,1.377,6.743,2.503,10.311,3.487c3.579,0.967,7.236,1.831,10.943,2.549
			c7.419,1.421,14.996,2.439,22.625,3.093c1.905,0.172,3.821,0.293,5.729,0.44c1.888,0.119,3.781,0.239,5.763,0.317
			c3.818,0.163,7.679,0.26,11.521,0.275c3.848,0.02,7.695-0.076,11.543-0.221c3.849-0.147,7.688-0.424,11.521-0.784
			c7.661-0.724,15.296-1.876,22.708-3.846c3.678-1.031,7.332-2.262,10.642-4.104c1.653-0.911,3.235-1.977,4.514-3.352
			c0.658-0.677,1.159-1.469,1.589-2.314C637.957,245.298,638.251,244.288,638.223,243.324z"/>
	</g>
	<g id="darkGreenTree2">
		<ellipse id="oval6" fill="#E0EBE8" cx="665.5" cy="264.255" rx="12" ry="4"/>
		<path id="bezier21" fill="#217D68" d="M648,253.766l16.38-62.021l19.12,62.021H648z"/>
		<rect id="rectangle6" x="664.5" y="231.255" fill="#AF946C" width="2" height="33"/>
		<path id="bezier22" fill="#AF946C" d="M665,238.005l5.729-5.76l1.271,1.278l-6.36,6.41l-0.43,0.211L665,238.005z"/>
		<path id="bezier23" fill="#AF946C" d="M665,245.904l5.729-5.76l1.271,1.277l-6.36,6.41l-0.43,0.21L665,245.904z"/>
		<path id="bezier24" fill="#AF946C" d="M666,241.955l-5.729-5.762L659,237.477l6.36,6.408l0.43,0.211L666,241.955z"/>
	</g>
</g>
</svg>
