<?xml version="1.0" encoding="utf-8"?>
<!-- Generator: Adobe Illustrator 16.0.0, SVG Export Plug-In . SVG Version: 6.00 Build 0)  -->
<!DOCTYPE svg PUBLIC "-//W3C//DTD SVG 1.1//EN" "http://www.w3.org/Graphics/SVG/1.1/DTD/svg11.dtd">
<svg version="1.1" id="Layer_1" xmlns="http://www.w3.org/2000/svg" xmlns:xlink="http://www.w3.org/1999/xlink" x="0px" y="0px"
	 width="800px" height="300px" viewBox="0 0 800 300" enable-background="new 0 0 800 300" xml:space="preserve">
<g>
	<g>
		<rect x="425.477" y="35.611" fill="#F4A0A0" width="17.226" height="6.684"/>
		<rect x="425.477" y="42.295" fill="#FFFFFF" width="17.226" height="6.684"/>
	</g>
	<g id="flagRight">
		<rect id="flagPoleLeft2" x="441.389" y="34.927" fill="#FFFFFF" width="1.498" height="53.912"/>
	</g>
</g>
<g>
	<g>
		<path fill="#F1D59D" d="M213.593,164.501h-3.435v6.349c0,0.948,0.769,1.719,1.718,1.719s1.718-0.771,1.718-1.719
			c0,0.948,0.769,1.719,1.717,1.719c0.95,0,1.719-0.771,1.719-1.719v-6.349H213.593z"/>
		<path fill="#F1D59D" d="M225.372,164.501h-3.435v6.349c0,0.948,0.769,1.719,1.718,1.719c0.949,0,1.717-0.771,1.717-1.719
			c0,0.948,0.77,1.719,1.719,1.719c0.948,0,1.717-0.771,1.717-1.719v-6.349H225.372z"/>
		<g>
			<path fill="#F1B986" d="M227.758,172.432c-0.205,0.088-0.431,0.137-0.668,0.137c-0.949,0-1.718-0.771-1.718-1.719v-6.348h1.337
				v6.348C226.709,171.561,227.142,172.171,227.758,172.432z"/>
			<path fill="#F1B986" d="M224.323,172.432c-0.206,0.088-0.432,0.137-0.668,0.137c-0.949,0-1.717-0.771-1.717-1.719v-6.348h1.336
				v6.348C223.275,171.561,223.708,172.171,224.323,172.432z"/>
			<path fill="#F1B986" d="M215.979,172.432c-0.206,0.088-0.431,0.137-0.668,0.137c-0.949,0-1.717-0.771-1.717-1.719v-6.348h1.337
				v6.348C214.931,171.561,215.363,172.171,215.979,172.432z"/>
			<path fill="#F1B986" d="M212.544,172.432c-0.205,0.088-0.431,0.137-0.668,0.137c-0.949,0-1.717-0.771-1.717-1.719v-6.348h1.337
				v6.348C211.496,171.561,211.927,172.171,212.544,172.432z"/>
		</g>
		<path fill="#F9F6F9" d="M237.161,154.82c0-1.969-1.596-3.564-3.565-3.564h-0.089c0.672-0.533,1.105-1.363,1.105-2.291
			c0-1.618-1.311-2.93-2.929-2.93h-24.398c-1.617,0-2.928,1.312-2.928,2.93c0,0.927,0.431,1.753,1.105,2.291h-0.089
			c-1.97,0-3.566,1.598-3.566,3.564c0,1.974,1.596,3.57,3.566,3.57h0.089c-0.673,0.53-1.105,1.359-1.105,2.285
			c0,1.619,1.311,2.93,2.928,2.93h0.553c-0.096,0.268-0.148,0.549-0.148,0.845c0,1.366,1.106,2.471,2.469,2.471h18.65
			c1.365,0,2.47-1.104,2.47-2.471c0-0.296-0.053-0.58-0.148-0.845h0.552c1.617,0,2.928-1.311,2.928-2.93
			c0-0.926-0.432-1.752-1.105-2.285h0.089C235.565,158.391,237.161,156.792,237.161,154.82L237.161,154.82z"/>
		<path fill="#DDDAEC" d="M218.425,166.921h-8.266c-0.682,0-1.3-0.276-1.747-0.723c-0.446-0.444-0.723-1.065-0.723-1.746
			c0-0.298,0.053-0.581,0.148-0.845h-0.552c-1.618,0-2.928-1.312-2.928-2.932c0-0.925,0.431-1.752,1.105-2.285h-0.09
			c-1.968,0-3.565-1.602-3.565-3.57c0-1.967,1.597-3.563,3.565-3.563h0.09c-0.673-0.536-1.105-1.364-1.105-2.292
			c0-1.618,1.311-2.93,2.928-2.93h8.266c-1.617,0-2.928,1.312-2.928,2.93c0,0.928,0.431,1.753,1.106,2.292h-0.091
			c-1.969,0-3.565,1.597-3.565,3.563c0,1.974,1.596,3.57,3.565,3.57h0.091c-0.674,0.53-1.106,1.36-1.106,2.285
			c0,1.62,1.311,2.932,2.928,2.932h0.553c-0.096,0.266-0.148,0.549-0.148,0.845c0,0.683,0.276,1.302,0.724,1.746
			C217.126,166.645,217.744,166.921,218.425,166.921L218.425,166.921z"/>
		<path fill="#F1D59D" d="M235.323,147.522c0,2.392-1.344,4.471-3.317,5.521v0.324c0,1.504-0.61,2.867-1.598,3.857
			c-0.862,0.855-2.01,1.436-3.291,1.564c-0.186,0.021-0.375,0.025-0.567,0.025c-0.193,0-0.383-0.01-0.569-0.025
			c-2.746-0.283-4.887-2.604-4.887-5.425v-0.324c-0.987-0.524-1.816-1.308-2.4-2.257c-0.583-0.951-0.918-2.067-0.918-3.264
			c0-3.452,2.797-6.25,6.249-6.25h5.048c1.726,0,3.288,0.7,4.419,1.831C234.623,144.235,235.323,145.795,235.323,147.522
			L235.323,147.522z"/>
		<path fill="#F1B986" d="M228.522,158.454c-0.611,0.237-1.276,0.368-1.972,0.368c-3.014,0-5.456-2.442-5.456-5.455v-0.324
			c-0.987-0.525-1.816-1.309-2.4-2.257c-0.583-0.949-0.918-2.067-0.918-3.264c0-3.452,2.798-6.25,6.249-6.25h3.946
			c-3.452,0-6.251,2.798-6.251,6.25c0,1.196,0.336,2.313,0.92,3.264c0.582,0.948,1.412,1.731,2.398,2.257v0.324
			C225.039,155.682,226.484,157.664,228.522,158.454L228.522,158.454z"/>
		<g>
			<path fill="#2B4D66" d="M224.767,149.812c-0.314,0-0.569-0.256-0.569-0.57v-0.952c0-0.313,0.255-0.568,0.569-0.568
				s0.568,0.255,0.568,0.568v0.952C225.334,149.556,225.081,149.812,224.767,149.812z"/>
			<path fill="#2B4D66" d="M228.333,149.812c-0.314,0-0.569-0.256-0.569-0.57v-0.952c0-0.313,0.254-0.568,0.569-0.568
				c0.314,0,0.569,0.255,0.569,0.568v0.952C228.902,149.556,228.647,149.809,228.333,149.812z"/>
		</g>
		<path fill="#E2A770" d="M228.895,154.318c0,1.097-0.757,2.021-1.777,2.273v2.198c-0.186,0.021-0.376,0.028-0.568,0.028
			c-0.192,0-0.382-0.01-0.568-0.028v-2.198c-1.019-0.255-1.775-1.178-1.775-2.273c0-0.313,0.254-0.567,0.568-0.567
			s0.568,0.254,0.568,0.567c0,0.666,0.542,1.207,1.207,1.207c0.666,0,1.208-0.541,1.208-1.207c0-0.313,0.255-0.567,0.569-0.567
			C228.64,153.751,228.895,154.005,228.895,154.318L228.895,154.318z"/>
		<g>
			<path fill="#F1B986" d="M213.627,148.384c1.373,1.375,3.6,1.375,4.974,0c1.374-1.373,1.374-3.6,0-4.975L213.627,148.384z"/>
			<path fill="#F1B986" d="M239.472,148.384c-1.373,1.375-3.6,1.375-4.974,0c-1.374-1.373-1.374-3.6,0-4.975L239.472,148.384z"/>
		</g>
		<path fill="#F9F6F9" d="M235.457,140.7h-0.43c0-1.171-0.948-2.119-2.119-2.119c-1.171,0-2.12,0.948-2.12,2.119v-0.957
			c0-1.17-0.949-2.119-2.119-2.119s-2.119,0.949-2.119,2.119c0-1.17-0.949-2.119-2.12-2.119c-1.169,0-2.119,0.949-2.119,2.119v0.957
			c0-1.171-0.949-2.119-2.119-2.119s-2.119,0.948-2.119,2.119h-0.43c-0.859,0-1.556,0.696-1.556,1.556
			c0,0.86,0.697,1.557,1.556,1.557h0.43c0,1.17,0.948,2.119,2.119,2.119c1.17,0,2.119-0.949,2.119-2.119v0.956
			c0,1.17,0.949,2.12,2.119,2.12c1.171,0,2.12-0.95,2.12-2.12c0,1.17,0.948,2.12,2.119,2.12s2.119-0.95,2.119-2.12v-0.956
			c0,1.17,0.949,2.119,2.12,2.119c1.171,0,2.119-0.949,2.119-2.119h0.43c0.859,0,1.556-0.697,1.556-1.557
			C237.013,141.396,236.316,140.699,235.457,140.7z"/>
		<path fill="#DDDAEC" d="M237.013,142.256c0,0.86-0.697,1.557-1.556,1.557h-0.43c0,0.585-0.236,1.116-0.621,1.499
			c-0.383,0.383-0.913,0.62-1.498,0.62c-1.17,0-2.119-0.949-2.119-2.119v0.956c0,1.17-0.95,2.12-2.12,2.12
			c-1.169,0-2.119-0.95-2.119-2.12c0,1.17-0.95,2.12-2.12,2.12c-1.17,0-2.119-0.95-2.119-2.12v-0.956
			c0,0.585-0.237,1.116-0.62,1.499c-0.384,0.383-0.914,0.62-1.499,0.62c-1.17,0-2.119-0.949-2.119-2.119h-0.43
			c-0.429,0-0.819-0.174-1.1-0.455c-0.282-0.282-0.456-0.672-0.456-1.102c0-0.505,0.242-0.955,0.615-1.238
			c0.261,0.198,0.588,0.315,0.941,0.315h0.43c0,1.17,0.948,2.12,2.119,2.12c0.585,0,1.115-0.236,1.499-0.621
			c0.383-0.383,0.62-0.913,0.62-1.499v0.958c0,1.17,0.949,2.118,2.119,2.118c1.17,0,2.12-0.947,2.12-2.118
			c0,1.17,0.949,2.118,2.119,2.118s2.12-0.947,2.12-2.118v-0.958c0,1.17,0.948,2.12,2.119,2.12c0.585,0,1.115-0.236,1.498-0.621
			c0.384-0.383,0.621-0.913,0.621-1.499h0.43c0.354,0,0.68-0.117,0.941-0.315c0.055,0.042,0.109,0.088,0.159,0.139
			C236.839,141.437,237.013,141.826,237.013,142.256L237.013,142.256z"/>
	</g>
</g>
<g>
	<path fill="#DDDAEC" d="M425.306,89.156h-13.952V69.494h13.952V89.156z"/>
	<path fill="#F9F6F9" d="M424.037,61.249v27.907h16.49V75.202l-7.61-5.708v-8.246L424.037,61.249L424.037,61.249z"/>
	<path fill="#EF8031" d="M420.232,59.98h13.946l-11.416,11.416h-13.948L420.232,59.98z"/>
	<path opacity="0.5" fill="#EF8031" d="M427.938,64.958l-6.438,6.438h1.269l11.416-11.416h-13.947l-1.271,1.268h7.439
		C428.338,61.249,429.308,63.589,427.938,64.958z"/>
	<path fill="#351C0A" d="M434.819,89.156h-3.812v-7.611h3.812V89.156z"/>
	<path fill="#F7941E" d="M432.917,67.591l10.898,7.992l-1.603,2.156l-9.302-6.977L432.917,67.591L432.917,67.591z"/>
	<path fill="#351C0A" d="M415.158,77.739v3.805h5.074v-3.858L415.158,77.739z"/>
	<path fill="#E0C999" d="M414.523,76.471h6.343v3.171l-2.537-0.634l-3.806,0.634V76.471z"/>
	<path fill="#C6AD81" d="M414.523,78.268v1.375l3.806-0.634l2.537,0.634v-3.171h-0.634v1.902l-2.539-0.634L414.523,78.268z"/>
	<path fill="#A08F6D" d="M418.182,79.642c-0.27,0-0.481-0.218-0.481-0.486v-2.685h1.269v2.685c0,0.268-0.217,0.486-0.48,0.486
		H418.182L418.182,79.642z"/>
</g>
<path id="backHill" fill="#16A085" d="M212,262c0-98.859,84.62-179,189-179s189,80.141,189,179H401H212z"/>
<path id="whiteHill" fill="#FFFFFF" d="M333,414c0-123.71,104.09-224,232.5-224S798,290.29,798,414H565.5H333z"/>
<path id="leftHill" fill="#1ABC9C" d="M3,399c0-129.79,113.94-235,254.5-235C398.06,164,512,269.21,512,399H257.5H3z"/>
<g>
	<ellipse id="oval" fill="#439F8A" cx="104" cy="246.5" rx="12" ry="5.5"/>
	<path id="bezier" fill="#217D68" d="M89.5,232.5l13.38-56l15.62,56H89.5z"/>
	<rect id="rectangle" x="103" y="209" fill="#AF946C" width="2" height="37"/>
	<path id="bezier2" fill="#AF946C" d="M103.5,218.34l5.73-5.84l1.27,1.3l-6.36,6.479l-0.43,0.221L103.5,218.34z"/>
	<path id="bezier3" fill="#AF946C" d="M103.5,226.34l5.73-5.84l1.27,1.3l-6.36,6.479l-0.43,0.221L103.5,226.34z"/>
	<path id="bezier4" fill="#AF946C" d="M104.5,222.34l-5.73-5.84l-1.27,1.3l6.36,6.479l0.43,0.221L104.5,222.34z"/>
</g>
<g>
	<ellipse id="oval7" fill="#378C79" cx="349" cy="121.5" rx="12" ry="5.5"/>
	<path id="bezier25" fill="#8FD182" d="M333.5,107.5l14.77-69l17.23,69H333.5z"/>
</g>
<rect id="rectangle7" x="348" y="84" fill="#AF946C" width="2" height="37"/>
<path id="bezier26" fill="#AF946C" d="M348.5,93.34l5.73-5.84l1.27,1.3l-6.36,6.48l-0.43,0.22L348.5,93.34z"/>
<path id="bezier27" fill="#AF946C" d="M348.5,101.34l5.73-5.84l1.27,1.3l-6.36,6.48l-0.43,0.22L348.5,101.34z"/>
<path id="bezier28" fill="#AF946C" d="M349.5,97.34l-5.73-5.84l-1.27,1.3l6.36,6.48l0.43,0.22L349.5,97.34z"/>
<g>
	<ellipse id="oval7_1_" fill="#378C79" cx="474.228" cy="152.147" rx="9.018" ry="4.133"/>
	<g>
		<g>
			<path fill="#F1D59D" d="M475.913,148.383v2.962c0,0.442,0.36,0.801,0.801,0.801c0.441,0,0.8-0.358,0.8-0.801
				c0,0.442,0.36,0.801,0.802,0.801s0.801-0.358,0.801-0.801v-2.962h-1.605H475.913z"/>
			<path fill="#F1D59D" d="M470.414,148.383v2.962c0,0.442,0.36,0.801,0.801,0.801c0.441,0,0.802-0.358,0.802-0.801
				c0,0.442,0.359,0.801,0.799,0.801c0.445,0,0.803-0.358,0.803-0.801v-2.962h-1.604H470.414z"/>
			<g>
				<path fill="#F1B986" d="M471.395,151.346v-2.962h0.624v2.962c0,0.442-0.36,0.801-0.801,0.801c-0.109,0-0.216-0.021-0.313-0.062
					C471.193,151.963,471.395,151.678,471.395,151.346z"/>
				<path fill="#F1B986" d="M472.998,151.346v-2.962h0.624v2.962c0,0.442-0.359,0.801-0.801,0.801c-0.109,0-0.215-0.021-0.311-0.062
					C472.796,151.963,472.998,151.678,472.998,151.346z"/>
				<path fill="#F1B986" d="M476.894,151.346v-2.962h0.623v2.962c0,0.442-0.36,0.801-0.801,0.801c-0.111,0-0.215-0.021-0.312-0.062
					C476.69,151.963,476.893,151.678,476.894,151.346z"/>
				<path fill="#F1B986" d="M478.496,151.346v-2.962h0.622v2.962c0,0.442-0.36,0.801-0.8,0.801c-0.11,0-0.216-0.021-0.312-0.062
					C478.294,151.963,478.495,151.678,478.496,151.346z"/>
			</g>
			<path fill="#F9F6F9" d="M483.017,143.865c0-0.918-0.744-1.664-1.664-1.664h-0.044c0.313-0.25,0.518-0.636,0.518-1.069
				c0-0.755-0.612-1.367-1.368-1.367h-11.385c-0.755,0-1.365,0.611-1.365,1.367c0,0.433,0.201,0.819,0.517,1.069h-0.043
				c-0.919,0-1.664,0.745-1.664,1.664s0.745,1.664,1.664,1.664h0.043c-0.315,0.251-0.517,0.636-0.517,1.069
				c0,0.754,0.61,1.367,1.365,1.367h0.259c-0.047,0.123-0.071,0.257-0.071,0.395c0,0.636,0.516,1.152,1.153,1.152h8.703
				c0.636,0,1.152-0.516,1.152-1.152c0-0.138-0.024-0.271-0.068-0.395h0.257c0.755,0,1.367-0.611,1.367-1.367
				c0-0.433-0.204-0.819-0.517-1.069h0.043C482.271,145.529,483.017,144.785,483.017,143.865L483.017,143.865z"/>
			<path fill="#DDDAEC" d="M474.272,149.512h-3.859c-0.318,0-0.606-0.129-0.815-0.338c-0.205-0.208-0.337-0.497-0.337-0.814
				c0-0.139,0.024-0.272,0.071-0.395h-0.258c-0.756,0-1.367-0.611-1.367-1.367c0-0.432,0.201-0.818,0.517-1.069h-0.042
				c-0.919,0-1.665-0.744-1.665-1.664c0-0.918,0.746-1.664,1.665-1.664h0.042c-0.315-0.25-0.517-0.635-0.517-1.069
				c0-0.754,0.61-1.366,1.367-1.366h3.859c-0.757,0-1.368,0.611-1.368,1.366c0,0.434,0.202,0.819,0.518,1.069h-0.044
				c-0.919,0-1.664,0.745-1.664,1.664c0,0.919,0.745,1.664,1.664,1.664h0.044c-0.315,0.251-0.518,0.637-0.518,1.069
				c0,0.755,0.611,1.367,1.368,1.367h0.257c-0.047,0.123-0.07,0.255-0.07,0.395c0,0.317,0.13,0.606,0.337,0.814
				C473.666,149.384,473.953,149.512,474.272,149.512L474.272,149.512z"/>
			<path fill="#F1D59D" d="M467.375,140.459c0-0.805,0.327-1.534,0.854-2.062c0.528-0.528,1.258-0.854,2.063-0.854h2.356
				c1.61,0,2.915,1.306,2.915,2.916c0,0.559-0.156,1.08-0.428,1.523c-0.27,0.443-0.659,0.809-1.118,1.054v0.151
				c0,1.316-0.998,2.4-2.279,2.533c-0.087,0.01-0.176,0.013-0.267,0.013c-0.089,0-0.177-0.003-0.266-0.013
				c-0.598-0.062-1.133-0.33-1.536-0.731c-0.46-0.461-0.745-1.098-0.745-1.801v-0.151
				C468.002,142.547,467.375,141.576,467.375,140.459L467.375,140.459z"/>
			<path fill="#F1B986" d="M470.55,145.561c0.951-0.369,1.625-1.293,1.626-2.375v-0.15c0.459-0.246,0.848-0.611,1.118-1.054
				c0.271-0.442,0.427-0.964,0.427-1.522c0-1.611-1.304-2.916-2.916-2.916h1.84c1.611,0,2.917,1.306,2.917,2.916
				c0,0.559-0.155,1.08-0.428,1.522c-0.27,0.443-0.659,0.809-1.119,1.054v0.15c0,1.406-1.141,2.546-2.547,2.546
				C471.145,145.732,470.834,145.671,470.55,145.561L470.55,145.561z"/>
			<g>
				<path fill="#2B4D66" d="M472.037,141.262v-0.444c0-0.147,0.117-0.266,0.265-0.266c0.146,0,0.266,0.119,0.266,0.266v0.444
					c0,0.146-0.117,0.265-0.266,0.265C472.154,141.527,472.037,141.408,472.037,141.262z"/>
				<path fill="#2B4D66" d="M470.372,141.262v-0.444c0-0.147,0.119-0.266,0.267-0.266c0.144,0,0.265,0.119,0.265,0.266v0.444
					c0,0.146-0.117,0.265-0.265,0.265S470.372,141.408,470.372,141.262z"/>
			</g>
			<path fill="#E2A770" d="M470.376,143.631c0-0.147,0.119-0.265,0.266-0.265s0.265,0.118,0.265,0.265
				c0,0.31,0.253,0.563,0.564,0.563c0.31,0,0.563-0.253,0.563-0.563c0-0.147,0.12-0.265,0.267-0.265
				c0.144,0,0.265,0.118,0.265,0.265c0,0.512-0.353,0.942-0.829,1.061v1.026c-0.087,0.01-0.175,0.014-0.267,0.014
				c-0.091,0-0.177-0.004-0.266-0.014v-1.026C470.729,144.574,470.376,144.143,470.376,143.631L470.376,143.631z"/>
			<g>
				<path fill="#F1B986" d="M475.18,138.54c-0.643,0.641-0.643,1.681,0,2.322c0.642,0.641,1.679,0.641,2.321,0L475.18,138.54z"/>
				<path fill="#F1B986" d="M467.76,138.54c0.642,0.641,0.642,1.681,0,2.322s-1.681,0.641-2.321,0L467.76,138.54z"/>
			</g>
			<path fill="#F9F6F9" d="M466.586,138.001c0,0.401,0.327,0.726,0.729,0.726h0.2c0,0.546,0.443,0.989,0.989,0.989
				c0.547,0,0.988-0.443,0.988-0.989v0.446c0,0.547,0.442,0.989,0.988,0.989c0.548,0,0.987-0.442,0.987-0.989
				c0,0.547,0.443,0.989,0.989,0.989c0.545,0,0.987-0.442,0.987-0.989v-0.446c0,0.546,0.444,0.989,0.988,0.989
				c0.545,0,0.989-0.443,0.989-0.989h0.2c0.401,0,0.727-0.325,0.727-0.726c0-0.4-0.325-0.726-0.727-0.726h-0.2
				c0-0.547-0.443-0.989-0.989-0.989c-0.548,0-0.988,0.443-0.988,0.989v-0.447c0-0.546-0.443-0.989-0.987-0.989
				c-0.548,0-0.989,0.442-0.989,0.989c0-0.546-0.442-0.989-0.987-0.989c-0.547,0-0.988,0.442-0.988,0.989v0.447
				c0-0.547-0.443-0.989-0.988-0.989c-0.548,0-0.989,0.443-0.989,0.989h-0.2C466.911,137.274,466.586,137.601,466.586,138.001z"/>
			<path fill="#DDDAEC" d="M466.586,138.002c0-0.201,0.081-0.382,0.212-0.514c0.023-0.023,0.05-0.046,0.076-0.064
				c0.122,0.092,0.274,0.147,0.44,0.147h0.2c0,0.273,0.111,0.521,0.29,0.7c0.18,0.18,0.426,0.291,0.701,0.291
				c0.547,0,0.987-0.443,0.987-0.989v0.446c0,0.547,0.443,0.989,0.989,0.989c0.547,0,0.987-0.442,0.987-0.989
				c0,0.547,0.444,0.989,0.988,0.989c0.545,0,0.988-0.442,0.988-0.989v-0.446c0,0.273,0.11,0.521,0.29,0.7
				c0.18,0.18,0.426,0.29,0.7,0.29c0.548,0,0.989-0.443,0.989-0.989h0.201c0.164,0,0.316-0.055,0.438-0.147
				c0.176,0.132,0.289,0.342,0.289,0.579c0,0.201-0.08,0.382-0.213,0.513c-0.132,0.131-0.313,0.212-0.514,0.212h-0.201
				c0,0.546-0.443,0.989-0.989,0.989c-0.272,0-0.519-0.111-0.698-0.29c-0.18-0.18-0.291-0.426-0.291-0.7v0.446
				c0,0.546-0.444,0.988-0.988,0.988c-0.547,0-0.989-0.442-0.989-0.988c0,0.546-0.443,0.988-0.987,0.988
				c-0.547,0-0.988-0.442-0.988-0.988v-0.446c0,0.546-0.443,0.989-0.987,0.989c-0.272,0-0.52-0.111-0.701-0.291
				c-0.178-0.179-0.291-0.426-0.291-0.7h-0.2C466.911,138.728,466.586,138.402,466.586,138.002L466.586,138.002z"/>
		</g>
	</g>
</g>
<g id="darkGreenTree2">
	<ellipse id="oval6" fill="#E0EBE8" cx="665.5" cy="264.255" rx="12" ry="4"/>
	<path id="bezier21" fill="#217D68" d="M648,253.766l16.38-62.021l19.12,62.021H648z"/>
	<rect id="rectangle6" x="664.5" y="231.255" fill="#AF946C" width="2" height="33"/>
	<path id="bezier22" fill="#AF946C" d="M665,238.005l5.729-5.76l1.271,1.278l-6.36,6.41l-0.43,0.211L665,238.005z"/>
	<path id="bezier23" fill="#AF946C" d="M665,245.904l5.729-5.76L672,241.42l-6.36,6.41l-0.43,0.21L665,245.904z"/>
	<path id="bezier24" fill="#AF946C" d="M666,241.955l-5.729-5.762L659,237.477l6.36,6.408l0.43,0.211L666,241.955z"/>
</g>
</svg>
