<?xml version="1.0" encoding="utf-8"?>
<!-- Generator: Adobe Illustrator 16.0.0, SVG Export Plug-In . SVG Version: 6.00 Build 0)  -->
<!DOCTYPE svg PUBLIC "-//W3C//DTD SVG 1.1//EN" "http://www.w3.org/Graphics/SVG/1.1/DTD/svg11.dtd">
<svg version="1.1" id="Layer_1" xmlns="http://www.w3.org/2000/svg" xmlns:xlink="http://www.w3.org/1999/xlink" x="0px" y="0px"
	 width="640px" height="640px" viewBox="0 0 640 640" enable-background="new 0 0 640 640" xml:space="preserve">
<path fill-rule="evenodd" clip-rule="evenodd" fill="#FFFFFF" d="M306.342,323.239c1.055,0,2.009,0.057,2.955-0.01
	c2.963-0.209,5.606-1.278,7.909-3.144c2.89-2.343,4.63-5.375,5.239-9.042c0.113-0.682,0.164-1.382,0.165-2.075
	c0.012-7.538,0.016-15.075,0.002-22.612c-0.004-2.225,0.694-4.164,2.183-5.819c3.757-4.178,10.724-3.252,13.299,1.762
	c0.637,1.239,0.938,2.549,0.938,3.938c-0.004,7.499,0.013,14.998-0.005,22.497c-0.021,8.511-5.269,15.926-13.375,18.586
	c-6.749,2.214-12.975,0.963-18.56-3.435C306.854,323.697,306.632,323.489,306.342,323.239z"/>
<path fill-rule="evenodd" clip-rule="evenodd" fill="#FFFFFF" d="M316.308,289.455c0,0.233,0,0.371,0,0.509
	c0,6.261,0.003,12.521,0,18.782c-0.002,4.221-3.088,7.728-7.273,8.195c-4.37,0.489-8.254-2.524-8.979-6.711
	c-0.328-1.897-0.121-3.788,0.336-5.625c1.797-7.224,6.257-12.042,13.291-14.463C314.514,289.855,315.387,289.692,316.308,289.455z"
	/>
<g>
	<path fill="#FFFFFF" d="M284.836,344.246c0.557-1.041,1.324-1.849,2.299-2.423c0.976-0.573,2.07-0.86,3.284-0.86
		c1.049,0,2.025,0.242,2.926,0.726c0.902,0.483,1.591,1.119,2.066,1.906v-7.132h2.262v18.199h-2.262v-2.533
		c-0.443,0.804-1.099,1.463-1.968,1.979s-1.886,0.775-3.05,0.775c-1.197,0-2.283-0.296-3.259-0.886
		c-0.976-0.591-1.742-1.418-2.299-2.484c-0.558-1.065-0.836-2.278-0.836-3.64C284,346.496,284.279,345.287,284.836,344.246z
		 M294.797,345.242c-0.411-0.754-0.964-1.332-1.661-1.733c-0.697-0.402-1.463-0.604-2.299-0.604c-0.836,0-1.599,0.197-2.288,0.591
		c-0.688,0.394-1.237,0.968-1.647,1.722c-0.41,0.755-0.615,1.64-0.615,2.656c0,1.032,0.205,1.93,0.615,2.692
		s0.959,1.345,1.647,1.746c0.689,0.402,1.452,0.604,2.288,0.604c0.836,0,1.603-0.201,2.299-0.604
		c0.697-0.401,1.25-0.983,1.661-1.746c0.409-0.763,0.615-1.651,0.615-2.668S295.207,345.996,294.797,345.242z"/>
	<path fill="#FFFFFF" d="M300.921,338.553c-0.295-0.295-0.443-0.656-0.443-1.082c0-0.427,0.147-0.787,0.443-1.082
		c0.295-0.296,0.656-0.443,1.082-0.443c0.41,0,0.758,0.147,1.045,0.443c0.287,0.295,0.43,0.655,0.43,1.082
		c0,0.426-0.144,0.787-0.43,1.082c-0.287,0.295-0.636,0.442-1.045,0.442C301.577,338.995,301.216,338.848,300.921,338.553z
		 M303.085,341.185v13.478h-2.238v-13.478H303.085z"/>
	<path fill="#FFFFFF" d="M316.833,342.426c1.017,0.992,1.525,2.423,1.525,4.292v7.944h-2.214v-7.625
		c0-1.344-0.336-2.373-1.009-3.086c-0.672-0.714-1.59-1.07-2.754-1.07c-1.18,0-2.119,0.369-2.816,1.107
		c-0.697,0.737-1.045,1.813-1.045,3.222v7.452h-2.238v-13.478h2.238v1.918c0.442-0.688,1.045-1.221,1.807-1.599
		c0.763-0.377,1.603-0.565,2.521-0.565C314.488,340.938,315.816,341.435,316.833,342.426z"/>
	<path fill="#FFFFFF" d="M321.408,344.246c0.557-1.041,1.323-1.849,2.299-2.423c0.976-0.573,2.07-0.86,3.284-0.86
		c1.049,0,2.024,0.242,2.926,0.726c0.902,0.483,1.591,1.119,2.067,1.906v-7.132h2.262v18.199h-2.262v-2.533
		c-0.443,0.804-1.1,1.463-1.969,1.979s-1.886,0.775-3.05,0.775c-1.196,0-2.283-0.296-3.259-0.886
		c-0.976-0.591-1.742-1.418-2.299-2.484c-0.558-1.065-0.837-2.278-0.837-3.64C320.571,346.496,320.851,345.287,321.408,344.246z
		 M331.368,345.242c-0.409-0.754-0.963-1.332-1.66-1.733c-0.696-0.402-1.463-0.604-2.299-0.604s-1.599,0.197-2.288,0.591
		c-0.688,0.394-1.237,0.968-1.647,1.722c-0.41,0.755-0.615,1.64-0.615,2.656c0,1.032,0.205,1.93,0.615,2.692
		s0.959,1.345,1.647,1.746c0.689,0.402,1.452,0.604,2.288,0.604s1.603-0.201,2.299-0.604c0.697-0.401,1.251-0.983,1.66-1.746
		c0.41-0.763,0.616-1.651,0.616-2.668S331.778,345.996,331.368,345.242z"/>
	<path fill="#FFFFFF" d="M337.492,338.553c-0.295-0.295-0.442-0.656-0.442-1.082c0-0.427,0.147-0.787,0.442-1.082
		c0.295-0.296,0.656-0.443,1.082-0.443c0.41,0,0.759,0.147,1.046,0.443c0.286,0.295,0.43,0.655,0.43,1.082
		c0,0.426-0.144,0.787-0.43,1.082c-0.287,0.295-0.636,0.442-1.046,0.442C338.148,338.995,337.787,338.848,337.492,338.553z
		 M339.656,341.185v13.478h-2.237v-13.478H339.656z"/>
	<path fill="#FFFFFF" d="M353.405,342.426c1.016,0.992,1.524,2.423,1.524,4.292v7.944h-2.214v-7.625
		c0-1.344-0.337-2.373-1.008-3.086c-0.673-0.714-1.59-1.07-2.755-1.07c-1.181,0-2.12,0.369-2.816,1.107
		c-0.697,0.737-1.045,1.813-1.045,3.222v7.452h-2.238v-13.478h2.238v1.918c0.442-0.688,1.045-1.221,1.808-1.599
		c0.763-0.377,1.603-0.565,2.521-0.565C351.06,340.938,352.388,341.435,353.405,342.426z"/>
</g>
<g>
	<path fill="#FFFFFF" d="M303.153,357.983c0.344,0.174,0.606,0.425,0.788,0.751c0.182,0.327,0.273,0.716,0.273,1.167
		c0,0.445-0.091,0.831-0.273,1.155c-0.182,0.325-0.444,0.574-0.788,0.745c-0.343,0.172-0.754,0.258-1.234,0.258h-1.284v-4.337h1.284
		C302.398,357.723,302.81,357.811,303.153,357.983z M303.299,361.226c0.316-0.317,0.474-0.759,0.474-1.324
		c0-0.571-0.158-1.017-0.474-1.338c-0.316-0.32-0.777-0.48-1.38-0.48h-0.85v3.616h0.85
		C302.522,361.699,302.983,361.542,303.299,361.226z"/>
	<path fill="#FFFFFF" d="M309.171,358.077v1.618h1.644v0.36h-1.644v1.644H311v0.36h-2.264v-4.343H311v0.36H309.171z"/>
	<path fill="#FFFFFF" d="M316.14,361.953c-0.217-0.099-0.388-0.237-0.512-0.415c-0.125-0.178-0.191-0.376-0.199-0.595h0.46
		c0.021,0.211,0.113,0.396,0.279,0.555s0.407,0.238,0.725,0.238c0.294,0,0.527-0.074,0.698-0.226
		c0.172-0.151,0.258-0.343,0.258-0.574c0-0.187-0.048-0.335-0.143-0.45c-0.095-0.112-0.213-0.197-0.354-0.254
		c-0.141-0.056-0.335-0.116-0.583-0.184c-0.29-0.078-0.52-0.154-0.689-0.229c-0.17-0.074-0.315-0.19-0.434-0.348
		c-0.12-0.157-0.18-0.369-0.18-0.639c0-0.224,0.058-0.423,0.174-0.599c0.115-0.176,0.279-0.313,0.49-0.413
		c0.21-0.1,0.453-0.148,0.725-0.148c0.402,0,0.726,0.098,0.972,0.295c0.245,0.196,0.387,0.449,0.425,0.76h-0.471
		c-0.03-0.178-0.127-0.336-0.292-0.475c-0.165-0.139-0.389-0.208-0.67-0.208c-0.26,0-0.478,0.069-0.651,0.208
		s-0.261,0.327-0.261,0.567c0,0.183,0.047,0.329,0.143,0.44c0.095,0.111,0.213,0.196,0.356,0.254c0.143,0.059,0.336,0.12,0.58,0.187
		c0.281,0.078,0.508,0.156,0.683,0.232c0.173,0.077,0.32,0.193,0.44,0.351c0.12,0.157,0.18,0.368,0.18,0.633
		c0,0.203-0.054,0.395-0.161,0.577c-0.107,0.182-0.267,0.328-0.478,0.44c-0.211,0.111-0.463,0.167-0.757,0.167
		C316.608,362.103,316.357,362.053,316.14,361.953z"/>
	<path fill="#FFFFFF" d="M323.282,357.723v4.337h-0.435v-4.337H323.282z"/>
	<path fill="#FFFFFF" d="M331.402,358.988c-0.124-0.285-0.313-0.509-0.567-0.672c-0.254-0.164-0.553-0.246-0.896-0.246
		c-0.323,0-0.612,0.074-0.869,0.224c-0.256,0.148-0.458,0.36-0.607,0.636c-0.148,0.275-0.224,0.595-0.224,0.958
		c0,0.364,0.075,0.685,0.224,0.962c0.149,0.277,0.352,0.49,0.607,0.639c0.257,0.149,0.546,0.224,0.869,0.224
		c0.302,0,0.573-0.065,0.815-0.194c0.242-0.131,0.437-0.317,0.583-0.559c0.146-0.242,0.23-0.525,0.251-0.848h-1.823v-0.354h2.282
		v0.316c-0.021,0.381-0.124,0.725-0.31,1.033c-0.187,0.308-0.436,0.551-0.747,0.729c-0.313,0.179-0.663,0.267-1.052,0.267
		c-0.401,0-0.766-0.093-1.093-0.282c-0.326-0.188-0.583-0.45-0.771-0.787c-0.188-0.338-0.282-0.719-0.282-1.146
		c0-0.425,0.094-0.807,0.282-1.144s0.445-0.6,0.771-0.789c0.327-0.188,0.691-0.281,1.093-0.281c0.463,0,0.868,0.115,1.216,0.348
		c0.347,0.231,0.6,0.554,0.756,0.967H331.402z"/>
	<path fill="#FFFFFF" d="M339.832,362.06h-0.434l-2.4-3.647v3.647h-0.435v-4.337h0.435l2.4,3.642v-3.642h0.434V362.06z"/>
</g>
<g>
	<path fill="#FFFFFF" d="M354.931,339.867c0.18,0,0.355,0.047,0.526,0.139c0.171,0.093,0.304,0.225,0.4,0.396
		c0.096,0.171,0.143,0.351,0.143,0.537c0,0.184-0.047,0.361-0.142,0.531c-0.094,0.171-0.226,0.303-0.395,0.396
		c-0.171,0.095-0.348,0.142-0.533,0.142s-0.363-0.047-0.533-0.142c-0.17-0.094-0.302-0.226-0.396-0.396
		c-0.095-0.17-0.143-0.348-0.143-0.531c0-0.187,0.049-0.366,0.145-0.537c0.097-0.172,0.23-0.304,0.401-0.396
		C354.575,339.914,354.751,339.867,354.931,339.867z M354.931,340.045c-0.151,0-0.298,0.039-0.439,0.116
		c-0.143,0.077-0.254,0.188-0.334,0.331c-0.08,0.143-0.121,0.292-0.121,0.447c0,0.154,0.039,0.302,0.118,0.443
		s0.19,0.251,0.332,0.33c0.143,0.079,0.29,0.119,0.444,0.119s0.302-0.04,0.443-0.119c0.143-0.079,0.252-0.188,0.331-0.33
		c0.078-0.142,0.118-0.289,0.118-0.443c0-0.155-0.04-0.305-0.121-0.447c-0.079-0.144-0.19-0.254-0.333-0.331
		C355.226,340.084,355.079,340.045,354.931,340.045z M354.461,341.531v-1.152h0.396c0.135,0,0.233,0.011,0.294,0.032
		c0.06,0.021,0.108,0.058,0.145,0.11c0.036,0.054,0.054,0.11,0.054,0.169c0,0.085-0.03,0.158-0.09,0.221
		c-0.06,0.062-0.14,0.098-0.239,0.104c0.041,0.018,0.073,0.037,0.099,0.061c0.046,0.046,0.103,0.122,0.17,0.229l0.141,0.226h-0.228
		l-0.102-0.183c-0.08-0.143-0.146-0.231-0.194-0.268c-0.035-0.026-0.084-0.039-0.149-0.039h-0.109v0.489H354.461z M354.646,340.883
		h0.226c0.108,0,0.182-0.017,0.221-0.049s0.06-0.074,0.06-0.127c0-0.035-0.01-0.065-0.029-0.092
		c-0.019-0.027-0.045-0.048-0.078-0.061c-0.034-0.014-0.096-0.021-0.188-0.021h-0.211V340.883z"/>
</g>
</svg>
