<?xml version="1.0" encoding="utf-8"?>
<!-- Generator: Adobe Illustrator 16.0.0, SVG Export Plug-In . SVG Version: 6.00 Build 0)  -->
<!DOCTYPE svg PUBLIC "-//W3C//DTD SVG 1.1//EN" "http://www.w3.org/Graphics/SVG/1.1/DTD/svg11.dtd">
<svg version="1.1" id="Layer_1" xmlns="http://www.w3.org/2000/svg" xmlns:xlink="http://www.w3.org/1999/xlink" x="0px" y="0px"
	 width="800px" height="300px" viewBox="0 0 800 300" enable-background="new 0 0 800 300" xml:space="preserve">
<g>
	<path fill="#D1B483" d="M425.306,58.156h-13.952V38.494h13.952V58.156z"/>
	<path fill="#E5CB95" d="M424.037,30.249v27.907h16.49V44.202l-7.61-5.708v-8.246L424.037,30.249L424.037,30.249z"/>
	<path fill="#603813" d="M420.232,28.98h13.95l-11.416,11.416h-13.952L420.232,28.98z"/>
	<path fill="#42210B" d="M427.938,33.958l-6.438,6.438h1.269l11.416-11.416h-13.951l-1.271,1.268h7.439
		C428.338,30.249,429.308,32.589,427.938,33.958z"/>
	<path fill="#351C0A" d="M434.819,58.156h-3.808v-7.611h3.808V58.156z"/>
	<path fill="#42210B" d="M432.917,36.591l10.898,7.992l-1.599,2.156l-9.302-6.977L432.917,36.591L432.917,36.591z"/>
	<path fill="#351C0A" d="M415.158,46.739v3.805h5.074v-3.858L415.158,46.739z"/>
	<path fill="#E0C999" d="M414.523,45.471h6.343v3.171l-2.537-0.634l-3.806,0.634V45.471z"/>
	<path fill="#C6AD81" d="M414.523,47.268v1.375l3.806-0.634l2.537,0.634v-3.171h-0.634v1.902l-2.539-0.634L414.523,47.268z"/>
	<path fill="#A08F6D" d="M418.182,48.642c-0.27,0-0.485-0.218-0.485-0.486v-2.685h1.269v2.685c0,0.268-0.217,0.486-0.484,0.486
		H418.182L418.182,48.642z"/>
	<path fill="#8F5521" d="M420.866,34.054h-3.807v-6.342h3.807V34.054z"/>
	<path fill="#603714" d="M418.329,34.054h-1.27v-6.342h1.27V34.054z"/>
	<path fill="#E0C999" d="M422.135,28.98h-6.343v-2.537h6.343V28.98z"/>
	<path fill="#A08F6D" d="M418.963,28.98h-3.171v-2.537h3.171V28.98z"/>
</g>
<g>
	<path fill="#F1D59D" d="M211.602,131.992h-2.736v5.055c0,0.756,0.612,1.368,1.368,1.368c0.755,0,1.368-0.612,1.368-1.368
		c0,0.756,0.613,1.368,1.368,1.368c0.756,0,1.369-0.612,1.369-1.368v-5.055H211.602z"/>
	<path fill="#F1D59D" d="M220.983,131.992h-2.736v5.055c0,0.756,0.612,1.368,1.368,1.368c0.755,0,1.368-0.612,1.368-1.368
		c0,0.756,0.612,1.368,1.368,1.368c0.755,0,1.368-0.612,1.368-1.368v-5.055H220.983z"/>
	<g>
		<path fill="#F1B986" d="M222.883,138.308c-0.164,0.069-0.343,0.107-0.532,0.107c-0.756,0-1.368-0.612-1.368-1.368v-5.055h1.064
			v5.055C222.047,137.614,222.392,138.101,222.883,138.308z"/>
		<path fill="#F1B986" d="M220.147,138.308c-0.164,0.069-0.344,0.107-0.532,0.107c-0.755,0-1.368-0.612-1.368-1.368v-5.055h1.064
			v5.055C219.311,137.614,219.656,138.101,220.147,138.308z"/>
		<path fill="#F1B986" d="M213.501,138.308c-0.164,0.069-0.343,0.107-0.532,0.107c-0.756,0-1.368-0.612-1.368-1.368v-5.055h1.064
			v5.055C212.666,137.614,213.01,138.101,213.501,138.308z"/>
		<path fill="#F1B986" d="M210.765,138.308c-0.164,0.069-0.343,0.107-0.532,0.107c-0.755,0-1.368-0.612-1.368-1.368v-5.055h1.064
			v5.055C209.93,137.614,210.274,138.101,210.765,138.308z"/>
	</g>
	<path fill="#F9F6F9" d="M230.372,124.282c0-1.568-1.271-2.84-2.84-2.84h-0.071c0.536-0.427,0.881-1.086,0.881-1.825
		c0-1.289-1.045-2.333-2.333-2.333h-19.432c-1.289,0-2.333,1.044-2.333,2.333c0,0.739,0.344,1.397,0.881,1.825h-0.071
		c-1.569,0-2.84,1.271-2.84,2.84c0,1.569,1.271,2.84,2.84,2.84h0.071c-0.537,0.428-0.881,1.085-0.881,1.825
		c0,1.288,1.044,2.333,2.333,2.333h0.439c-0.076,0.209-0.118,0.437-0.118,0.673c0,1.086,0.88,1.966,1.967,1.966h14.854
		c1.086,0,1.967-0.88,1.967-1.966c0-0.236-0.042-0.463-0.118-0.673h0.439c1.288,0,2.333-1.044,2.333-2.333
		c0-0.739-0.345-1.397-0.881-1.825h0.071C229.1,127.122,230.372,125.851,230.372,124.282L230.372,124.282z"/>
	<path fill="#DDDAEC" d="M215.449,133.918h-6.583c-0.543,0-1.035-0.22-1.391-0.576c-0.355-0.356-0.576-0.848-0.576-1.391
		c0-0.236,0.042-0.463,0.118-0.672h-0.439c-1.289,0-2.333-1.044-2.333-2.333c0-0.738,0.344-1.397,0.88-1.825h-0.071
		c-1.568,0-2.84-1.271-2.84-2.84c0-1.568,1.272-2.84,2.84-2.84h0.071c-0.536-0.427-0.88-1.085-0.88-1.825
		c0-1.288,1.044-2.332,2.333-2.332h6.584c-1.289,0-2.333,1.043-2.333,2.332c0,0.74,0.344,1.397,0.881,1.825h-0.072
		c-1.568,0-2.84,1.272-2.84,2.84c0,1.569,1.272,2.84,2.84,2.84h0.072c-0.537,0.428-0.881,1.086-0.881,1.825
		c0,1.289,1.044,2.333,2.333,2.333h0.439c-0.076,0.209-0.118,0.436-0.118,0.672c0,0.542,0.221,1.035,0.577,1.391
		C214.416,133.698,214.906,133.918,215.449,133.918L215.449,133.918z"/>
	<path fill="#F1D59D" d="M228.908,118.469c0,1.905-1.07,3.563-2.643,4.397v0.258c0,1.2-0.486,2.287-1.273,3.074
		c-0.686,0.685-1.6,1.143-2.62,1.248c-0.148,0.016-0.3,0.023-0.453,0.023s-0.305-0.007-0.453-0.023
		c-2.187-0.226-3.892-2.075-3.892-4.322v-0.258c-0.786-0.418-1.446-1.042-1.911-1.798c-0.463-0.757-0.731-1.646-0.731-2.599
		c0-2.749,2.229-4.978,4.977-4.978h4.021c1.375,0,2.619,0.557,3.521,1.458C228.351,115.85,228.908,117.094,228.908,118.469
		L228.908,118.469z"/>
	<path fill="#F1B986" d="M223.491,127.176c-0.487,0.188-1.016,0.292-1.571,0.292c-2.4,0-4.345-1.945-4.345-4.345v-0.258
		c-0.787-0.418-1.447-1.042-1.912-1.798c-0.465-0.756-0.731-1.646-0.731-2.599c0-2.749,2.229-4.978,4.978-4.978h3.142
		c-2.749,0-4.978,2.229-4.978,4.978c0,0.953,0.267,1.843,0.731,2.599c0.464,0.756,1.125,1.379,1.911,1.798v0.258
		C220.717,124.969,221.868,126.546,223.491,127.176L223.491,127.176z"/>
	<g>
		<path fill="#2B4D66" d="M220.5,120.291c-0.25,0-0.453-0.203-0.453-0.453v-0.758c0-0.25,0.203-0.452,0.453-0.452
			s0.452,0.202,0.452,0.452v0.758C220.952,120.088,220.75,120.291,220.5,120.291z"/>
		<path fill="#2B4D66" d="M223.34,120.291c-0.25,0-0.452-0.203-0.452-0.453v-0.758c0-0.25,0.203-0.452,0.452-0.452
			c0.25,0,0.453,0.202,0.453,0.452v0.758C223.793,120.088,223.591,120.291,223.34,120.291z"/>
	</g>
	<path fill="#E2A770" d="M223.788,123.882c0,0.873-0.603,1.608-1.415,1.811v1.752c-0.148,0.016-0.3,0.023-0.453,0.023
		c-0.153,0-0.305-0.007-0.453-0.023v-1.752c-0.812-0.203-1.414-0.938-1.414-1.811c0-0.251,0.203-0.453,0.452-0.453
		c0.25,0,0.453,0.202,0.453,0.453c0,0.53,0.432,0.961,0.961,0.961c0.531,0,0.962-0.432,0.962-0.961c0-0.251,0.202-0.453,0.452-0.453
		S223.788,123.631,223.788,123.882L223.788,123.882z"/>
	<g>
		<path fill="#F1B986" d="M211.627,119.155c1.094,1.094,2.868,1.094,3.962,0c1.094-1.094,1.094-2.868,0-3.962L211.627,119.155z"/>
		<path fill="#F1B986" d="M232.213,119.155c-1.094,1.094-2.868,1.094-3.962,0c-1.094-1.094-1.094-2.868,0-3.962L232.213,119.155z"/>
	</g>
	<path fill="#F9F6F9" d="M229.014,113.034h-0.342c0-0.932-0.756-1.688-1.688-1.688s-1.688,0.755-1.688,1.688v-0.761
		c0-0.932-0.756-1.688-1.688-1.688c-0.933,0-1.688,0.756-1.688,1.688c0-0.932-0.756-1.688-1.688-1.688s-1.688,0.756-1.688,1.688
		v0.761c0-0.932-0.755-1.688-1.688-1.688s-1.688,0.755-1.688,1.688h-0.342c-0.685,0-1.24,0.556-1.24,1.24s0.555,1.239,1.24,1.239
		h0.342c0,0.933,0.756,1.688,1.688,1.688s1.688-0.756,1.688-1.688v0.761c0,0.933,0.756,1.688,1.688,1.688
		c0.933,0,1.688-0.755,1.688-1.688c0,0.933,0.755,1.688,1.688,1.688c0.932,0,1.688-0.755,1.688-1.688v-0.761
		c0,0.933,0.755,1.688,1.688,1.688s1.688-0.756,1.688-1.688h0.342c0.685,0,1.24-0.555,1.24-1.239S229.699,113.034,229.014,113.034z"
		/>
	<path fill="#DDDAEC" d="M230.254,114.275c0,0.684-0.555,1.239-1.24,1.239h-0.342c0,0.467-0.189,0.888-0.495,1.194
		c-0.306,0.306-0.727,0.495-1.193,0.495c-0.933,0-1.688-0.756-1.688-1.688v0.762c0,0.932-0.756,1.687-1.688,1.687
		s-1.688-0.755-1.688-1.687c0,0.932-0.756,1.687-1.688,1.687s-1.688-0.755-1.688-1.687v-0.762c0,0.467-0.189,0.888-0.494,1.194
		c-0.305,0.306-0.728,0.495-1.193,0.495c-0.933,0-1.688-0.756-1.688-1.688h-0.342c-0.342,0-0.652-0.138-0.876-0.363
		c-0.225-0.224-0.364-0.534-0.364-0.876c0-0.404,0.193-0.762,0.491-0.988c0.208,0.158,0.468,0.252,0.749,0.252h0.342
		c0,0.932,0.755,1.688,1.688,1.688c0.466,0,0.888-0.189,1.194-0.495c0.305-0.305,0.494-0.728,0.494-1.194v0.761
		c0,0.933,0.756,1.688,1.688,1.688s1.688-0.755,1.688-1.688c0,0.933,0.756,1.688,1.688,1.688s1.688-0.755,1.688-1.688v-0.761
		c0,0.932,0.755,1.688,1.688,1.688c0.466,0,0.888-0.189,1.193-0.495c0.305-0.306,0.495-0.728,0.495-1.194h0.342
		c0.281,0,0.542-0.093,0.75-0.251c0.044,0.033,0.087,0.07,0.127,0.11C230.115,113.622,230.254,113.932,230.254,114.275
		L230.254,114.275z"/>
</g>
<g id="flagLeft">
	<rect id="flagPoleLeft" x="65" y="83" fill="#FFFFFF" width="4" height="144"/>
	<path id="leftGreenFlag2" fill="#FFFFFF" d="M28.5,108.83l41-15.33v32L28.5,108.83z"/>
	<path id="leftGreenFlag" fill="#F4A0A0" d="M28.5,88.83l41-15.33v32L28.5,88.83z"/>
</g>
<g id="flagRight">
	<rect id="flagPoleLeft2" x="725" y="83" fill="#FFFFFF" width="4" height="144"/>
	<path id="leftGreenFlag3" fill="#FFFFFF" d="M688.5,108.83l41-15.33v32L688.5,108.83z"/>
	<path id="leftGreenFlag4" fill="#F4A0A0" d="M688.5,88.83l41-15.33v32L688.5,88.83z"/>
</g>
<g id="hills">
	<path id="backHill" fill="#16A085" d="M212,231c0-98.86,84.62-179,189-179s189,80.14,189,179H401H212z"/>
	<path id="whiteHill" fill="#FFFFFF" d="M333,383c0-123.71,104.09-224,232.5-224S798,259.29,798,383H565.5H333z"/>
	<path id="leftHill" fill="#1ABC9C" d="M3,368c0-129.79,113.94-235,254.5-235C398.06,133,512,238.21,512,368H257.5H3z"/>
</g>
<g>
	<ellipse id="oval" fill="#439F8A" cx="104" cy="215.5" rx="12" ry="5.5"/>
	<path id="bezier" fill="#217D68" d="M89.5,201.5l13.38-56l15.62,56H89.5z"/>
	<rect id="rectangle" x="103" y="178" fill="#AF946C" width="2" height="37"/>
	<path id="bezier2" fill="#AF946C" d="M103.5,187.34l5.73-5.84l1.27,1.3l-6.36,6.479l-0.43,0.221L103.5,187.34z"/>
	<path id="bezier3" fill="#AF946C" d="M103.5,195.34l5.73-5.84l1.27,1.3l-6.36,6.479l-0.43,0.221L103.5,195.34z"/>
	<path id="bezier4" fill="#AF946C" d="M104.5,191.34l-5.73-5.84l-1.27,1.3l6.36,6.479l0.43,0.221L104.5,191.34z"/>
</g>
<g id="yellowTree3">
	<ellipse id="oval4" fill="#E0EBE8" cx="602.75" cy="195" rx="10.75" ry="4"/>
	<path id="bezier13" fill="#8FD182" d="M588.5,183.3l13.38-50.85l15.62,50.85H588.5L588.5,183.3z"/>
	<rect id="rectangle4" x="602" y="165" fill="#AF946C" width="2" height="30"/>
	<path id="bezier14" fill="#AF946C" d="M602.5,170.439l5.729-5.299l1.271,1.18l-6.36,5.89l-0.43,0.19L602.5,170.439z"/>
	<path id="bezier15" fill="#AF946C" d="M602.5,177.7l5.729-5.3l1.271,1.18l-6.36,5.89l-0.43,0.19L602.5,177.7z"/>
	<path id="bezier16" fill="#AF946C" d="M603.5,174.07l-5.729-5.301l-1.271,1.181l6.36,5.89l0.43,0.19L603.5,174.07z"/>
</g>
<g id="darkGreenTree2">
	<ellipse id="oval6" fill="#E0EBE8" cx="665.5" cy="233.255" rx="12" ry="4"/>
	<path id="bezier21" fill="#217D68" d="M648,222.766l16.38-62.021l19.12,62.021H648z"/>
	<rect id="rectangle6" x="664.5" y="200.255" fill="#AF946C" width="2" height="33"/>
	<path id="bezier22" fill="#AF946C" d="M665,207.005l5.729-5.76l1.271,1.278l-6.36,6.41l-0.43,0.211L665,207.005z"/>
	<path id="bezier23" fill="#AF946C" d="M665,214.904l5.729-5.76l1.271,1.278l-6.36,6.41l-0.43,0.21L665,214.904z"/>
	<path id="bezier24" fill="#AF946C" d="M666,210.955l-5.729-5.762L659,206.477l6.36,6.408l0.43,0.211L666,210.955z"/>
</g>
<g id="yellowTree6">
	<ellipse id="oval7" fill="#378C79" cx="349" cy="90.5" rx="12" ry="5.5"/>
	<path id="bezier25" fill="#8FD182" d="M333.5,76.5l14.77-69l17.23,69H333.5z"/>
	<rect id="rectangle7" x="348" y="53" fill="#AF946C" width="2" height="37"/>
	<path id="bezier26" fill="#AF946C" d="M348.5,62.34l5.73-5.84l1.27,1.3l-6.36,6.48l-0.43,0.22L348.5,62.34z"/>
	<path id="bezier27" fill="#AF946C" d="M348.5,70.34l5.73-5.84l1.27,1.3l-6.36,6.48l-0.43,0.22L348.5,70.34z"/>
	<path id="bezier28" fill="#AF946C" d="M349.5,66.34l-5.73-5.84l-1.27,1.3l6.36,6.48l0.43,0.22L349.5,66.34z"/>
</g>
<g id="yellowTree7">
	<ellipse id="oval8" fill="#378C79" cx="492.25" cy="104" rx="10.25" ry="4"/>
	<path id="bezier29" fill="#217D68" d="M477.5,92.3l13.38-50.85L506.5,92.3H477.5z"/>
	<rect id="rectangle8" x="491" y="74" fill="#AF946C" width="2" height="30"/>
	<path id="bezier30" fill="#AF946C" d="M491.5,79.44l5.729-5.3l1.271,1.18l-6.36,5.89l-0.43,0.19L491.5,79.44z"/>
	<path id="bezier31" fill="#AF946C" d="M491.5,86.7l5.729-5.3l1.271,1.18l-6.36,5.89l-0.43,0.19L491.5,86.7z"/>
	<path id="bezier32" fill="#AF946C" d="M492.5,83.07l-5.729-5.3l-1.271,1.18l6.36,5.89l0.43,0.19L492.5,83.07z"/>
</g>
<g>
	<ellipse id="oval_1_" fill="#439F8A" cx="165.209" cy="181.247" rx="22.5" ry="10.313"/>
	<g>
		<path fill="#F1D59D" d="M169.522,173.543v7.583c0,1.134,0.919,2.054,2.053,2.054c1.133,0,2.052-0.92,2.052-2.054
			c0,1.134,0.919,2.054,2.052,2.054c1.134,0,2.053-0.92,2.053-2.054v-7.583h-4.104H169.522z"/>
		<path fill="#F1D59D" d="M155.45,173.543v7.583c0,1.134,0.919,2.054,2.052,2.054c1.134,0,2.053-0.92,2.053-2.054
			c0,1.134,0.918,2.054,2.052,2.054c1.134,0,2.052-0.92,2.052-2.054v-7.583h-4.104H155.45z"/>
		<g>
			<path fill="#F1B986" d="M157.958,181.126v-7.582h1.597v7.582c0,1.134-0.918,2.054-2.052,2.054c-0.283,0-0.553-0.058-0.798-0.162
				C157.441,182.706,157.958,181.977,157.958,181.126z"/>
			<path fill="#F1B986" d="M162.062,181.126v-7.582h1.596v7.582c0,1.134-0.918,2.054-2.051,2.054c-0.283,0-0.553-0.058-0.799-0.162
				C161.544,182.706,162.061,181.977,162.062,181.126z"/>
			<path fill="#F1B986" d="M172.03,181.126v-7.582h1.597v7.582c0,1.134-0.918,2.054-2.052,2.054c-0.283,0-0.553-0.058-0.798-0.162
				C171.513,182.706,172.03,181.977,172.03,181.126z"/>
			<path fill="#F1B986" d="M176.134,181.126v-7.582h1.597v7.582c0,1.134-0.918,2.054-2.052,2.054c-0.283,0-0.553-0.058-0.798-0.162
				C175.618,182.706,176.134,181.977,176.134,181.126z"/>
		</g>
		<path fill="#F9F6F9" d="M145.471,161.979c0,2.354,1.907,4.263,4.26,4.263h0.107c-0.805,0.641-1.321,1.628-1.321,2.735
			c0,1.934,1.566,3.498,3.498,3.498h0.66c-0.114,0.314-0.177,0.654-0.177,1.008c0,1.632,1.321,2.951,2.951,2.951h22.281
			c1.629,0,2.95-1.319,2.95-2.951c0-0.354-0.063-0.691-0.177-1.008h0.66c1.932,0,3.498-1.564,3.498-3.498
			c0-1.107-0.516-2.097-1.32-2.735h0.106c2.354,0,4.261-1.907,4.261-4.263c0-2.353-1.907-4.26-4.261-4.26h-0.106
			c0.805-0.642,1.32-1.629,1.32-2.736c0-1.934-1.566-3.5-3.498-3.5h-29.148c-1.933,0-3.499,1.566-3.499,3.5
			c0,1.107,0.517,2.097,1.321,2.736h-0.107C147.378,157.719,145.471,159.626,145.471,161.979L145.471,161.979z"/>
		<path fill="#DDDAEC" d="M167.855,176.434c0.814,0,1.552-0.33,2.086-0.863c0.534-0.532,0.864-1.271,0.864-2.086
			c0-0.354-0.063-0.692-0.177-1.008h0.66c1.932,0,3.498-1.565,3.498-3.5c0-1.106-0.516-2.097-1.321-2.735h0.108
			c2.353,0,4.26-1.907,4.26-4.263c0-2.352-1.907-4.258-4.26-4.258h-0.108c0.806-0.644,1.321-1.63,1.321-2.738
			c0-1.933-1.566-3.5-3.498-3.5h9.876c1.932,0,3.498,1.567,3.498,3.5c0,1.108-0.516,2.097-1.32,2.738h0.107
			c2.352,0,4.26,1.906,4.26,4.258c0,2.354-1.908,4.263-4.26,4.263h-0.107c0.805,0.641,1.32,1.629,1.32,2.735
			c0,1.935-1.566,3.5-3.498,3.5h-0.66c0.114,0.313,0.177,0.652,0.177,1.008c0,0.813-0.33,1.554-0.863,2.086
			c-0.534,0.533-1.272,0.863-2.087,0.863H167.855L167.855,176.434z"/>
		<path fill="#F1D59D" d="M147.667,153.259c0-2.063,0.836-3.928,2.187-5.279c1.352-1.352,3.218-2.188,5.28-2.188h6.03
			c4.124,0,7.466,3.343,7.466,7.467c0,1.429-0.401,2.763-1.097,3.898c-0.697,1.135-1.688,2.069-2.867,2.696v0.388
			c0,3.37-2.558,6.143-5.838,6.481c-0.223,0.022-0.45,0.034-0.68,0.034c-0.229,0-0.456-0.012-0.678-0.034
			c-1.529-0.158-2.901-0.847-3.931-1.873c-1.18-1.182-1.909-2.811-1.909-4.608v-0.388
			C149.273,158.6,147.667,156.116,147.667,153.259L147.667,153.259z"/>
		<path fill="#F1B986" d="M155.792,166.318c2.435-0.943,4.161-3.311,4.161-6.077v-0.388c1.179-0.627,2.17-1.563,2.866-2.696
			c0.697-1.136,1.099-2.47,1.099-3.898c0-4.124-3.344-7.467-7.468-7.467h4.714c4.123,0,7.466,3.343,7.466,7.467
			c0,1.429-0.4,2.765-1.097,3.898c-0.697,1.134-1.688,2.069-2.867,2.696v0.388c0,3.6-2.917,6.518-6.518,6.518
			C157.317,166.759,156.522,166.604,155.792,166.318L155.792,166.318z"/>
		<g>
			<path fill="#2B4D66" d="M159.6,155.313v-1.138c0-0.374,0.304-0.679,0.679-0.679s0.68,0.305,0.68,0.679v1.138
				c0,0.375-0.305,0.68-0.68,0.68S159.6,155.688,159.6,155.313z"/>
			<path fill="#2B4D66" d="M155.338,155.313v-1.138c0-0.374,0.304-0.679,0.679-0.679c0.376,0,0.68,0.305,0.68,0.679v1.138
				c0,0.375-0.304,0.68-0.68,0.68C155.642,155.99,155.338,155.688,155.338,155.313z"/>
		</g>
		<path fill="#E2A770" d="M155.347,161.379c0-0.376,0.305-0.679,0.679-0.679c0.376,0,0.68,0.303,0.68,0.679
			c0,0.794,0.647,1.441,1.443,1.441c0.795,0,1.442-0.647,1.442-1.441c0-0.376,0.304-0.679,0.679-0.679s0.679,0.303,0.679,0.679
			c0,1.311-0.904,2.412-2.121,2.716v2.628c-0.223,0.024-0.45,0.036-0.679,0.036s-0.457-0.012-0.679-0.036v-2.628
			C156.252,163.791,155.347,162.688,155.347,161.379L155.347,161.379z"/>
		<g>
			<path fill="#F1B986" d="M167.644,148.345c-1.641,1.642-1.641,4.304,0,5.943c1.642,1.642,4.303,1.642,5.943,0L167.644,148.345z"/>
			<path fill="#F1B986" d="M148.653,148.345c1.641,1.642,1.641,4.304,0,5.943c-1.642,1.642-4.303,1.642-5.943,0L148.653,148.345z"/>
		</g>
		<path fill="#F9F6F9" d="M145.648,146.967c0,1.026,0.832,1.859,1.859,1.859h0.514c0,1.398,1.133,2.531,2.531,2.531
			c1.398,0,2.532-1.133,2.532-2.531v1.142c0,1.398,1.134,2.533,2.532,2.533c1.398,0,2.531-1.135,2.531-2.533
			c0,1.398,1.134,2.533,2.533,2.533c1.397,0,2.531-1.135,2.531-2.533v-1.142c0,1.398,1.134,2.531,2.532,2.531
			s2.531-1.133,2.531-2.531h0.514c1.026,0,1.859-0.833,1.859-1.859c0-1.027-0.833-1.859-1.859-1.859h-0.514
			c0-1.399-1.133-2.532-2.531-2.532s-2.532,1.133-2.532,2.532v-1.143c0-1.398-1.134-2.532-2.531-2.532
			c-1.399,0-2.533,1.134-2.533,2.532c0-1.398-1.133-2.532-2.531-2.532c-1.398,0-2.532,1.134-2.532,2.532v1.143
			c0-1.399-1.134-2.532-2.532-2.532c-1.398,0-2.531,1.133-2.531,2.532h-0.514C146.48,145.107,145.648,145.939,145.648,146.967z"/>
		<path fill="#DDDAEC" d="M145.648,146.967c0-0.514,0.208-0.979,0.545-1.314c0.059-0.06,0.124-0.116,0.19-0.166
			c0.312,0.237,0.701,0.377,1.124,0.377h0.513c0,0.7,0.283,1.333,0.742,1.791c0.458,0.459,1.091,0.742,1.79,0.742
			c1.398,0,2.531-1.135,2.531-2.533v1.144c0,1.398,1.135,2.53,2.533,2.53c1.397,0,2.531-1.132,2.531-2.53
			c0,1.398,1.134,2.53,2.532,2.53s2.532-1.132,2.532-2.53v-1.144c0,0.7,0.283,1.333,0.741,1.791
			c0.459,0.459,1.092,0.742,1.791,0.742c1.398,0,2.531-1.135,2.531-2.533h0.514c0.422,0,0.812-0.14,1.124-0.377
			c0.446,0.338,0.735,0.876,0.735,1.48c0,0.513-0.208,0.979-0.545,1.315c-0.336,0.336-0.801,0.544-1.314,0.544h-0.514
			c0,1.398-1.133,2.531-2.531,2.531c-0.699,0-1.332-0.282-1.791-0.74c-0.458-0.458-0.741-1.091-0.741-1.791v1.142
			c0,1.398-1.134,2.533-2.532,2.533c-1.397,0-2.532-1.135-2.532-2.533c0,1.398-1.134,2.533-2.531,2.533
			c-1.398,0-2.533-1.135-2.533-2.533v-1.142c0,1.398-1.133,2.531-2.531,2.531c-0.699,0-1.332-0.282-1.79-0.74
			c-0.459-0.458-0.741-1.091-0.741-1.791h-0.514C146.48,148.826,145.648,147.994,145.648,146.967L145.648,146.967z"/>
	</g>
</g>
</svg>
