<?xml version="1.0" encoding="utf-8"?>
<!-- Generator: Adobe Illustrator 16.0.0, SVG Export Plug-In . SVG Version: 6.00 Build 0)  -->
<!DOCTYPE svg PUBLIC "-//W3C//DTD SVG 1.1//EN" "http://www.w3.org/Graphics/SVG/1.1/DTD/svg11.dtd">
<svg version="1.1" id="Layer_1" xmlns="http://www.w3.org/2000/svg" xmlns:xlink="http://www.w3.org/1999/xlink" x="0px" y="0px"
	 width="800px" height="300px" viewBox="0 0 800 300" enable-background="new 0 0 800 300" xml:space="preserve">
<g>
	<g>
		<rect x="425.477" y="35.611" fill="#F4A0A0" width="17.225" height="6.684"/>
		<rect x="425.477" y="42.295" fill="#FFFFFF" width="17.225" height="6.684"/>
	</g>
	<g id="flagRight">
		<rect id="flagPoleLeft2" x="441.389" y="34.927" fill="#FFFFFF" width="1.498" height="53.912"/>
	</g>
</g>
<g>
	<g>
		<path fill="#F1D59D" d="M213.593,160.501h-3.435v6.349c0,0.948,0.769,1.719,1.718,1.719s1.718-0.771,1.718-1.719
			c0,0.948,0.769,1.719,1.717,1.719c0.95,0,1.719-0.771,1.719-1.719v-6.349H213.593z"/>
		<path fill="#F1D59D" d="M225.372,160.501h-3.435v6.349c0,0.948,0.769,1.719,1.718,1.719c0.949,0,1.717-0.771,1.717-1.719
			c0,0.948,0.77,1.719,1.719,1.719c0.948,0,1.717-0.771,1.717-1.719v-6.349H225.372z"/>
		<g>
			<path fill="#F1B986" d="M227.758,168.432c-0.205,0.088-0.431,0.137-0.668,0.137c-0.949,0-1.718-0.771-1.718-1.719v-6.348h1.337
				v6.348C226.709,167.561,227.142,168.171,227.758,168.432z"/>
			<path fill="#F1B986" d="M224.323,168.432c-0.206,0.088-0.432,0.137-0.668,0.137c-0.949,0-1.717-0.771-1.717-1.719v-6.348h1.336
				v6.348C223.275,167.561,223.708,168.171,224.323,168.432z"/>
			<path fill="#F1B986" d="M215.979,168.432c-0.206,0.088-0.431,0.137-0.668,0.137c-0.949,0-1.717-0.771-1.717-1.719v-6.348h1.337
				v6.348C214.931,167.561,215.363,168.171,215.979,168.432z"/>
			<path fill="#F1B986" d="M212.544,168.432c-0.205,0.088-0.431,0.137-0.668,0.137c-0.949,0-1.717-0.771-1.717-1.719v-6.348h1.337
				v6.348C211.496,167.561,211.927,168.171,212.544,168.432z"/>
		</g>
		<path fill="#F9F6F9" d="M237.161,150.82c0-1.969-1.596-3.564-3.565-3.564h-0.089c0.672-0.534,1.105-1.363,1.105-2.291
			c0-1.618-1.311-2.93-2.929-2.93h-24.398c-1.617,0-2.928,1.312-2.928,2.93c0,0.927,0.431,1.753,1.105,2.291h-0.089
			c-1.97,0-3.566,1.598-3.566,3.564c0,1.974,1.596,3.57,3.566,3.57h0.089c-0.673,0.531-1.105,1.36-1.105,2.286
			c0,1.619,1.311,2.929,2.928,2.929h0.553c-0.096,0.268-0.148,0.549-0.148,0.845c0,1.366,1.106,2.471,2.469,2.471h18.65
			c1.365,0,2.47-1.104,2.47-2.471c0-0.296-0.053-0.58-0.148-0.845h0.552c1.617,0,2.928-1.31,2.928-2.929
			c0-0.926-0.432-1.752-1.105-2.286h0.089C235.565,154.391,237.161,152.792,237.161,150.82L237.161,150.82z"/>
		<path fill="#DDDAEC" d="M218.425,162.921h-8.266c-0.682,0-1.3-0.276-1.747-0.723c-0.446-0.444-0.723-1.065-0.723-1.746
			c0-0.298,0.053-0.581,0.148-0.845h-0.552c-1.618,0-2.928-1.311-2.928-2.931c0-0.925,0.431-1.752,1.105-2.286h-0.09
			c-1.968,0-3.565-1.601-3.565-3.57c0-1.967,1.597-3.563,3.565-3.563h0.09c-0.673-0.536-1.105-1.364-1.105-2.292
			c0-1.618,1.311-2.93,2.928-2.93h8.266c-1.617,0-2.928,1.312-2.928,2.93c0,0.928,0.431,1.753,1.106,2.292h-0.091
			c-1.969,0-3.565,1.596-3.565,3.563c0,1.974,1.596,3.57,3.565,3.57h0.091c-0.674,0.531-1.106,1.361-1.106,2.286
			c0,1.62,1.311,2.931,2.928,2.931h0.553c-0.096,0.266-0.148,0.549-0.148,0.845c0,0.683,0.276,1.302,0.724,1.746
			C217.126,162.645,217.744,162.921,218.425,162.921L218.425,162.921z"/>
		<path fill="#F1D59D" d="M235.323,143.522c0,2.392-1.344,4.471-3.317,5.521v0.324c0,1.504-0.61,2.867-1.598,3.857
			c-0.862,0.856-2.01,1.436-3.291,1.565c-0.186,0.021-0.375,0.026-0.567,0.026c-0.193,0-0.383-0.01-0.569-0.026
			c-2.746-0.283-4.887-2.604-4.887-5.425v-0.324c-0.987-0.524-1.816-1.308-2.4-2.257c-0.583-0.951-0.918-2.067-0.918-3.264
			c0-3.452,2.797-6.25,6.249-6.25h5.048c1.726,0,3.288,0.7,4.419,1.831C234.623,140.235,235.323,141.795,235.323,143.522
			L235.323,143.522z"/>
		<path fill="#F1B986" d="M228.522,154.454c-0.611,0.237-1.276,0.368-1.972,0.368c-3.014,0-5.456-2.442-5.456-5.455v-0.324
			c-0.987-0.525-1.816-1.309-2.4-2.257c-0.583-0.949-0.918-2.067-0.918-3.264c0-3.452,2.798-6.25,6.249-6.25h3.946
			c-3.452,0-6.251,2.798-6.251,6.25c0,1.196,0.336,2.313,0.92,3.264c0.582,0.948,1.412,1.731,2.398,2.257v0.324
			C225.039,151.682,226.484,153.664,228.522,154.454L228.522,154.454z"/>
		<g>
			<path fill="#2B4D66" d="M224.767,145.812c-0.314,0-0.569-0.256-0.569-0.57v-0.952c0-0.313,0.255-0.568,0.569-0.568
				s0.568,0.255,0.568,0.568v0.952C225.334,145.556,225.081,145.812,224.767,145.812z"/>
			<path fill="#2B4D66" d="M228.333,145.812c-0.314,0-0.569-0.256-0.569-0.57v-0.952c0-0.313,0.254-0.568,0.569-0.568
				c0.314,0,0.569,0.255,0.569,0.568v0.952C228.902,145.556,228.647,145.809,228.333,145.812z"/>
		</g>
		<path fill="#E2A770" d="M228.895,150.318c0,1.097-0.757,2.021-1.777,2.274v2.198c-0.186,0.021-0.376,0.028-0.568,0.028
			c-0.192,0-0.382-0.01-0.568-0.028v-2.198c-1.019-0.255-1.775-1.178-1.775-2.274c0-0.313,0.254-0.567,0.568-0.567
			s0.568,0.254,0.568,0.567c0,0.667,0.542,1.208,1.207,1.208c0.666,0,1.208-0.541,1.208-1.208c0-0.313,0.255-0.567,0.569-0.567
			C228.64,149.751,228.895,150.005,228.895,150.318L228.895,150.318z"/>
		<g>
			<path fill="#F1B986" d="M213.627,144.384c1.373,1.375,3.6,1.375,4.974,0c1.374-1.373,1.374-3.6,0-4.975L213.627,144.384z"/>
			<path fill="#F1B986" d="M239.472,144.384c-1.373,1.375-3.6,1.375-4.974,0c-1.374-1.373-1.374-3.6,0-4.975L239.472,144.384z"/>
		</g>
		<path fill="#F9F6F9" d="M235.457,136.7h-0.43c0-1.171-0.948-2.119-2.119-2.119c-1.171,0-2.12,0.948-2.12,2.119v-0.957
			c0-1.17-0.949-2.119-2.119-2.119s-2.119,0.949-2.119,2.119c0-1.17-0.949-2.119-2.12-2.119c-1.169,0-2.119,0.949-2.119,2.119v0.957
			c0-1.171-0.949-2.119-2.119-2.119s-2.119,0.948-2.119,2.119h-0.43c-0.859,0-1.556,0.696-1.556,1.556
			c0,0.86,0.697,1.557,1.556,1.557h0.43c0,1.17,0.948,2.119,2.119,2.119c1.17,0,2.119-0.949,2.119-2.119v0.956
			c0,1.17,0.949,2.12,2.119,2.12c1.171,0,2.12-0.95,2.12-2.12c0,1.17,0.948,2.12,2.119,2.12s2.119-0.95,2.119-2.12v-0.956
			c0,1.17,0.949,2.119,2.12,2.119c1.171,0,2.119-0.949,2.119-2.119h0.43c0.859,0,1.556-0.697,1.556-1.557
			C237.013,137.396,236.316,136.699,235.457,136.7z"/>
		<path fill="#DDDAEC" d="M237.013,138.256c0,0.86-0.697,1.557-1.556,1.557h-0.43c0,0.585-0.236,1.116-0.621,1.499
			c-0.383,0.383-0.913,0.62-1.498,0.62c-1.17,0-2.119-0.949-2.119-2.119v0.956c0,1.17-0.95,2.12-2.12,2.12
			c-1.169,0-2.119-0.95-2.119-2.12c0,1.17-0.95,2.12-2.12,2.12c-1.17,0-2.119-0.95-2.119-2.12v-0.956
			c0,0.585-0.237,1.116-0.62,1.499c-0.384,0.383-0.914,0.62-1.499,0.62c-1.17,0-2.119-0.949-2.119-2.119h-0.43
			c-0.429,0-0.819-0.174-1.1-0.455c-0.282-0.282-0.456-0.672-0.456-1.102c0-0.505,0.242-0.955,0.615-1.238
			c0.261,0.198,0.588,0.315,0.941,0.315h0.43c0,1.17,0.948,2.12,2.119,2.12c0.585,0,1.115-0.236,1.499-0.621
			c0.383-0.383,0.62-0.913,0.62-1.499v0.958c0,1.17,0.949,2.118,2.119,2.118c1.17,0,2.12-0.947,2.12-2.118
			c0,1.17,0.949,2.118,2.119,2.118s2.12-0.947,2.12-2.118v-0.958c0,1.17,0.948,2.12,2.119,2.12c0.585,0,1.115-0.236,1.498-0.621
			c0.384-0.383,0.621-0.913,0.621-1.499h0.43c0.354,0,0.68-0.117,0.941-0.315c0.055,0.042,0.109,0.088,0.159,0.139
			C236.839,137.437,237.013,137.826,237.013,138.256L237.013,138.256z"/>
	</g>
</g>
<g>
	<path fill="#D1B483" d="M425.306,89.156h-13.952V69.494h13.952V89.156z"/>
	<path fill="#E5CB95" d="M424.037,61.249v27.907h16.49V75.202l-7.61-5.708v-8.246L424.037,61.249L424.037,61.249z"/>
	<path fill="#603813" d="M420.232,59.98h13.947l-11.416,11.416h-13.949L420.232,59.98z"/>
	<path fill="#42210B" d="M427.938,64.958l-6.438,6.438h1.269l11.416-11.416h-13.948l-1.271,1.268h7.439
		C428.338,61.249,429.308,63.589,427.938,64.958z"/>
	<path fill="#351C0A" d="M434.819,89.156h-3.811v-7.611h3.811V89.156z"/>
	<path fill="#42210B" d="M432.917,67.591l10.898,7.992l-1.602,2.156l-9.302-6.977L432.917,67.591L432.917,67.591z"/>
	<path fill="#351C0A" d="M415.158,77.739v3.805h5.074v-3.858L415.158,77.739z"/>
	<path fill="#E0C999" d="M414.523,76.471h6.343v3.171l-2.537-0.634l-3.806,0.634V76.471z"/>
	<path fill="#C6AD81" d="M414.523,78.268v1.375l3.806-0.634l2.537,0.634v-3.171h-0.634v1.902l-2.539-0.634L414.523,78.268z"/>
	<path fill="#A08F6D" d="M418.182,79.642c-0.27,0-0.482-0.218-0.482-0.486v-2.685h1.269v2.685c0,0.268-0.217,0.486-0.481,0.486
		H418.182L418.182,79.642z"/>
	<path fill="#8F5521" d="M420.866,65.054h-3.81v-6.342h3.81V65.054z"/>
	<path fill="#603714" d="M418.329,65.054h-1.271v-6.342h1.271V65.054z"/>
	<path fill="#E0C999" d="M422.135,59.98h-6.343v-2.537h6.343V59.98z"/>
	<path fill="#A08F6D" d="M418.963,59.98h-3.171v-2.537h3.171V59.98z"/>
</g>
<path id="backHill" fill="#16A085" d="M212,262c0-98.859,84.62-179,189-179s189,80.141,189,179H401H212z"/>
<path id="whiteHill" fill="#FFFFFF" d="M333,414c0-123.71,104.09-224,232.5-224S798,290.29,798,414H565.5H333z"/>
<path id="leftHill" fill="#1ABC9C" d="M3,399c0-129.79,113.94-235,254.5-235C398.06,164,512,269.21,512,399H257.5H3z"/>
<g>
	<ellipse id="oval" fill="#439F8A" cx="104" cy="246.5" rx="12" ry="5.5"/>
	<path id="bezier" fill="#217D68" d="M89.5,232.5l13.38-56l15.62,56H89.5z"/>
	<rect id="rectangle" x="103" y="209" fill="#AF946C" width="2" height="37"/>
	<path id="bezier2" fill="#AF946C" d="M103.5,218.34l5.73-5.84l1.27,1.3l-6.36,6.479l-0.43,0.221L103.5,218.34z"/>
	<path id="bezier3" fill="#AF946C" d="M103.5,226.34l5.73-5.84l1.27,1.3l-6.36,6.479l-0.43,0.221L103.5,226.34z"/>
	<path id="bezier4" fill="#AF946C" d="M104.5,222.34l-5.73-5.84l-1.27,1.3l6.36,6.479l0.43,0.221L104.5,222.34z"/>
</g>
<g id="yellowTree6">
	<ellipse id="oval7" fill="#378C79" cx="349" cy="121.5" rx="12" ry="5.5"/>
	<path id="bezier25" fill="#8FD182" d="M333.5,107.5l14.77-69l17.23,69H333.5z"/>
	<rect id="rectangle7" x="348" y="84" fill="#AF946C" width="2" height="37"/>
	<path id="bezier26" fill="#AF946C" d="M348.5,93.34l5.73-5.84l1.27,1.3l-6.36,6.48l-0.43,0.22L348.5,93.34z"/>
	<path id="bezier27" fill="#AF946C" d="M348.5,101.34l5.73-5.84l1.27,1.3l-6.36,6.48l-0.43,0.22L348.5,101.34z"/>
	<path id="bezier28" fill="#AF946C" d="M349.5,97.34l-5.73-5.84l-1.27,1.3l6.36,6.48l0.43,0.22L349.5,97.34z"/>
</g>
<g>
	<ellipse id="oval8_1_" fill="#378C79" cx="460.313" cy="145.978" rx="10.699" ry="3.252"/>
	<g>
		<path fill="#F1D59D" d="M462.554,141.44v3.941c0,0.589,0.479,1.067,1.066,1.067s1.064-0.478,1.064-1.067
			c0,0.589,0.479,1.067,1.067,1.067s1.065-0.478,1.065-1.067v-3.941h-2.135H462.554z"/>
		<path fill="#F1D59D" d="M455.237,141.44v3.941c0,0.589,0.479,1.067,1.066,1.067s1.066-0.478,1.066-1.067
			c0,0.589,0.479,1.067,1.064,1.067c0.591,0,1.067-0.478,1.067-1.067v-3.941h-2.134H455.237z"/>
		<g>
			<path fill="#F1B986" d="M456.542,145.381v-3.941h0.83v3.941c0,0.589-0.479,1.067-1.066,1.067c-0.146,0-0.287-0.03-0.415-0.083
				C456.273,146.203,456.542,145.823,456.542,145.381z"/>
			<path fill="#F1B986" d="M458.676,145.381v-3.941h0.83v3.941c0,0.589-0.479,1.067-1.066,1.067c-0.146,0-0.286-0.03-0.414-0.083
				C458.406,146.203,458.676,145.823,458.676,145.381z"/>
			<path fill="#F1B986" d="M463.858,145.381v-3.941h0.829v3.941c0,0.589-0.479,1.067-1.065,1.067c-0.147,0-0.286-0.03-0.414-0.083
				C463.589,146.203,463.857,145.823,463.858,145.381z"/>
			<path fill="#F1B986" d="M465.991,145.381v-3.941h0.828v3.941c0,0.589-0.479,1.067-1.064,1.067c-0.147,0-0.287-0.03-0.415-0.083
				C465.723,146.203,465.99,145.823,465.991,145.381z"/>
		</g>
		<path fill="#F9F6F9" d="M450.052,135.428c0,1.223,0.991,2.214,2.216,2.214h0.057c-0.417,0.333-0.688,0.847-0.688,1.423
			c0,1.005,0.815,1.819,1.82,1.819h0.342c-0.06,0.164-0.092,0.341-0.092,0.525c0,0.847,0.687,1.533,1.533,1.533h11.581
			c0.85,0,1.535-0.686,1.535-1.533c0-0.184-0.032-0.362-0.094-0.525h0.344c1.005,0,1.817-0.815,1.817-1.819
			c0-0.577-0.268-1.089-0.688-1.423h0.057c1.224,0,2.215-0.991,2.215-2.214c0-1.224-0.991-2.215-2.215-2.215h-0.057
			c0.42-0.333,0.688-0.847,0.688-1.423c0-1.005-0.813-1.819-1.817-1.819h-15.15c-1.006,0-1.82,0.814-1.82,1.819
			c0,0.576,0.271,1.09,0.688,1.423h-0.057C451.042,133.213,450.052,134.205,450.052,135.428L450.052,135.428z"/>
		<path fill="#DDDAEC" d="M461.688,142.942c0.424,0,0.807-0.171,1.084-0.45c0.276-0.277,0.449-0.662,0.449-1.084
			c0-0.185-0.032-0.361-0.093-0.524h0.342c1.007,0,1.82-0.814,1.82-1.819c0-0.576-0.269-1.089-0.688-1.423h0.057
			c1.223,0,2.215-0.991,2.215-2.214c0-1.223-0.992-2.214-2.215-2.214h-0.057c0.419-0.333,0.688-0.846,0.688-1.423
			c0-1.005-0.813-1.818-1.82-1.818h5.135c1.007,0,1.819,0.814,1.819,1.818c0,0.577-0.268,1.09-0.687,1.423h0.056
			c1.223,0,2.215,0.992,2.215,2.214c0,1.224-0.992,2.214-2.215,2.214h-0.056c0.419,0.334,0.687,0.848,0.687,1.423
			c0,1.005-0.813,1.819-1.819,1.819h-0.343c0.062,0.163,0.094,0.34,0.094,0.524c0,0.423-0.174,0.807-0.448,1.084
			c-0.277,0.278-0.661,0.45-1.085,0.45H461.688L461.688,142.942z"/>
		<path fill="#F1D59D" d="M451.192,130.895c0-1.072,0.436-2.042,1.137-2.744c0.704-0.703,1.674-1.137,2.746-1.137h3.136
			c2.143,0,3.88,1.738,3.88,3.881c0,0.743-0.208,1.437-0.569,2.027c-0.36,0.59-0.877,1.076-1.489,1.402v0.201
			c0,1.752-1.328,3.194-3.033,3.37c-0.116,0.013-0.234,0.018-0.354,0.018c-0.119,0-0.236-0.005-0.354-0.018
			c-0.795-0.082-1.508-0.439-2.044-0.973c-0.612-0.614-0.992-1.461-0.992-2.397v-0.201
			C452.026,133.674,451.192,132.381,451.192,130.895L451.192,130.895z"/>
		<path fill="#F1B986" d="M455.417,137.684c1.266-0.491,2.162-1.721,2.164-3.16v-0.201c0.611-0.327,1.128-0.813,1.488-1.402
			c0.361-0.589,0.568-1.283,0.568-2.026c0-2.144-1.736-3.881-3.88-3.881h2.448c2.145,0,3.882,1.738,3.882,3.881
			c0,0.743-0.207,1.437-0.569,2.026c-0.36,0.59-0.877,1.076-1.49,1.402v0.201c0,1.871-1.518,3.388-3.389,3.388
			C456.209,137.912,455.796,137.831,455.417,137.684L455.417,137.684z"/>
		<g>
			<path fill="#2B4D66" d="M457.396,131.963v-0.591c0-0.195,0.156-0.353,0.353-0.353c0.194,0,0.354,0.158,0.354,0.353v0.591
				c0,0.195-0.157,0.353-0.354,0.353S457.396,132.157,457.396,131.963z"/>
			<path fill="#2B4D66" d="M455.181,131.963v-0.591c0-0.195,0.158-0.353,0.354-0.353c0.192,0,0.353,0.158,0.353,0.353v0.591
				c0,0.195-0.157,0.353-0.353,0.353C455.339,132.316,455.181,132.157,455.181,131.963z"/>
		</g>
		<path fill="#E2A770" d="M455.186,135.116c0-0.196,0.159-0.353,0.354-0.353c0.194,0,0.352,0.157,0.352,0.353
			c0,0.413,0.337,0.749,0.751,0.749c0.412,0,0.749-0.336,0.749-0.749c0-0.196,0.159-0.353,0.354-0.353
			c0.191,0,0.352,0.157,0.352,0.353c0,0.681-0.469,1.254-1.103,1.412v1.366c-0.115,0.013-0.233,0.018-0.354,0.018
			s-0.237-0.005-0.354-0.018v-1.366C455.655,136.37,455.186,135.797,455.186,135.116L455.186,135.116z"/>
		<g>
			<path fill="#F1B986" d="M461.578,128.341c-0.854,0.853-0.854,2.236,0,3.089c0.854,0.853,2.234,0.853,3.089,0L461.578,128.341z"/>
			<path fill="#F1B986" d="M451.705,128.341c0.854,0.853,0.854,2.236,0,3.089c-0.854,0.853-2.237,0.853-3.09,0L451.705,128.341z"/>
		</g>
		<path fill="#F9F6F9" d="M450.143,127.624c0,0.534,0.435,0.966,0.968,0.966h0.268c0,0.727,0.59,1.316,1.316,1.316
			c0.728,0,1.315-0.589,1.315-1.316v0.593c0,0.728,0.589,1.316,1.315,1.316c0.729,0,1.314-0.589,1.314-1.316
			c0,0.728,0.59,1.316,1.316,1.316s1.315-0.589,1.315-1.316v-0.593c0,0.727,0.59,1.316,1.314,1.316c0.726,0,1.316-0.589,1.316-1.316
			h0.267c0.534,0,0.967-0.433,0.967-0.966s-0.433-0.966-0.967-0.966h-0.267c0-0.728-0.589-1.316-1.316-1.316
			c-0.729,0-1.314,0.589-1.314,1.316v-0.594c0-0.727-0.591-1.316-1.315-1.316c-0.729,0-1.316,0.589-1.316,1.316
			c0-0.727-0.588-1.316-1.314-1.316c-0.728,0-1.315,0.589-1.315,1.316v0.594c0-0.728-0.59-1.316-1.315-1.316
			c-0.729,0-1.316,0.589-1.316,1.316h-0.268C450.575,126.657,450.143,127.091,450.143,127.624z"/>
		<path fill="#DDDAEC" d="M450.143,127.625c0-0.267,0.108-0.509,0.282-0.684c0.031-0.031,0.065-0.061,0.101-0.086
			c0.162,0.123,0.365,0.196,0.585,0.196h0.268c0,0.363,0.147,0.692,0.386,0.931c0.238,0.239,0.566,0.386,0.932,0.386
			c0.729,0,1.314-0.589,1.314-1.316v0.593c0,0.728,0.59,1.317,1.316,1.317c0.728,0,1.315-0.589,1.315-1.317
			c0,0.728,0.59,1.317,1.315,1.317s1.314-0.589,1.314-1.317v-0.593c0,0.363,0.147,0.693,0.387,0.931
			c0.238,0.239,0.566,0.386,0.932,0.386c0.728,0,1.316-0.589,1.316-1.316h0.267c0.219,0,0.422-0.073,0.583-0.196
			c0.233,0.176,0.384,0.455,0.384,0.77c0,0.267-0.107,0.509-0.284,0.683c-0.174,0.175-0.415,0.283-0.683,0.283h-0.267
			c0,0.727-0.591,1.316-1.316,1.316c-0.363,0-0.691-0.147-0.93-0.386c-0.239-0.239-0.387-0.567-0.387-0.931v0.594
			c0,0.727-0.591,1.315-1.315,1.315c-0.729,0-1.316-0.589-1.316-1.315c0,0.727-0.59,1.315-1.314,1.315
			c-0.728,0-1.315-0.589-1.315-1.315v-0.594c0,0.727-0.59,1.316-1.315,1.316c-0.362,0-0.691-0.147-0.932-0.386
			c-0.237-0.238-0.387-0.567-0.387-0.931h-0.268C450.575,128.591,450.143,128.158,450.143,127.625L450.143,127.625z"/>
	</g>
</g>
<g id="darkGreenTree2">
	<ellipse id="oval6" fill="#E0EBE8" cx="665.5" cy="264.255" rx="12" ry="4"/>
	<path id="bezier21" fill="#217D68" d="M648,253.766l16.38-62.021l19.12,62.021H648z"/>
	<rect id="rectangle6" x="664.5" y="231.255" fill="#AF946C" width="2" height="33"/>
	<path id="bezier22" fill="#AF946C" d="M665,238.005l5.729-5.76l1.271,1.278l-6.36,6.41l-0.43,0.211L665,238.005z"/>
	<path id="bezier23" fill="#AF946C" d="M665,245.904l5.729-5.76L672,241.42l-6.36,6.41l-0.43,0.21L665,245.904z"/>
	<path id="bezier24" fill="#AF946C" d="M666,241.955l-5.729-5.762L659,237.477l6.36,6.408l0.43,0.211L666,241.955z"/>
</g>
</svg>
