<?xml version="1.0" encoding="utf-8"?>
<!-- Generator: Adobe Illustrator 16.0.0, SVG Export Plug-In . SVG Version: 6.00 Build 0)  -->
<!DOCTYPE svg PUBLIC "-//W3C//DTD SVG 1.1//EN" "http://www.w3.org/Graphics/SVG/1.1/DTD/svg11.dtd">
<svg version="1.1" id="Layer_1" xmlns="http://www.w3.org/2000/svg" xmlns:xlink="http://www.w3.org/1999/xlink" x="0px" y="0px"
	 width="800px" height="300px" viewBox="0 0 800 300" enable-background="new 0 0 800 300" xml:space="preserve">
<g>
	<g>
		<g>
			<rect x="425.477" y="35.611" fill="#F4A0A0" width="17.223" height="6.684"/>
			<rect x="425.477" y="42.295" fill="#FFFFFF" width="17.223" height="6.684"/>
		</g>
		<g id="flagRight">
			<rect id="flagPoleLeft2" x="441.389" y="34.927" fill="#FFFFFF" width="1.498" height="53.912"/>
		</g>
	</g>
	<g>
		<g>
			<path fill="#F1D59D" d="M203.554,166.931h-4.104v7.583c0,1.134,0.919,2.054,2.053,2.054c1.133,0,2.052-0.92,2.052-2.054
				c0,1.134,0.919,2.054,2.052,2.054c1.134,0,2.053-0.92,2.053-2.054v-7.583H203.554z"/>
			<path fill="#F1D59D" d="M217.627,166.931h-4.104v7.583c0,1.134,0.918,2.054,2.052,2.054c1.134,0,2.052-0.92,2.052-2.054
				c0,1.134,0.919,2.054,2.053,2.054c1.133,0,2.052-0.92,2.052-2.054v-7.583H217.627z"/>
			<g>
				<path fill="#F1B986" d="M220.477,176.405c-0.245,0.104-0.515,0.162-0.798,0.162c-1.134,0-2.052-0.92-2.052-2.054v-7.582h1.597
					v7.582C219.224,175.364,219.741,176.094,220.477,176.405z"/>
				<path fill="#F1B986" d="M216.374,176.405c-0.246,0.104-0.516,0.162-0.799,0.162c-1.133,0-2.051-0.92-2.051-2.054v-7.582h1.596
					v7.582C215.121,175.364,215.638,176.094,216.374,176.405z"/>
				<path fill="#F1B986" d="M206.405,176.405c-0.245,0.104-0.515,0.162-0.798,0.162c-1.134,0-2.052-0.92-2.052-2.054v-7.582h1.597
					v7.582C205.152,175.364,205.669,176.094,206.405,176.405z"/>
				<path fill="#F1B986" d="M202.301,176.405c-0.245,0.104-0.515,0.162-0.798,0.162c-1.134,0-2.052-0.92-2.052-2.054v-7.582h1.597
					v7.582C201.048,175.364,201.564,176.094,202.301,176.405z"/>
			</g>
			<path fill="#F9F6F9" d="M231.711,155.366c0-2.353-1.907-4.26-4.259-4.26h-0.107c0.804-0.639,1.321-1.629,1.321-2.736
				c0-1.934-1.566-3.5-3.499-3.5h-29.148c-1.932,0-3.498,1.566-3.498,3.5c0,1.107,0.515,2.095,1.32,2.736h-0.106
				c-2.354,0-4.261,1.907-4.261,4.26c0,2.356,1.907,4.264,4.261,4.264h0.106c-0.804,0.638-1.32,1.628-1.32,2.734
				c0,1.935,1.566,3.498,3.498,3.498h0.66c-0.114,0.317-0.177,0.654-0.177,1.008c0,1.633,1.321,2.951,2.95,2.951h22.281
				c1.63,0,2.951-1.318,2.951-2.951c0-0.354-0.063-0.693-0.177-1.008h0.66c1.932,0,3.498-1.563,3.498-3.498
				c0-1.106-0.516-2.094-1.321-2.734h0.107C229.804,159.63,231.711,157.721,231.711,155.366L231.711,155.366z"/>
			<path fill="#DDDAEC" d="M209.327,169.821h-9.876c-0.815,0-1.553-0.33-2.087-0.863c-0.533-0.531-0.863-1.272-0.863-2.086
				c0-0.355,0.063-0.694,0.177-1.008h-0.66c-1.932,0-3.498-1.564-3.498-3.5c0-1.105,0.515-2.094,1.32-2.734h-0.107
				c-2.352,0-4.26-1.909-4.26-4.264c0-2.352,1.908-4.258,4.26-4.258h0.107c-0.804-0.641-1.32-1.63-1.32-2.738
				c0-1.933,1.566-3.5,3.498-3.5h9.876c-1.932,0-3.498,1.567-3.498,3.5c0,1.108,0.515,2.095,1.321,2.738h-0.108
				c-2.353,0-4.26,1.906-4.26,4.258c0,2.356,1.907,4.264,4.26,4.264h0.108c-0.805,0.638-1.321,1.629-1.321,2.734
				c0,1.936,1.566,3.5,3.498,3.5h0.66c-0.114,0.316-0.177,0.654-0.177,1.008c0,0.815,0.33,1.555,0.864,2.086
				C207.775,169.491,208.513,169.821,209.327,169.821L209.327,169.821z"/>
			<path fill="#F1D59D" d="M229.515,146.646c0,2.857-1.606,5.341-3.963,6.595v0.388c0,1.797-0.729,3.426-1.909,4.608
				c-1.03,1.025-2.402,1.715-3.931,1.873c-0.222,0.021-0.449,0.033-0.678,0.033c-0.23,0-0.457-0.012-0.68-0.033
				c-3.28-0.339-5.838-3.111-5.838-6.481v-0.388c-1.179-0.627-2.17-1.562-2.867-2.696c-0.696-1.136-1.097-2.47-1.097-3.898
				c0-4.124,3.342-7.467,7.466-7.467h6.03c2.062,0,3.928,0.836,5.28,2.188C228.679,142.719,229.515,144.583,229.515,146.646
				L229.515,146.646z"/>
			<path fill="#F1B986" d="M221.39,159.706c-0.73,0.285-1.525,0.44-2.356,0.44c-3.601,0-6.518-2.918-6.518-6.518v-0.388
				c-1.179-0.627-2.17-1.563-2.867-2.696c-0.697-1.134-1.097-2.47-1.097-3.898c0-4.124,3.343-7.467,7.466-7.467h4.714
				c-4.124,0-7.468,3.343-7.468,7.467c0,1.429,0.402,2.763,1.099,3.898c0.696,1.133,1.687,2.069,2.866,2.696v0.388
				C217.229,156.395,218.955,158.763,221.39,159.706L221.39,159.706z"/>
			<g>
				<path fill="#2B4D66" d="M216.903,149.381c-0.375,0-0.68-0.306-0.68-0.681v-1.138c0-0.374,0.305-0.679,0.68-0.679
					s0.679,0.305,0.679,0.679v1.138C217.582,149.075,217.278,149.381,216.903,149.381z"/>
				<path fill="#2B4D66" d="M221.165,149.381c-0.376,0-0.68-0.306-0.68-0.681v-1.138c0-0.374,0.304-0.679,0.68-0.679
					c0.375,0,0.679,0.305,0.679,0.679v1.138C221.844,149.075,221.54,149.378,221.165,149.381z"/>
			</g>
			<path fill="#E2A770" d="M221.835,154.767c0,1.309-0.905,2.412-2.123,2.717v2.627c-0.222,0.024-0.45,0.036-0.679,0.036
				s-0.456-0.012-0.679-0.036v-2.627c-1.217-0.305-2.121-1.406-2.121-2.717c0-0.376,0.304-0.679,0.679-0.679
				s0.679,0.303,0.679,0.679c0,0.794,0.647,1.441,1.442,1.441c0.796,0,1.443-0.647,1.443-1.441c0-0.376,0.304-0.679,0.68-0.679
				C221.53,154.088,221.835,154.391,221.835,154.767L221.835,154.767z"/>
			<g>
				<path fill="#F1B986" d="M203.595,147.676c1.64,1.642,4.301,1.642,5.943,0c1.641-1.64,1.641-4.301,0-5.943L203.595,147.676z"/>
				<path fill="#F1B986" d="M234.472,147.676c-1.64,1.642-4.301,1.642-5.943,0c-1.641-1.64-1.641-4.301,0-5.943L234.472,147.676z"/>
			</g>
			<path fill="#F9F6F9" d="M229.675,138.496h-0.514c0-1.399-1.133-2.532-2.531-2.532c-1.398,0-2.532,1.133-2.532,2.532v-1.143
				c0-1.398-1.134-2.532-2.532-2.532c-1.398,0-2.531,1.134-2.531,2.532c0-1.398-1.134-2.532-2.533-2.532
				c-1.397,0-2.531,1.134-2.531,2.532v1.143c0-1.399-1.134-2.532-2.532-2.532s-2.531,1.133-2.531,2.532h-0.514
				c-1.026,0-1.859,0.832-1.859,1.859c0,1.026,0.833,1.859,1.859,1.859h0.514c0,1.398,1.133,2.531,2.531,2.531
				s2.532-1.133,2.532-2.531v1.142c0,1.398,1.134,2.533,2.531,2.533c1.399,0,2.533-1.135,2.533-2.533
				c0,1.398,1.133,2.533,2.531,2.533c1.398,0,2.532-1.135,2.532-2.533v-1.142c0,1.398,1.134,2.531,2.532,2.531
				c1.398,0,2.531-1.133,2.531-2.531h0.514c1.027,0,1.859-0.833,1.859-1.859C231.534,139.327,230.702,138.495,229.675,138.496z"/>
			<path fill="#DDDAEC" d="M231.534,140.354c0,1.027-0.832,1.859-1.859,1.859h-0.514c0,0.7-0.282,1.333-0.741,1.791
				c-0.458,0.458-1.091,0.74-1.79,0.74c-1.398,0-2.531-1.133-2.531-2.531v1.142c0,1.398-1.135,2.533-2.533,2.533
				c-1.397,0-2.531-1.135-2.531-2.533c0,1.398-1.135,2.533-2.532,2.533c-1.398,0-2.532-1.135-2.532-2.533v-1.142
				c0,0.7-0.283,1.333-0.741,1.791c-0.459,0.458-1.092,0.74-1.791,0.74c-1.398,0-2.531-1.133-2.531-2.531h-0.514
				c-0.513,0-0.978-0.208-1.314-0.544c-0.337-0.336-0.545-0.802-0.545-1.315c0-0.604,0.289-1.142,0.735-1.48
				c0.312,0.237,0.702,0.377,1.124,0.377h0.514c0,1.398,1.133,2.533,2.531,2.533c0.699,0,1.332-0.283,1.791-0.742
				c0.458-0.458,0.741-1.091,0.741-1.791v1.144c0,1.398,1.134,2.53,2.532,2.53s2.532-1.132,2.532-2.53
				c0,1.398,1.134,2.53,2.531,2.53c1.398,0,2.533-1.132,2.533-2.53v-1.144c0,1.398,1.133,2.533,2.531,2.533
				c0.699,0,1.332-0.283,1.79-0.742c0.459-0.458,0.742-1.091,0.742-1.791h0.513c0.423,0,0.812-0.14,1.124-0.377
				c0.066,0.05,0.131,0.106,0.19,0.166C231.326,139.375,231.534,139.841,231.534,140.354L231.534,140.354z"/>
		</g>
	</g>
	<g>
		<path fill="#D1B483" d="M425.306,89.156h-13.952V69.494h13.952V89.156z"/>
		<path fill="#E5CB95" d="M424.037,61.249v27.907h16.49V75.202l-7.61-5.708v-8.246L424.037,61.249L424.037,61.249z"/>
		<path fill="#603813" d="M420.232,59.98h13.949l-11.416,11.416h-13.951L420.232,59.98z"/>
		<path fill="#42210B" d="M427.938,64.958l-6.438,6.438h1.269l11.416-11.416h-13.95l-1.271,1.268h7.439
			C428.338,61.249,429.308,63.589,427.938,64.958z"/>
		<path fill="#351C0A" d="M434.819,89.156h-3.809v-7.611h3.809V89.156z"/>
		<path fill="#42210B" d="M432.917,67.591l10.898,7.992l-1.6,2.156l-9.302-6.977L432.917,67.591L432.917,67.591z"/>
		<path fill="#351C0A" d="M415.158,77.739v3.805h5.074v-3.858L415.158,77.739z"/>
		<path fill="#E0C999" d="M414.523,76.471h6.343v3.171l-2.537-0.634l-3.806,0.634V76.471z"/>
		<path fill="#C6AD81" d="M414.523,78.268v1.375l3.806-0.634l2.537,0.634v-3.171h-0.634v1.902l-2.539-0.634L414.523,78.268z"/>
		<path fill="#A08F6D" d="M418.182,79.642c-0.27,0-0.484-0.218-0.484-0.486v-2.685h1.269v2.685c0,0.268-0.217,0.486-0.483,0.486
			H418.182L418.182,79.642z"/>
		<path fill="#8F5521" d="M420.866,65.054h-3.808v-6.342h3.808V65.054z"/>
		<path fill="#603714" d="M418.329,65.054h-1.271v-6.342h1.271V65.054z"/>
		<path fill="#E0C999" d="M422.135,59.98h-6.343v-2.537h6.343V59.98z"/>
		<path fill="#A08F6D" d="M418.963,59.98h-3.171v-2.537h3.171V59.98z"/>
	</g>
	<g id="hills">
		<path id="backHill" fill="#16A085" d="M212,262c0-98.859,84.62-179,189-179s189,80.141,189,179H401H212z"/>
		<path id="whiteHill" fill="#FFFFFF" d="M333,414c0-123.71,104.09-224,232.5-224S798,290.29,798,414H565.5H333z"/>
		<path id="leftHill" fill="#1ABC9C" d="M3,399c0-129.79,113.94-235,254.5-235C398.06,164,512,269.21,512,399H257.5H3z"/>
	</g>
	<g>
		<ellipse id="oval" fill="#439F8A" cx="104" cy="246.5" rx="12" ry="5.5"/>
		<path id="bezier" fill="#217D68" d="M89.5,232.5l13.38-56l15.62,56H89.5z"/>
		<rect id="rectangle" x="103" y="209" fill="#AF946C" width="2" height="37"/>
		<path id="bezier2" fill="#AF946C" d="M103.5,218.34l5.73-5.84l1.27,1.3l-6.36,6.479l-0.43,0.221L103.5,218.34z"/>
		<path id="bezier3" fill="#AF946C" d="M103.5,226.34l5.73-5.84l1.27,1.3l-6.36,6.479l-0.43,0.221L103.5,226.34z"/>
		<path id="bezier4" fill="#AF946C" d="M104.5,222.34l-5.73-5.84l-1.27,1.3l6.36,6.479l0.43,0.221L104.5,222.34z"/>
	</g>
	<g id="yellowTree6">
		<ellipse id="oval7" fill="#378C79" cx="349" cy="121.5" rx="12" ry="5.5"/>
		<path id="bezier25" fill="#8FD182" d="M333.5,107.5l14.77-69l17.23,69H333.5z"/>
		<rect id="rectangle7" x="348" y="84" fill="#AF946C" width="2" height="37"/>
		<path id="bezier26" fill="#AF946C" d="M348.5,93.34l5.73-5.84l1.27,1.3l-6.36,6.48l-0.43,0.22L348.5,93.34z"/>
		<path id="bezier27" fill="#AF946C" d="M348.5,101.34l5.73-5.84l1.27,1.3l-6.36,6.48l-0.43,0.22L348.5,101.34z"/>
		<path id="bezier28" fill="#AF946C" d="M349.5,97.34l-5.73-5.84l-1.27,1.3l6.36,6.48l0.43,0.22L349.5,97.34z"/>
	</g>
	<g>
		<ellipse id="oval8_1_" fill="#378C79" cx="476.592" cy="145.892" rx="13.723" ry="4.17"/>
		<g>
			<path fill="#F1D59D" d="M479.467,140.072v5.055c0,0.756,0.612,1.368,1.368,1.368c0.755,0,1.368-0.612,1.368-1.368
				c0,0.756,0.613,1.368,1.368,1.368c0.756,0,1.368-0.612,1.368-1.368v-5.055h-2.736H479.467z"/>
			<path fill="#F1D59D" d="M470.086,140.072v5.055c0,0.756,0.613,1.368,1.368,1.368c0.756,0,1.368-0.612,1.368-1.368
				c0,0.756,0.613,1.368,1.367,1.368c0.757,0,1.369-0.612,1.369-1.368v-5.055h-2.736H470.086z"/>
			<g>
				<path fill="#F1B986" d="M471.758,145.126v-5.055h1.064v5.055c0,0.756-0.612,1.368-1.368,1.368c-0.188,0-0.368-0.038-0.532-0.107
					C471.413,146.181,471.758,145.694,471.758,145.126z"/>
				<path fill="#F1B986" d="M474.494,145.126v-5.055h1.064v5.055c0,0.756-0.613,1.368-1.369,1.368c-0.188,0-0.367-0.038-0.531-0.107
					C474.148,146.181,474.494,145.694,474.494,145.126z"/>
				<path fill="#F1B986" d="M481.141,145.126v-5.055h1.063v5.055c0,0.756-0.612,1.368-1.368,1.368c-0.189,0-0.367-0.038-0.531-0.107
					C480.795,146.181,481.139,145.694,481.141,145.126z"/>
				<path fill="#F1B986" d="M483.876,145.126v-5.055h1.063v5.055c0,0.756-0.612,1.368-1.367,1.368c-0.189,0-0.368-0.038-0.532-0.107
					C483.531,146.181,483.875,145.694,483.876,145.126z"/>
			</g>
			<path fill="#F9F6F9" d="M463.434,132.362c0,1.569,1.271,2.84,2.842,2.84h0.07c-0.535,0.428-0.881,1.086-0.881,1.825
				c0,1.289,1.045,2.333,2.334,2.333h0.438c-0.076,0.21-0.118,0.437-0.118,0.673c0,1.086,0.881,1.966,1.967,1.966h14.854
				c1.088,0,1.968-0.88,1.968-1.966c0-0.236-0.042-0.464-0.118-0.673h0.439c1.289,0,2.332-1.045,2.332-2.333
				c0-0.74-0.344-1.397-0.881-1.825h0.071c1.569,0,2.841-1.271,2.841-2.84c0-1.569-1.271-2.84-2.841-2.84h-0.071
				c0.537-0.428,0.881-1.086,0.881-1.825c0-1.289-1.043-2.333-2.332-2.333h-19.432c-1.289,0-2.334,1.044-2.334,2.333
				c0,0.739,0.346,1.398,0.881,1.825h-0.07C464.704,129.521,463.434,130.793,463.434,132.362L463.434,132.362z"/>
			<path fill="#DDDAEC" d="M478.355,141.998c0.543,0,1.033-0.22,1.39-0.576c0.356-0.356,0.577-0.849,0.577-1.391
				c0-0.236-0.042-0.463-0.118-0.672h0.438c1.289,0,2.334-1.044,2.334-2.333c0-0.739-0.344-1.397-0.881-1.825h0.071
				c1.568,0,2.841-1.271,2.841-2.84c0-1.568-1.272-2.84-2.841-2.84h-0.071c0.537-0.428,0.881-1.085,0.881-1.825
				c0-1.289-1.045-2.332-2.334-2.332h6.584c1.289,0,2.334,1.044,2.334,2.332c0,0.74-0.344,1.398-0.881,1.825h0.071
				c1.568,0,2.841,1.272,2.841,2.84c0,1.569-1.272,2.84-2.841,2.84h-0.071c0.537,0.428,0.881,1.087,0.881,1.825
				c0,1.289-1.045,2.333-2.334,2.333h-0.438c0.076,0.209,0.118,0.436,0.118,0.672c0,0.543-0.221,1.035-0.576,1.391
				c-0.355,0.356-0.848,0.576-1.391,0.576H478.355L478.355,141.998z"/>
			<path fill="#F1D59D" d="M464.896,126.548c0-1.375,0.558-2.619,1.457-3.52c0.902-0.901,2.146-1.458,3.521-1.458h4.021
				c2.748,0,4.977,2.229,4.977,4.978c0,0.953-0.268,1.842-0.73,2.599c-0.465,0.756-1.125,1.38-1.912,1.798v0.258
				c0,2.247-1.704,4.096-3.891,4.322c-0.148,0.016-0.301,0.023-0.453,0.023c-0.153,0-0.306-0.007-0.453-0.023
				c-1.021-0.105-1.935-0.563-2.621-1.248c-0.786-0.787-1.272-1.874-1.272-3.074v-0.258
				C465.967,130.112,464.896,128.454,464.896,126.548L464.896,126.548z"/>
			<path fill="#F1B986" d="M470.314,135.255c1.623-0.63,2.773-2.207,2.775-4.053v-0.258c0.785-0.419,1.446-1.042,1.91-1.798
				c0.465-0.756,0.73-1.646,0.73-2.599c0-2.749-2.229-4.978-4.977-4.978h3.141c2.75,0,4.979,2.229,4.979,4.978
				c0,0.953-0.266,1.843-0.73,2.599c-0.465,0.756-1.125,1.38-1.912,1.798v0.258c0,2.4-1.945,4.345-4.346,4.345
				C471.33,135.547,470.801,135.444,470.314,135.255L470.314,135.255z"/>
			<g>
				<path fill="#2B4D66" d="M472.854,127.917v-0.758c0-0.25,0.201-0.452,0.451-0.452s0.453,0.202,0.453,0.452v0.758
					c0,0.25-0.203,0.453-0.453,0.453S472.854,128.167,472.854,127.917z"/>
				<path fill="#2B4D66" d="M470.012,127.917v-0.758c0-0.25,0.203-0.452,0.453-0.452s0.452,0.202,0.452,0.452v0.758
					c0,0.25-0.202,0.453-0.452,0.453S470.012,128.167,470.012,127.917z"/>
			</g>
			<path fill="#E2A770" d="M470.018,131.961c0-0.251,0.205-0.453,0.455-0.453s0.451,0.202,0.451,0.453
				c0,0.529,0.432,0.961,0.963,0.961c0.528,0,0.961-0.431,0.961-0.961c0-0.251,0.203-0.453,0.453-0.453
				c0.248,0,0.451,0.202,0.451,0.453c0,0.873-0.602,1.608-1.414,1.811v1.752c-0.148,0.016-0.3,0.023-0.453,0.023
				c-0.152,0-0.305-0.007-0.453-0.023v-1.752C470.62,133.57,470.018,132.834,470.018,131.961L470.018,131.961z"/>
			<g>
				<path fill="#F1B986" d="M478.217,123.272c-1.095,1.094-1.095,2.868,0,3.962c1.094,1.094,2.867,1.094,3.961,0L478.217,123.272z"
					/>
				<path fill="#F1B986" d="M465.555,123.272c1.094,1.094,1.094,2.868,0,3.962c-1.095,1.094-2.869,1.094-3.963,0L465.555,123.272z"
					/>
			</g>
			<path fill="#F9F6F9" d="M463.551,122.354c0,0.684,0.555,1.239,1.24,1.239h0.342c0,0.932,0.756,1.688,1.688,1.688
				s1.688-0.755,1.688-1.688v0.761c0,0.933,0.756,1.688,1.688,1.688c0.934,0,1.688-0.755,1.688-1.688
				c0,0.933,0.756,1.688,1.688,1.688s1.688-0.755,1.688-1.688v-0.761c0,0.932,0.756,1.688,1.688,1.688s1.688-0.755,1.688-1.688
				h0.342c0.686,0,1.24-0.555,1.24-1.239s-0.555-1.24-1.24-1.24h-0.342c0-0.933-0.754-1.688-1.688-1.688s-1.688,0.756-1.688,1.688
				v-0.761c0-0.932-0.756-1.688-1.688-1.688s-1.688,0.756-1.688,1.688c0-0.932-0.754-1.688-1.688-1.688
				c-0.932,0-1.688,0.756-1.688,1.688v0.761c0-0.933-0.756-1.688-1.688-1.688s-1.688,0.756-1.688,1.688h-0.342
				C464.105,121.114,463.551,121.669,463.551,122.354z"/>
			<path fill="#DDDAEC" d="M463.551,122.354c0-0.343,0.139-0.653,0.362-0.877c0.04-0.04,0.083-0.077,0.127-0.11
				c0.208,0.158,0.47,0.251,0.75,0.251h0.343c0,0.466,0.189,0.888,0.494,1.194s0.727,0.495,1.193,0.495
				c0.934,0,1.688-0.756,1.688-1.688v0.761c0,0.933,0.756,1.688,1.688,1.688s1.688-0.755,1.688-1.688
				c0,0.933,0.756,1.688,1.688,1.688s1.688-0.755,1.688-1.688v-0.761c0,0.466,0.189,0.889,0.494,1.194
				c0.307,0.306,0.729,0.495,1.194,0.495c0.933,0,1.688-0.756,1.688-1.688h0.342c0.281,0,0.541-0.094,0.748-0.252
				c0.299,0.226,0.492,0.584,0.492,0.988c0,0.342-0.14,0.652-0.365,0.876c-0.223,0.225-0.533,0.363-0.875,0.363h-0.342
				c0,0.932-0.756,1.688-1.688,1.688c-0.465,0-0.888-0.189-1.192-0.495c-0.306-0.306-0.494-0.727-0.494-1.194v0.762
				c0,0.932-0.756,1.687-1.688,1.687s-1.688-0.755-1.688-1.687c0,0.932-0.756,1.687-1.688,1.687s-1.688-0.755-1.688-1.687v-0.762
				c0,0.932-0.756,1.688-1.688,1.688c-0.466,0-0.888-0.189-1.192-0.495c-0.307-0.306-0.496-0.727-0.496-1.194h-0.342
				C464.105,123.594,463.551,123.039,463.551,122.354L463.551,122.354z"/>
		</g>
	</g>
	<g>
		<path fill="#C8EAF5" d="M638.223,243.324c0.029,0.239,0.04,0.479,0.04,0.72c0,11.87-32.841,21.5-73.341,21.5
			s-73.33-9.63-73.33-21.5c0-5.83,7.9-11.12,20.74-14.98c-0.03-0.239-0.04-0.479-0.04-0.72c0-11.87,32.83-21.5,73.33-21.5
			s73.34,9.63,73.34,21.5C658.962,234.174,651.063,239.464,638.223,243.324z"/>
		<path fill="#E6E9ED" d="M638.223,243.324c0.213,0.994,0.135,1.947-0.062,2.99c-0.286,0.974-0.692,1.938-1.27,2.788
			c-1.121,1.729-2.62,3.167-4.206,4.441c-3.224,2.509-6.853,4.34-10.521,5.99c-3.686,1.622-7.49,2.914-11.326,4.065
			c-3.84,1.145-7.731,2.079-11.642,2.912c-7.829,1.629-15.755,2.718-23.715,3.391c-3.985,0.364-7.961,0.558-11.978,0.691
			c-1.936,0.072-3.959,0.101-5.987,0.127c-2.007,0.01-4.006,0.007-6.012-0.05c-8.017-0.167-16.055-0.736-24.09-1.913
			c-4.018-0.585-8.044-1.284-12.06-2.246c-4.019-0.96-8.037-2.083-12.072-3.627c-4.035-1.577-8.088-3.387-12.156-6.738
			c-0.506-0.426-1.009-0.856-1.51-1.388l-0.744-0.766c-0.245-0.268-0.488-0.585-0.729-0.88c-0.239-0.305-0.478-0.593-0.708-0.92
			l-0.668-1.063c-0.447-0.672-0.812-1.566-1.16-2.392c-0.178-0.411-0.292-0.914-0.422-1.373c-0.112-0.479-0.262-0.928-0.304-1.438
			c-0.061-0.499-0.106-1.003-0.137-1.506l-0.021-0.377l0.037-0.759l0.027-0.366l0.027-0.366l0.017-0.199l0.072-0.453
			c0.104-0.604,0.24-1.211,0.403-1.804l0.127-0.438l0.123-0.32l0.257-0.637c0.18-0.411,0.354-0.869,0.563-1.229
			c1.656-3.069,3.779-4.997,5.779-6.579c2.028-1.557,4.062-2.775,6.078-3.79c4.041-2.056,8.059-3.493,12.08-4.741l-4.928,7.579
			l-0.063-0.813l-0.021-0.407l-0.008-0.204l-0.003-0.102c-0.023,0.505,0.028-0.808,0.025-0.684l0.065-0.731l0.035-0.374
			c0.047-0.304,0.102-0.609,0.164-0.914c0.125-0.609,0.282-1.216,0.465-1.805c0.655-1.773,1.534-3.322,2.495-4.527
			c1.928-2.468,4.011-4.073,6.038-5.446c2.039-1.369,4.064-2.403,6.086-3.343c2.023-0.951,4.033-1.707,6.052-2.436
			c4.034-1.374,8.058-2.438,12.081-3.326c4.024-0.879,8.043-1.603,12.071-2.134c8.051-1.083,16.097-1.679,24.133-1.801
			c4.023-0.078,8.019-0.041,12.049,0.084c1.932,0.065,3.965,0.174,5.993,0.283c2.006,0.133,4.002,0.258,6.001,0.437
			c3.996,0.327,7.982,0.788,11.957,1.362c3.973,0.577,7.938,1.246,11.874,2.101c3.937,0.85,7.858,1.811,11.735,3.003
			c3.873,1.206,7.72,2.556,11.471,4.295c3.726,1.773,7.444,3.767,10.708,6.845c1.598,1.546,3.135,3.432,3.944,5.892
			c0.355,1.233,0.557,2.585,0.33,3.878l-0.058,0.363l-0.031,0.187l-0.068,0.262c-0.093,0.347-0.194,0.691-0.304,1.029
			c-0.101,0.361-0.258,0.58-0.387,0.874c-0.144,0.269-0.261,0.562-0.43,0.803c-1.28,2.027-2.981,3.438-4.714,4.601
			c-1.749,1.148-3.565,2.081-5.431,2.835C645.908,241.518,642.086,242.566,638.223,243.324z M638.223,243.324
			c3.622-1.533,7.207-3.139,10.464-5.186c1.642-0.988,3.191-2.099,4.555-3.326c1.354-1.223,2.513-2.615,3.119-4.038
			c0.127-0.345,0.259-0.734,0.315-1.026c0.012-0.138,0.03-0.268,0.059-0.395l0.022-0.096l0.003-0.179l0.004-0.368
			c0.013-0.661-0.19-1.277-0.453-1.889c-0.604-1.217-1.73-2.371-3.09-3.36c-2.737-1.999-6.184-3.45-9.693-4.615
			c-3.522-1.183-7.2-2.08-10.913-2.819c-3.717-0.735-7.479-1.338-11.267-1.792c-3.789-0.447-7.594-0.817-11.41-1.071
			c-3.817-0.259-7.646-0.379-11.474-0.473c-1.911-0.05-3.831-0.049-5.74-0.055c-1.888,0.019-3.771,0.034-5.757,0.093
			c-3.804,0.096-7.645,0.229-11.449,0.499c-7.616,0.54-15.205,1.305-22.645,2.594c-3.717,0.65-7.407,1.354-11.018,2.235
			c-3.608,0.876-7.147,1.902-10.506,3.127c-3.314,1.227-6.569,2.646-9.023,4.317c-1.212,0.813-2.21,1.71-2.682,2.348
			c-0.274,0.32-0.302,0.529-0.362,0.576c0.06-0.116,0.093-0.248,0.096-0.384c0.001-0.067-0.006-0.136-0.02-0.203l-0.031,0.357
			l-0.061,0.732c-0.008,0.154,0.05-1.127,0.026-0.592l0.003-0.011l0.002-0.021v-0.041c-0.003-0.027-0.011-0.054-0.023-0.079
			l-4.928,7.579c-3.465,1.044-6.854,2.26-9.808,3.743c-1.49,0.727-2.822,1.551-3.907,2.369c-1.086,0.804-1.824,1.679-2.054,2.06
			c-0.052,0.055-0.02,0.073-0.047,0.105c-0.008,0.014-0.018,0.026-0.03,0.039l-0.021,0.018l0.034-0.082
			c0.043-0.118,0.058-0.25,0.041-0.38l-0.018-0.097c-0.007,0.026-0.012,0.112-0.018,0.165l-0.035,0.366
			c-0.037-0.048-0.018-0.142-0.035-0.053c0.037,0.181,0.542,1.018,1.513,1.846c0.954,0.844,2.24,1.708,3.646,2.503
			c1.447,0.773,2.973,1.543,4.6,2.22c3.237,1.377,6.743,2.503,10.311,3.487c3.579,0.967,7.236,1.831,10.943,2.549
			c7.419,1.421,14.996,2.439,22.625,3.093c1.905,0.172,3.821,0.293,5.729,0.44c1.888,0.119,3.781,0.239,5.763,0.317
			c3.818,0.163,7.679,0.26,11.521,0.275c3.848,0.02,7.695-0.076,11.543-0.221c3.849-0.147,7.688-0.424,11.521-0.784
			c7.661-0.724,15.296-1.876,22.708-3.846c3.678-1.031,7.332-2.262,10.642-4.104c1.653-0.911,3.235-1.977,4.514-3.352
			c0.658-0.677,1.159-1.469,1.589-2.314C637.957,245.298,638.251,244.288,638.223,243.324z"/>
	</g>
	<g id="darkGreenTree2">
		<ellipse id="oval6" fill="#E0EBE8" cx="665.5" cy="264.255" rx="12" ry="4"/>
		<path id="bezier21" fill="#217D68" d="M648,253.766l16.38-62.021l19.12,62.021H648z"/>
		<rect id="rectangle6" x="664.5" y="231.255" fill="#AF946C" width="2" height="33"/>
		<path id="bezier22" fill="#AF946C" d="M665,238.005l5.729-5.76l1.271,1.278l-6.36,6.41l-0.43,0.211L665,238.005z"/>
		<path id="bezier23" fill="#AF946C" d="M665,245.904l5.729-5.76l1.271,1.277l-6.36,6.41l-0.43,0.21L665,245.904z"/>
		<path id="bezier24" fill="#AF946C" d="M666,241.955l-5.729-5.762L659,237.477l6.36,6.408l0.43,0.211L666,241.955z"/>
	</g>
</g>
</svg>
