<?xml version="1.0" encoding="utf-8"?>
<!-- Generator: Adobe Illustrator 16.0.0, SVG Export Plug-In . SVG Version: 6.00 Build 0)  -->
<!DOCTYPE svg PUBLIC "-//W3C//DTD SVG 1.1//EN" "http://www.w3.org/Graphics/SVG/1.1/DTD/svg11.dtd">
<svg version="1.1" id="_x31__x2C_5" xmlns="http://www.w3.org/2000/svg" xmlns:xlink="http://www.w3.org/1999/xlink" x="0px"
	 y="0px" width="64px" height="64px" viewBox="0 0 64 64" enable-background="new 0 0 64 64" xml:space="preserve">
<g>
	<path fill="#EFEFEF" d="M57.219,49.544c0-12.612,6.531-21.271,6.531-27.347S60.256,3.361,32.306,3.361
		C4.354,3.361,0.25,20.527,0.25,27.21C0.25,58.506,57.219,71.874,57.219,49.544z"/>
	<path fill="#A4AFC1" d="M12.859,11.946c-1.507,0-2.733-1.227-2.733-2.734c0-1.507,1.227-2.733,2.733-2.733
		c1.508,0,2.734,1.227,2.734,2.733C15.593,10.72,14.367,11.946,12.859,11.946z M12.859,8.301c-0.501,0-0.911,0.408-0.911,0.911
		s0.41,0.912,0.911,0.912s0.912-0.409,0.912-0.912S13.361,8.301,12.859,8.301z"/>
	<g>
		<path fill="#F3F3F1" d="M42.481,52.509h8.205V37.924c0-0.502-0.408-0.91-0.912-0.91h-6.38c-0.504,0-0.913,0.408-0.913,0.91V52.509
			L42.481,52.509z"/>
		<path fill="#F3F3F1" d="M28.811,29.721c-0.502,0-0.912,0.408-0.912,0.912v21.876h8.203V30.633c0-0.504-0.409-0.912-0.911-0.912
			H28.811z"/>
		<path fill="#F3F3F1" d="M13.315,52.509h8.203V23.342c0-0.504-0.409-0.913-0.911-0.913h-6.381c-0.503,0-0.911,0.409-0.911,0.913
			V52.509z"/>
	</g>
	<path fill="#4AB19A" d="M52.51,13.313v8.204c0,1.003-0.821,1.824-1.823,1.824h-5.926l-5.924,5.468v-5.468H35.19
		c-1.003,0-1.823-0.821-1.823-1.824v-8.204c0-1.003,0.82-1.823,1.823-1.823h15.495C51.688,11.49,52.51,12.311,52.51,13.313z"/>
	<path fill="#3E9C87" d="M37.471,21.518v-8.204c0-1.003,0.819-1.823,1.821-1.823h-4.101c-1.003,0-1.823,0.82-1.823,1.823v8.204
		c0,1.002,0.82,1.824,1.823,1.824h3.647C38.839,23.34,37.471,22.52,37.471,21.518z"/>
	<path fill="#D5DBE1" d="M47.496,37.014h-4.102c-0.504,0-0.913,0.408-0.913,0.91v14.585h4.104V37.924
		C46.585,37.422,46.993,37.014,47.496,37.014z"/>
	<path fill="#D5DBE1" d="M32.912,29.721h-4.101c-0.502,0-0.912,0.408-0.912,0.912v21.876h4.102V30.633
		C32.001,30.129,32.41,29.721,32.912,29.721z"/>
	<path fill="#D5DBE1" d="M18.328,22.429h-4.101c-0.503,0-0.911,0.409-0.911,0.913v29.167h4.101V23.342
		C17.417,22.838,17.826,22.429,18.328,22.429z"/>
	<path d="M10.125,51.142h43.751v2.734H10.125V51.142z"/>
	<path d="M50.687,53.876h-8.205c-0.753,0-1.366-0.611-1.366-1.367V37.924c0-1.255,1.022-2.277,2.277-2.277h6.382
		c1.258,0,2.279,1.022,2.279,2.277v14.585C52.054,53.265,51.44,53.876,50.687,53.876z M43.85,51.142h5.47v-12.76h-5.47V51.142z"/>
	<path d="M36.103,53.876h-8.203c-0.754,0-1.367-0.611-1.367-1.367V30.633c0-1.257,1.022-2.279,2.279-2.279h4.63v2.734h-4.175v20.054
		h5.469v-17.61h2.735v18.978C37.471,53.265,36.858,53.876,36.103,53.876z"/>
	<path d="M21.518,53.876h-8.203c-0.755,0-1.367-0.611-1.367-1.367V23.342c0-1.257,1.022-2.279,2.278-2.279h6.381
		c1.256,0,2.279,1.022,2.279,2.279v29.167C22.886,53.265,22.274,53.876,21.518,53.876z M14.682,51.142h5.47V23.795h-5.47V51.142z"/>
	<path d="M38.839,30.176c-0.188,0-0.372-0.037-0.551-0.114c-0.495-0.219-0.817-0.709-0.817-1.253v-4.101h-2.279
		c-1.76,0-3.19-1.432-3.19-3.192v-8.203c0-1.759,1.431-3.189,3.19-3.189h15.495c1.758,0,3.19,1.431,3.19,3.189v8.203
		c0,1.76-1.431,3.192-3.19,3.192h-5.391l-5.531,5.104C39.505,30.053,39.174,30.176,38.839,30.176L38.839,30.176z M35.191,12.858
		c-0.248,0-0.456,0.207-0.456,0.455v8.204c0,0.248,0.208,0.456,0.456,0.456h3.647c0.754,0,1.366,0.612,1.366,1.368v2.347
		l3.629-3.352c0.255-0.233,0.586-0.363,0.929-0.363h5.925c0.248,0,0.456-0.208,0.456-0.456v-8.204c0-0.248-0.208-0.455-0.456-0.455
		H35.191z"/>
</g>
</svg>
