<?xml version="1.0" encoding="utf-8"?>
<!-- Generator: Adobe Illustrator 16.0.0, SVG Export Plug-In . SVG Version: 6.00 Build 0)  -->
<!DOCTYPE svg PUBLIC "-//W3C//DTD SVG 1.1//EN" "http://www.w3.org/Graphics/SVG/1.1/DTD/svg11.dtd">
<svg version="1.1" id="_x31__x2C_5" xmlns="http://www.w3.org/2000/svg" xmlns:xlink="http://www.w3.org/1999/xlink" x="0px"
	 y="0px" width="64px" height="64px" viewBox="0 0 64 64" enable-background="new 0 0 64 64" xml:space="preserve">
<g>
	<path fill="#EFEFEF" d="M57.219,49.544c0-12.612,6.531-21.271,6.531-27.347c0-6.076-3.494-18.836-31.444-18.836
		C4.354,3.361,0.25,20.527,0.25,27.21C0.25,58.506,57.219,71.874,57.219,49.544z"/>
	<path fill="#A4AFC1" d="M12.859,11.946c-1.507,0-2.733-1.227-2.733-2.734s1.227-2.733,2.733-2.733c1.508,0,2.734,1.227,2.734,2.733
		C15.593,10.72,14.367,11.946,12.859,11.946z M12.859,8.301c-0.501,0-0.911,0.408-0.911,0.911s0.41,0.912,0.911,0.912
		s0.912-0.409,0.912-0.912S13.361,8.301,12.859,8.301z"/>
	<g>
		<path fill="#F3F3F1" d="M42.48,52.509h8.205V37.924c0-0.502-0.408-0.91-0.912-0.91h-6.379c-0.504,0-0.914,0.408-0.914,0.91V52.509
			L42.48,52.509z"/>
		<path fill="#F3F3F1" d="M28.811,29.721c-0.502,0-0.912,0.408-0.912,0.912v21.876h8.203V30.633c0-0.504-0.408-0.912-0.91-0.912
			H28.811z"/>
		<path fill="#F3F3F1" d="M13.315,52.509h8.203V23.342c0-0.504-0.409-0.913-0.911-0.913h-6.381c-0.503,0-0.911,0.409-0.911,0.913
			V52.509z"/>
	</g>
	<path fill="#4AB19A" d="M52.51,13.313v8.204c0,1.003-0.82,1.824-1.822,1.824h-5.926l-5.925,5.468v-5.468h-3.647
		c-1.002,0-1.822-0.821-1.822-1.824v-8.204c0-1.003,0.82-1.823,1.822-1.823h15.496C51.688,11.49,52.51,12.311,52.51,13.313z"/>
	<path fill="#3E9C87" d="M37.471,21.518v-8.204c0-1.003,0.819-1.823,1.821-1.823h-4.101c-1.004,0-1.823,0.82-1.823,1.823v8.204
		c0,1.002,0.819,1.824,1.823,1.824h3.646C38.839,23.34,37.471,22.52,37.471,21.518z"/>
	<path fill="#D5DBE1" d="M47.496,37.014h-4.102c-0.504,0-0.914,0.408-0.914,0.91v14.585h4.104V37.924
		C46.585,37.422,46.993,37.014,47.496,37.014z"/>
	<path fill="#D5DBE1" d="M32.912,29.721h-4.101c-0.502,0-0.912,0.408-0.912,0.912v21.876h4.102V30.633
		C32.001,30.129,32.41,29.721,32.912,29.721z"/>
	<path fill="#D5DBE1" d="M18.328,22.429h-4.101c-0.503,0-0.911,0.409-0.911,0.913v29.167h4.101V23.342
		C17.417,22.838,17.826,22.429,18.328,22.429z"/>
	<path fill="#656D78" d="M10.125,51.143h43.751v2.733H10.125V51.143z"/>
	<path fill="#656D78" d="M50.688,53.876h-8.205c-0.754,0-1.366-0.61-1.366-1.367V37.924c0-1.255,1.022-2.277,2.276-2.277h6.383
		c1.258,0,2.279,1.022,2.279,2.277v14.585C52.055,53.266,51.439,53.876,50.688,53.876z M43.85,51.143h5.471V38.382H43.85V51.143z"/>
	<path fill="#656D78" d="M36.104,53.876H27.9c-0.754,0-1.367-0.61-1.367-1.367V30.633c0-1.257,1.022-2.279,2.279-2.279h4.629v2.734
		h-4.174v20.055h5.469v-17.61h2.734V52.51C37.471,53.266,36.857,53.876,36.104,53.876z"/>
	<path fill="#656D78" d="M21.518,53.876h-8.203c-0.755,0-1.367-0.61-1.367-1.367V23.342c0-1.257,1.022-2.279,2.278-2.279h6.381
		c1.256,0,2.279,1.022,2.279,2.279v29.167C22.886,53.266,22.274,53.876,21.518,53.876z M14.682,51.143h5.47V23.795h-5.47V51.143z"/>
	<path fill="#656D78" d="M38.839,30.176c-0.188,0-0.372-0.037-0.551-0.114c-0.495-0.219-0.817-0.709-0.817-1.253v-4.101h-2.279
		c-1.76,0-3.189-1.432-3.189-3.192v-8.203c0-1.759,1.432-3.189,3.189-3.189h15.496c1.758,0,3.189,1.431,3.189,3.189v8.203
		c0,1.76-1.432,3.192-3.189,3.192h-5.392l-5.53,5.104C39.505,30.053,39.174,30.176,38.839,30.176L38.839,30.176z M35.191,12.858
		c-0.248,0-0.457,0.207-0.457,0.455v8.204c0,0.248,0.209,0.456,0.457,0.456h3.646c0.754,0,1.366,0.612,1.366,1.368v2.347
		l3.629-3.352c0.255-0.233,0.586-0.363,0.929-0.363h5.926c0.248,0,0.455-0.208,0.455-0.456v-8.204c0-0.248-0.207-0.455-0.455-0.455
		H35.191z"/>
</g>
</svg>
