<?xml version="1.0" encoding="utf-8"?>
<!-- Generator: Adobe Illustrator 16.0.0, SVG Export Plug-In . SVG Version: 6.00 Build 0)  -->
<!DOCTYPE svg PUBLIC "-//W3C//DTD SVG 1.1//EN" "http://www.w3.org/Graphics/SVG/1.1/DTD/svg11.dtd">
<svg version="1.1" id="_x31__x2C_5" xmlns="http://www.w3.org/2000/svg" xmlns:xlink="http://www.w3.org/1999/xlink" x="0px"
	 y="0px" width="64px" height="64px" viewBox="0 0 64 64" enable-background="new 0 0 64 64" xml:space="preserve">
<g>
	<path fill="#EFEFEF" d="M14.456,6.782c12.609,0,21.271-6.532,27.347-6.532s18.838,3.493,18.838,31.445
		c0,27.953-17.168,32.055-23.852,32.055C5.492,63.752-7.876,6.782,14.456,6.782L14.456,6.782z"/>
	<path fill="#A4AFC1" d="M54.787,19.238c-1.508,0-2.734-1.227-2.734-2.733c0-1.508,1.229-2.735,2.734-2.735
		c1.508,0,2.734,1.228,2.734,2.735C57.521,18.012,56.295,19.238,54.787,19.238z M54.787,15.593c-0.504,0-0.91,0.408-0.91,0.912
		s0.406,0.911,0.91,0.911s0.912-0.408,0.912-0.911S55.291,15.593,54.787,15.593z"/>
	<path fill="#F3F3F1" d="M39.748,15.137c0-2.006-1.641-3.646-3.646-3.646H15.138c-2.007,0-3.646,1.641-3.646,3.646v28.256
		c0,2.006,1.641,3.646,3.646,3.646h20.964c2.016,0,3.646-1.631,3.646-3.646V15.137z"/>
	<path fill="#4AB19A" d="M27.897,38.837v5.128c0,4.717,3.879,8.546,8.661,8.546c4.484,0,8.174-3.366,8.605-7.69
		c0.035-0.272,0.053-0.563,0.053-0.854v-5.128L27.897,38.837L27.897,38.837z"/>
	<path fill="#4AB19A" d="M16.959,19.238h6.38v6.382h-6.38V19.238z"/>
	<path fill="#3E9C87" d="M31.999,43.965v-5.128h-4.102v5.128c0,4.717,3.879,8.546,8.661,8.546c0.709,0,1.385-0.11,2.045-0.269
		C34.818,51.323,31.999,47.977,31.999,43.965z"/>
	<path fill="#3E9C87" d="M16.959,19.238h4.101v6.382h-4.101V19.238z"/>
	<path fill="#D5DBE1" d="M15.592,43.395V15.139c0-2.007,1.642-3.646,3.646-3.646h-4.103c-2.006,0-3.646,1.641-3.646,3.646v28.256
		c0,2.006,1.641,3.646,3.646,3.646h4.103C17.231,47.04,15.592,45.398,15.592,43.395z"/>
	<path fill="#656D78" d="M40.305,35.268l-1.529-2.269l1.133-0.765c0.232-0.156,0.303-0.293,0.299-0.334
		c-0.006-0.078-0.152-0.293-0.563-0.477c-1.256-0.564-2.066-1.589-2.164-2.736c-0.092-1.098,0.449-2.131,1.492-2.834l1.133-0.766
		l1.529,2.268L40.5,28.12c-0.23,0.155-0.299,0.293-0.297,0.334c0.006,0.077,0.152,0.292,0.563,0.478
		c1.256,0.564,2.064,1.59,2.164,2.735c0.092,1.099-0.449,2.131-1.49,2.834L40.305,35.268z"/>
	<path fill="#656D78" d="M34.379,35.268l-1.529-2.269l1.135-0.765c0.23-0.156,0.301-0.293,0.297-0.334
		c-0.006-0.078-0.15-0.293-0.563-0.477c-1.256-0.564-2.065-1.589-2.165-2.736c-0.093-1.098,0.451-2.131,1.493-2.834l1.135-0.766
		l1.527,2.268l-1.135,0.765c-0.23,0.155-0.299,0.293-0.295,0.334c0.004,0.077,0.15,0.292,0.561,0.478
		c1.258,0.564,2.066,1.59,2.164,2.735c0.094,1.099-0.449,2.131-1.49,2.834L34.379,35.268z"/>
	<path fill="#656D78" d="M36.559,53.877c-5.53,0-10.028-4.447-10.028-9.914v-5.126c0-0.755,0.613-1.368,1.367-1.368h17.319
		c0.756,0,1.367,0.613,1.367,1.368v5.128c0,0.348-0.02,0.698-0.063,1.026C46.016,50.041,41.729,53.877,36.559,53.877z
		 M29.265,40.204v3.761c0,3.958,3.272,7.18,7.294,7.18c3.762,0,6.879-2.776,7.248-6.459c0.031-0.256,0.043-0.486,0.043-0.719v-3.763
		H29.265L29.265,40.204z"/>
	<path fill="#656D78" d="M24.707,51.143h23.699v2.734H24.707V51.143L24.707,51.143z"/>
	<path fill="#656D78" d="M49.555,46.584h-3.426V43.85h3.426c0.875,0,1.588-0.818,1.588-1.822s-0.713-1.822-1.588-1.822h-3.377
		v-2.734h3.377c2.385,0,4.322,2.045,4.322,4.557S51.938,46.584,49.555,46.584z"/>
	<path fill="#656D78" d="M22.792,48.407h-7.656c-2.766,0-5.013-2.247-5.013-5.015V15.137c0-2.766,2.248-5.014,5.013-5.014h20.966
		c2.766,0,5.014,2.248,5.014,5.014v6.381h-2.734v-6.381c0-1.257-1.021-2.279-2.279-2.279H15.138c-1.257,0-2.279,1.022-2.279,2.279
		v28.256c0,1.258,1.021,2.28,2.279,2.28h7.655L22.792,48.407L22.792,48.407z"/>
	<path fill="#656D78" d="M23.339,26.986h-6.38c-0.755,0-1.368-0.612-1.368-1.366v-6.382c0-0.754,0.613-1.366,1.368-1.366h6.38
		c0.756,0,1.368,0.612,1.368,1.366v6.382C24.707,26.374,24.095,26.986,23.339,26.986z M18.326,24.252h3.646v-3.646h-3.646V24.252z"
		/>
	<path fill="#656D78" d="M27.897,18.327h8.204v2.733h-8.204V18.327z"/>
	<path fill="#656D78" d="M15.592,38.381h8.204v2.734h-8.204V38.381z"/>
	<path fill="#656D78" d="M15.592,31.088h14.493v2.735H15.592V31.088z"/>
</g>
</svg>
