<?xml version="1.0" encoding="utf-8"?>
<!-- Generator: Adobe Illustrator 16.0.0, SVG Export Plug-In . SVG Version: 6.00 Build 0)  -->
<!DOCTYPE svg PUBLIC "-//W3C//DTD SVG 1.1//EN" "http://www.w3.org/Graphics/SVG/1.1/DTD/svg11.dtd">
<svg version="1.1" id="_x31__x2C_5" xmlns="http://www.w3.org/2000/svg" xmlns:xlink="http://www.w3.org/1999/xlink" x="0px"
	 y="0px" width="64px" height="64px" viewBox="224 224 64 64" enable-background="new 224 224 64 64" xml:space="preserve">
<g>
	<path fill="#EFEFEF" d="M238.457,230.782c12.61,0,21.27-6.532,27.346-6.532s18.837,3.493,18.837,31.445
		c0,27.953-17.167,32.055-23.851,32.055C229.493,287.752,216.125,230.782,238.457,230.782L238.457,230.782z"/>
	<path fill="#A4AFC1" d="M278.787,243.239c-1.507,0-2.734-1.227-2.734-2.734c0-1.508,1.228-2.735,2.734-2.735
		c1.508,0,2.735,1.227,2.735,2.735C281.522,242.012,280.295,243.239,278.787,243.239z M278.787,239.593
		c-0.503,0-0.91,0.408-0.91,0.912s0.407,0.911,0.91,0.911c0.504,0,0.912-0.408,0.912-0.911S279.291,239.593,278.787,239.593z"/>
	<path fill="#F3F3F1" d="M263.748,239.137c0-2.006-1.64-3.646-3.646-3.646h-20.964c-2.006,0-3.646,1.641-3.646,3.646v28.256
		c0,2.006,1.641,3.646,3.646,3.646h20.964c2.015,0,3.646-1.631,3.646-3.646V239.137z"/>
	<path fill="#4AB19A" d="M251.898,262.837v5.128c0,4.717,3.88,8.546,8.66,8.546c4.486,0,8.175-3.366,8.607-7.69
		c0.034-0.273,0.052-0.564,0.052-0.855v-5.128H251.898z"/>
	<path fill="#4AB19A" d="M240.96,243.239h6.38v6.381h-6.38V243.239z"/>
	<path fill="#3E9C87" d="M256,267.965v-5.128h-4.102v5.128c0,4.717,3.88,8.546,8.66,8.546c0.709,0,1.386-0.11,2.045-0.269
		C258.819,275.323,256,271.977,256,267.965z"/>
	<path fill="#3E9C87" d="M240.96,243.239h4.101v6.381h-4.101V243.239z"/>
	<path fill="#D5DBE1" d="M239.593,267.394v-28.256c0-2.006,1.641-3.646,3.646-3.646h-4.102c-2.006,0-3.646,1.641-3.646,3.646v28.256
		c0,2.006,1.641,3.646,3.646,3.646h4.102C241.233,271.04,239.593,269.399,239.593,267.394z"/>
	<path d="M264.304,259.267l-1.529-2.268l1.134-0.765c0.231-0.156,0.302-0.293,0.298-0.334c-0.005-0.077-0.152-0.292-0.562-0.476
		c-1.257-0.565-2.066-1.589-2.164-2.736c-0.093-1.098,0.449-2.131,1.491-2.835l1.134-0.765l1.529,2.268l-1.135,0.764
		c-0.23,0.156-0.299,0.293-0.296,0.334c0.006,0.077,0.151,0.292,0.561,0.477c1.256,0.565,2.066,1.59,2.165,2.736
		c0.092,1.098-0.45,2.131-1.491,2.834L264.304,259.267z"/>
	<path d="M258.38,259.267l-1.531-2.268l1.135-0.765c0.231-0.156,0.301-0.293,0.297-0.334c-0.005-0.077-0.15-0.292-0.562-0.476
		c-1.255-0.565-2.065-1.589-2.164-2.736c-0.093-1.098,0.451-2.131,1.492-2.835l1.134-0.765l1.529,2.268l-1.135,0.764
		c-0.231,0.156-0.3,0.293-0.296,0.334c0.005,0.077,0.15,0.292,0.562,0.477c1.256,0.565,2.065,1.59,2.163,2.736
		c0.094,1.098-0.449,2.131-1.491,2.834L258.38,259.267z"/>
	<path d="M260.558,277.877c-5.529,0-10.027-4.447-10.027-9.914v-5.126c0-0.755,0.613-1.368,1.367-1.368h17.319
		c0.756,0,1.367,0.613,1.367,1.368v5.128c0,0.348-0.02,0.698-0.062,1.026C270.016,274.041,265.729,277.877,260.558,277.877z
		 M253.266,264.204v3.761c0,3.958,3.271,7.179,7.292,7.179c3.763,0,6.879-2.776,7.249-6.459c0.031-0.255,0.043-0.486,0.043-0.718
		v-3.763H253.266z"/>
	<path d="M248.708,275.142h23.699v2.735h-23.699V275.142z"/>
	<path d="M273.554,270.584h-3.425v-2.734h3.425c0.875,0,1.588-0.819,1.588-1.823s-0.713-1.822-1.588-1.822h-3.376v-2.735h3.376
		c2.385,0,4.323,2.046,4.323,4.558C277.877,268.539,275.938,270.584,273.554,270.584z"/>
	<path d="M246.793,272.407h-7.656c-2.766,0-5.013-2.247-5.013-5.014v-28.256c0-2.766,2.248-5.014,5.013-5.014h20.964
		c2.766,0,5.014,2.248,5.014,5.014v6.38h-2.734v-6.38c0-1.257-1.022-2.279-2.279-2.279h-20.964c-1.256,0-2.279,1.022-2.279,2.279
		v28.256c0,1.257,1.022,2.28,2.279,2.28h7.656V272.407z"/>
	<path d="M247.34,250.987h-6.38c-0.755,0-1.368-0.613-1.368-1.367v-6.381c0-0.755,0.613-1.367,1.368-1.367h6.38
		c0.755,0,1.368,0.612,1.368,1.367v6.381C248.708,250.374,248.095,250.987,247.34,250.987z M242.327,248.252h3.646v-3.646h-3.646
		V248.252z"/>
	<path d="M251.898,242.327h8.204v2.734h-8.204V242.327z"/>
	<path d="M239.593,262.381h8.204v2.734h-8.204V262.381z"/>
	<path d="M239.593,255.088h14.493v2.735h-14.493V255.088z"/>
</g>
</svg>
