<?xml version="1.0" encoding="iso-8859-1"?>
<!-- Generator: Adobe Illustrator 16.0.0, SVG Export Plug-In . SVG Version: 6.00 Build 0)  -->
<!DOCTYPE svg PUBLIC "-//W3C//DTD SVG 1.1//EN" "http://www.w3.org/Graphics/SVG/1.1/DTD/svg11.dtd">
<svg version="1.1" id="Layer_1" xmlns="http://www.w3.org/2000/svg" xmlns:xlink="http://www.w3.org/1999/xlink" x="0px" y="0px"
	 width="640px" height="640px" viewBox="0 0 640 640" style="enable-background:new 0 0 640 640;" xml:space="preserve">
<g>
	<g>
		<path style="fill:#FFFFFF;" d="M129.584,257.725c2.477-4.627,5.884-8.218,10.221-10.769c4.335-2.548,9.199-3.826,14.594-3.826
			c4.661,0,8.999,1.077,13.006,3.228c4.007,2.149,7.069,4.972,9.184,8.47V223.13h10.054v80.886h-10.054v-11.259
			c-1.968,3.572-4.884,6.504-8.746,8.8c-3.863,2.297-8.38,3.443-13.554,3.443c-5.321,0-10.147-1.313-14.483-3.936
			c-4.337-2.623-7.744-6.302-10.221-11.039c-2.477-4.736-3.717-10.129-3.717-16.179
			C125.868,267.725,127.107,262.351,129.584,257.725z M173.855,262.15c-1.825-3.352-4.283-5.921-7.381-7.704
			c-3.096-1.786-6.501-2.681-10.218-2.681c-3.716,0-7.105,0.875-10.167,2.623c-3.059,1.75-5.5,4.301-7.321,7.652
			c-1.825,3.354-2.733,7.288-2.733,11.806c0,4.59,0.908,8.579,2.733,11.968c1.821,3.389,4.262,5.977,7.321,7.762
			c3.062,1.786,6.452,2.68,10.167,2.68c3.716,0,7.122-0.894,10.218-2.68c3.098-1.785,5.556-4.373,7.381-7.762
			c1.819-3.389,2.733-7.339,2.733-11.858C176.588,269.439,175.674,265.502,173.855,262.15z"/>
		<path style="fill:#FFFFFF;" d="M201.071,232.419c-1.313-1.311-1.967-2.914-1.967-4.81c0-1.895,0.655-3.499,1.967-4.809
			c1.313-1.314,2.914-1.969,4.809-1.969c1.821,0,3.371,0.654,4.647,1.969c1.275,1.31,1.912,2.914,1.912,4.809
			c0,1.896-0.637,3.499-1.912,4.81c-1.276,1.31-2.826,1.969-4.647,1.969C203.985,234.388,202.384,233.729,201.071,232.419z
			 M210.69,244.115v59.9h-9.947v-59.9H210.69z"/>
		<path style="fill:#FFFFFF;" d="M271.792,249.635c4.52,4.41,6.78,10.767,6.78,19.075v35.306h-9.838V270.13
			c0-5.974-1.495-10.548-4.484-13.719c-2.988-3.17-7.068-4.754-12.242-4.754c-5.246,0-9.417,1.641-12.515,4.92
			c-3.097,3.279-4.645,8.054-4.645,14.317v33.121h-9.949v-59.9h9.949v8.525c1.965-3.061,4.645-5.427,8.032-7.105
			c3.389-1.674,7.122-2.514,11.205-2.514C261.372,243.021,267.274,245.227,271.792,249.635z"/>
		<path style="fill:#FFFFFF;" d="M292.125,257.725c2.477-4.627,5.884-8.218,10.22-10.769c4.335-2.548,9.201-3.826,14.596-3.826
			c4.66,0,8.998,1.077,13.005,3.228c4.006,2.149,7.068,4.972,9.184,8.47V223.13h10.055v80.886h-10.055v-11.259
			c-1.969,3.572-4.885,6.504-8.748,8.8c-3.861,2.297-8.379,3.443-13.553,3.443c-5.319,0-10.148-1.313-14.483-3.936
			c-4.336-2.623-7.743-6.302-10.22-11.039c-2.478-4.736-3.719-10.129-3.719-16.179C288.406,267.725,289.647,262.351,292.125,257.725
			z M336.395,262.15c-1.822-3.352-4.281-5.921-7.379-7.704c-3.098-1.786-6.502-2.681-10.219-2.681
			c-3.715,0-7.104,0.875-10.167,2.623c-3.061,1.75-5.501,4.301-7.322,7.652c-1.822,3.354-2.733,7.288-2.733,11.806
			c0,4.59,0.911,8.579,2.733,11.968c1.821,3.389,4.262,5.977,7.322,7.762c3.063,1.786,6.452,2.68,10.167,2.68
			c3.717,0,7.122-0.894,10.219-2.68c3.098-1.785,5.557-4.373,7.379-7.762c1.82-3.389,2.734-7.339,2.734-11.858
			C339.129,269.439,338.215,265.502,336.395,262.15z"/>
		<path style="fill:#FFFFFF;" d="M363.611,232.419c-1.311-1.311-1.969-2.914-1.969-4.81c0-1.895,0.658-3.499,1.969-4.809
			c1.313-1.314,2.916-1.969,4.809-1.969c1.822,0,3.371,0.654,4.648,1.969c1.273,1.31,1.91,2.914,1.91,4.809
			c0,1.896-0.637,3.499-1.91,4.81c-1.277,1.31-2.826,1.969-4.648,1.969C366.527,234.388,364.924,233.729,363.611,232.419z
			 M373.23,244.115v59.9h-9.947v-59.9H373.23z"/>
		<path style="fill:#FFFFFF;" d="M434.334,249.635c4.516,4.41,6.775,10.767,6.775,19.075v35.306h-9.838V270.13
			c0-5.974-1.496-10.548-4.48-13.719c-2.988-3.17-7.066-4.754-12.244-4.754c-5.246,0-9.42,1.641-12.516,4.92
			c-3.098,3.279-4.646,8.054-4.646,14.317v33.121h-9.945v-59.9h9.945v8.525c1.969-3.061,4.646-5.427,8.035-7.105
			c3.391-1.674,7.123-2.514,11.205-2.514C423.91,243.021,429.813,245.227,434.334,249.635z"/>
	</g>
	<g>
		<path style="fill:#FFFFFF;" d="M210.992,318.778c1.527,0.773,2.693,1.887,3.503,3.338c0.809,1.452,1.213,3.181,1.213,5.187
			c0,1.98-0.404,3.694-1.213,5.136c-0.81,1.445-1.976,2.549-3.503,3.312c-1.525,0.762-3.354,1.144-5.485,1.144h-5.708v-19.272h5.708
			C207.638,317.621,209.467,318.008,210.992,318.778z M211.642,333.187c1.405-1.407,2.109-3.37,2.109-5.884
			c0-2.539-0.704-4.521-2.109-5.945c-1.406-1.423-3.451-2.136-6.135-2.136h-3.776v16.073h3.776
			C208.19,335.295,210.235,334.593,211.642,333.187z"/>
		<path style="fill:#FFFFFF;" d="M237.737,319.193v7.195h7.306v1.6h-7.306v7.307h8.129v1.599h-10.062v-19.299h10.062v1.599H237.737z
			"/>
		<path style="fill:#FFFFFF;" d="M268.711,336.423c-0.967-0.439-1.725-1.057-2.276-1.846c-0.552-0.791-0.847-1.671-0.885-2.645
			h2.043c0.093,0.937,0.505,1.759,1.24,2.467c0.735,0.706,1.81,1.059,3.223,1.059c1.307,0,2.341-0.331,3.104-1.004
			c0.764-0.67,1.145-1.521,1.145-2.551c0-0.83-0.213-1.491-0.633-1.999c-0.424-0.502-0.949-0.879-1.573-1.13
			c-0.626-0.248-1.489-0.519-2.589-0.815c-1.288-0.347-2.309-0.688-3.061-1.017c-0.756-0.332-1.4-0.848-1.929-1.544
			c-0.534-0.698-0.8-1.644-0.8-2.84c0-0.992,0.256-1.88,0.773-2.662c0.512-0.779,1.239-1.391,2.177-1.834
			c0.936-0.441,2.014-0.66,3.224-0.66c1.785,0,3.224,0.436,4.317,1.309c1.09,0.873,1.721,2,1.889,3.379h-2.095
			c-0.13-0.79-0.563-1.493-1.298-2.108c-0.734-0.618-1.728-0.926-2.977-0.926c-1.158,0-2.124,0.308-2.894,0.926
			c-0.771,0.615-1.158,1.454-1.158,2.521c0,0.811,0.21,1.461,0.634,1.958c0.421,0.494,0.95,0.871,1.584,1.13
			c0.634,0.257,1.496,0.531,2.58,0.827c1.25,0.349,2.258,0.696,3.032,1.034c0.772,0.341,1.424,0.858,1.956,1.558
			c0.533,0.698,0.802,1.635,0.802,2.811c0,0.903-0.24,1.757-0.717,2.565c-0.477,0.808-1.188,1.461-2.125,1.96
			c-0.937,0.493-2.058,0.742-3.364,0.742C270.792,337.087,269.675,336.866,268.711,336.423z"/>
		<path style="fill:#FFFFFF;" d="M300.454,317.621v19.272h-1.928v-19.272H300.454z"/>
		<path style="fill:#FFFFFF;" d="M336.545,323.245c-0.553-1.267-1.393-2.263-2.523-2.989c-1.129-0.728-2.457-1.09-3.984-1.09
			c-1.434,0-2.719,0.33-3.861,0.992c-1.137,0.659-2.037,1.604-2.699,2.826c-0.662,1.222-0.992,2.644-0.992,4.259
			c0,1.619,0.33,3.042,0.992,4.274s1.563,2.177,2.699,2.839c1.143,0.663,2.428,0.994,3.861,0.994c1.342,0,2.551-0.291,3.627-0.867
			c1.076-0.581,1.939-1.407,2.59-2.481c0.65-1.075,1.023-2.332,1.117-3.766h-8.105v-1.571h10.145v1.405
			c-0.092,1.694-0.551,3.223-1.377,4.591c-0.826,1.37-1.936,2.451-3.322,3.237c-1.391,0.795-2.945,1.188-4.674,1.188
			c-1.783,0-3.4-0.416-4.855-1.255c-1.447-0.834-2.592-2.003-3.428-3.5c-0.837-1.499-1.254-3.194-1.254-5.089
			c0-1.891,0.417-3.587,1.254-5.085c0.836-1.496,1.98-2.666,3.428-3.504c1.455-0.834,3.072-1.252,4.855-1.252
			c2.061,0,3.859,0.514,5.404,1.544c1.543,1.03,2.666,2.463,3.361,4.299H336.545z"/>
		<path style="fill:#FFFFFF;" d="M374.008,336.894h-1.926l-10.67-16.21v16.21h-1.93v-19.272h1.93l10.67,16.185v-16.185h1.926
			V336.894z"/>
	</g>
	<g>
		<path style="fill:#FFFFFF;" d="M441.113,238.264c0.801,0,1.58,0.206,2.34,0.615c0.76,0.411,1.352,0.998,1.779,1.761
			c0.426,0.761,0.635,1.559,0.635,2.387c0,0.818-0.207,1.608-0.627,2.363c-0.418,0.758-1.004,1.345-1.758,1.763
			c-0.756,0.42-1.545,0.628-2.369,0.628s-1.613-0.208-2.367-0.628c-0.756-0.418-1.342-1.005-1.764-1.763
			c-0.42-0.755-0.631-1.545-0.631-2.363c0-0.828,0.215-1.626,0.639-2.387c0.43-0.763,1.023-1.35,1.783-1.761
			C439.533,238.47,440.314,238.264,441.113,238.264z M441.113,239.054c-0.67,0-1.32,0.172-1.951,0.514
			c-0.633,0.343-1.127,0.832-1.486,1.47c-0.355,0.637-0.535,1.299-0.535,1.989c0,0.686,0.174,1.342,0.525,1.971
			s0.844,1.117,1.475,1.468c0.631,0.353,1.287,0.527,1.973,0.527s1.344-0.175,1.975-0.527c0.631-0.351,1.119-0.839,1.467-1.468
			c0.35-0.629,0.527-1.285,0.527-1.971c0-0.69-0.18-1.353-0.537-1.989c-0.354-0.638-0.848-1.127-1.482-1.47
			C442.428,239.226,441.777,239.054,441.113,239.054z M439.025,245.657v-5.122h1.76c0.6,0,1.037,0.048,1.305,0.143
			c0.268,0.092,0.484,0.259,0.645,0.493c0.16,0.236,0.238,0.487,0.238,0.751c0,0.375-0.133,0.701-0.398,0.978
			c-0.268,0.275-0.621,0.435-1.064,0.466c0.182,0.077,0.326,0.167,0.438,0.271c0.205,0.203,0.457,0.542,0.754,1.017l0.627,1.004
			h-1.012l-0.451-0.811c-0.357-0.633-0.646-1.029-0.865-1.189c-0.152-0.118-0.371-0.176-0.662-0.176h-0.486v2.176H439.025z
			 M439.852,242.773h1.004c0.48,0,0.805-0.071,0.98-0.214c0.174-0.145,0.264-0.332,0.264-0.567c0-0.152-0.045-0.288-0.129-0.405
			c-0.082-0.122-0.201-0.212-0.35-0.27c-0.15-0.06-0.424-0.09-0.83-0.09h-0.939V242.773z"/>
	</g>
</g>
</svg>
